xetbook-regular.sfdir
StartChar: exclam
Encoding: 33 33 22
Width: 272
Flags: MW
HStem: -15 106<121 152.5 121 153>
VStem: 82 111<22.5 54>
LayerCount: 2
Fore
SplineSet
189 647 m 2
 151 183 l 2
 147 175 129 170 123 183 c 1
 85 647 l 2
 83 668 81 691 116 690 c 2
 149 689 l 2
 189 688 192 681 189 647 c 2
193 38 m 0
 193 7 169 -15 137 -15 c 0
 105 -15 82 7 82 38 c 0
 82 70 105 91 137 91 c 0
 168 91 193 70 193 38 c 0
EndSplineSet
EndChar
StartChar: quotedbl
Encoding: 34 34 23
Width: 425
Flags: MW
HStem: 654 20G<101.5 137.5 286 323.5>
VStem: 66 111<603.5 628> 249 114<597.5 624.5>
LayerCount: 2
Fore
SplineSet
363 611 m 0
 363 584 357 546 352 520 c 2
 323 367 l 2
 322 364 319 359 312 358 c 0
 303 356 289 361 289 367 c 2
 262 519 l 2
 257 546 249 572 249 600 c 0
 249 649 266 674 306 674 c 0
 341 674 363 649 363 611 c 0
177 611 m 0
 177 596 175 581 173 566 c 0
 171 551 168 536 165 521 c 2
 136 367 l 2
 134 364 129 360 120 361 c 0
 113 361 104 368 102 379 c 2
 77 522 l 2
 72 550 66 578 66 606 c 0
 66 650 83 674 120 674 c 0
 155 674 177 649 177 611 c 0
EndSplineSet
EndChar
StartChar: numbersign
Encoding: 35 35 24
Width: 699
Flags: MW
HStem: 181 65<59 143 68 130 520 628> 434 65<69 71 71 186 294 459 569 633>
LayerCount: 2
Fore
SplineSet
658 229 m 2
 656 199 l 2
 655 180 642 182 628 181 c 0
 598 180 542 180 515 181 c 0
 482 182 495 171 484 156 c 1
 451 -6 l 2
 448 -22 445 -29 428 -29 c 2
 399 -29 l 2
 388 -29 383 -19 386 -3 c 2
 419 155 l 2
 423 173 422 180 405 181 c 0
 352 183 280 183 238 181 c 0
 215 180 213 181 208 158 c 2
 175 -5 l 2
 170 -31 158 -27 135 -28 c 2
 119 -29 l 2
 102 -30 110 -10 112 1 c 2
 145 161 l 2
 148 177 148 181 130 181 c 2
 67 181 l 2
 51 181 46 180 46 199 c 0
 44 208 44 220 46 230 c 0
 46 241 50 246 68 246 c 2
 143 246 l 2
 158 246 163 248 166 264 c 2
 198 418 l 2
 199 424 197 433 186 434 c 0
 158 434 100 435 71 434 c 0
 51 434 45 438 46 450 c 0
 44 461 46 476 48 487 c 0
 48 491 52 498 69 499 c 0
 108 500 167 500 200 499 c 0
 213 498 215 499 218 513 c 2
 255 691 l 2
 261 718 267 710 298 707 c 0
 320 705 320 705 316 685 c 2
 282 515 l 2
 280 507 285 499 294 499 c 0
 341 502 429 497 475 499 c 0
 490 500 491 504 494 517 c 2
 494 517 520 646 527 678 c 0
 531 696 530 706 551 708 c 2
 575 710 l 2
 592 711 595 697 592 684 c 2
 557 515 l 2
 554 501 560 499 569 499 c 0
 589 497 621 498 636 499 c 0
 650 499 659 503 658 484 c 0
 661 473 657 458 656 447 c 0
 656 438 646 434 633 434 c 0
 614 433 578 434 559 434 c 0
 538 435 538 423 534 404 c 2
 505 264 l 2
 502 249 514 246 520 246 c 0
 548 245 594 245 630 246 c 0
 646 247 659 250 658 229 c 2
472 410 m 2
 476 431 473 434 459 434 c 0
 419 435 317 435 286 434 c 0
 269 433 265 435 261 415 c 2
 229 264 l 2
 226 252 232 254 237 247 c 1
 284 249 373 249 415 247 c 0
 427 247 438 247 442 265 c 2
 472 410 l 2
EndSplineSet
Validated: 33
EndChar
StartChar: dollar
Encoding: 36 36 25
Width: 479
Flags: W
HStem: -107 21G<168 193 168 168 269 284 269 269> -10 21G<298.5 299> 637 20G<173 173 274 286 286 288> 638 20G<184 184>
VStem: 36 160<94.5 114.5> 53 66<476.5 485.5> 164 32<52 264 25 297 429 547 547 547 607 649> 262 32<-27 -24.5 37 205 360 525> 262 147<487.5 516.5 487.5 551 487.5 553.5 487.5 649 487.5 649> 361 73<111.5 141.5>
LayerCount: 2
Fore
SplineSet
434 149 m 0xe940
 434 74 381 14 299 -10 c 0
 298 -10 294 -13 294 -19 c 0
 294 -46 294 -70 295 -98 c 0
 295 -106 291 -107 284 -107 c 2
 269 -107 l 2
 264 -106 260 -100 261 -95 c 2
 262 -27 l 2
 262 -22 258 -17 253 -17 c 0
 235 -20 224 -19 206 -16 c 0
 204 -16 197 -19 197 -26 c 2
 198 -90 l 2
 198 -97 202 -103 193 -107 c 1
 168 -107 l 2
 163 -105 163 -100 164 -96 c 2
 164 -92 l 1
 164 -17 l 2xe740
 163 -11 160 -8 158 -7 c 0
 126 3 90 16 66 41 c 0
 47 61 36 85 36 104 c 0xe940
 36 125 54 144 75 144 c 0
 96 144 107 129 118 101 c 0
 129 71 128 59 156 38 c 0
 160 38 164 38 164 52 c 2
 164 297 l 2
 162 302 161 304 157 307 c 0
 104 347 53 380 53 455 c 0
 53 516 96 567 160 588 c 0
 161 588 164 591 164 597 c 2
 164 651 l 2
 165 654 167 656 173 657 c 2xe740
 184 658 l 2xd940
 189 657 194 653 196 649 c 2
 196 607 l 2
 199 604 198 597 206 598 c 0
 221 599 240 599 255 598 c 0
 258 597 262 606 262 609 c 2
 262 649 l 2
 263 653 270 656 274 657 c 2
 286 657 l 2
 290 657 295 653 295 646 c 2
 294 599 l 2xe940
 294 591 298 589 299 588 c 0
 364 569 409 535 409 498 c 0xe880
 409 477 394 461 374 461 c 0
 356 461 344 470 328 494 c 0
 317 511 314 516 302 529 c 1
 302 529 293 533 294 525 c 2
 294 343 l 2
 295 336 294 327 300 322 c 0
 366 281 434 234 434 149 c 0xe940
262 360 m 2
 262 551 l 2
 262 556 259 561 257 561 c 0
 239 566 222 569 203 566 c 0
 198 565 196 556 196 552 c 2
 196 400 l 2
 196 392 199 387 200 386 c 0
 219 371 234 363 254 350 c 0
 258 352 262 354 262 360 c 2
164 429 m 2
 164 547 l 2
 165 548 164 556 160 554 c 0
 134 540 119 516 119 490 c 0
 119 463 128 444 156 420 c 0
 162 415 163 425 164 429 c 2
361 126 m 0
 361 157 346 185 313 207 c 2
 301 215 l 2
 296 218 293 210 294 205 c 2
 294 37 l 2
 295 31 301 29 302 30 c 0
 344 53 361 82 361 126 c 0
262 24 m 2
 262 228 l 2
 262 235 256 246 253 247 c 2
 223 266 l 2
 218 269 216 270 204 278 c 0
 199 280 196 276 196 264 c 2
 196 25 l 2
 197 19 200 16 202 16 c 0
 216 13 242 11 257 14 c 0
 258 14 262 16 262 24 c 2
EndSplineSet
Validated: 33
EndChar
StartChar: percent
Encoding: 37 37 26
Width: 696
Flags: MW
HStem: -42 33<473.5 525.5 473.5 538.5> 217 32<471 523.5> 314 33<160.5 212.5 160.5 225.5> 573 32<158 210.5>
VStem: 44 57<423.5 495.5 423.5 501.5> 272 56<461 461> 357 57<67.5 139.5 67.5 145.5> 585 56<105 105>
LayerCount: 2
Fore
SplineSet
328 461 m 0
 327 375 265 314 186 314 c 0
 110 314 44 375 44 458 c 0
 44 545 107 605 185 605 c 0
 263 605 330 547 328 461 c 0
554 616 m 2
 165 -59 l 2
 163 -64 161 -66 159 -67 c 0
 153 -70 146 -68 139 -68 c 0
 123 -68 120 -59 126 -48 c 2
 517 631 l 2
 523 639 534 640 539 638 c 2
 551 633 l 2
 558 631 556 621 554 616 c 2
641 105 m 0
 640 19 578 -42 499 -42 c 0
 423 -42 357 18 357 102 c 0
 357 189 420 249 498 249 c 0
 575 249 643 191 641 105 c 0
272 461 m 0
 272 534 238 573 183 573 c 0
 133 573 101 531 101 460 c 0
 101 387 135 347 186 347 c 0
 239 347 272 388 272 461 c 0
585 105 m 0
 585 178 551 217 496 217 c 0
 446 217 414 175 414 104 c 0
 414 31 448 -9 499 -9 c 0
 552 -9 585 32 585 105 c 0
EndSplineSet
EndChar
StartChar: ampersand
Encoding: 38 38 27
Width: 763
Flags: W
HStem: -19 47<563.5 639> -19 64<223.5 253> 585 33<271 311.5>
VStem: 42 97<133.5 185> 150 78<496.5 529.5> 361 75<486.5 528.5>
LayerCount: 2
Fore
SplineSet
755 435 m 2xbc
 755 427 748 426 741 425 c 0
 716 422 683 424 664 406 c 0
 653 395 638 370 625 346 c 0
 612 322 601 298 597 291 c 0
 574 249 541 206 517 179 c 0
 514 176 514 171 516 168 c 0
 526 152 532 143 551 108 c 0
 588 41 603 28 630 28 c 0
 648 28 672 39 711 66 c 0
 715 67 721 62 725 55 c 0
 729 48 730 41 725 39 c 0
 678 1 633 -19 592 -19 c 0
 535 -19 510 2 472 72 c 0
 465 86 463 89 459 96 c 0
 455 103 450 104 444 98 c 0
 370 24 289 -19 217 -19 c 0
 119 -19 42 59 42 160 c 0
 42 210 64 258 101 290 c 0
 132 317 166 331 202 348 c 0
 205 350 220 358 214 363 c 0
 174 401 150 447 150 491 c 0
 150 568 210 618 297 618 c 0
 376 618 436 575 436 511 c 0
 436 462 400 419 333 382 c 0
 329 380 330 372 333 370 c 0
 357 352 386 326 412 301 c 0
 448 266 462 249 489 209 c 0
 493 203 499 210 502 214 c 0
 520 237 546 272 567 305 c 0
 600 356 617 400 617 411 c 0
 617 426 570 425 560 427 c 0
 554 430 554 443 556 449 c 0
 557 456 563 455 568 455 c 0
 607 453 693 454 743 456 c 0
 749 457 754 454 755 448 c 2
 755 435 l 2xbc
361 503 m 0
 361 554 333 585 290 585 c 0
 252 585 228 560 228 517 c 0
 228 476 252 434 299 397 c 1
 342 424 361 454 361 503 c 0
431 130 m 0
 434 133 434 138 431 143 c 0
 406 182 378 216 346 249 c 0
 319 276 285 308 252 330 c 0
 246 334 242 333 232 326 c 0
 166 276 139 230 139 172 c 0
 139 95 188 45 259 45 c 0x7c
 314 45 386 80 431 130 c 0
EndSplineSet
Validated: 33
EndChar
StartChar: quotesingle
Encoding: 39 39 28
Width: 185
Flags: MW
HStem: 654 20G<73.5 109.5>
VStem: 38 111<604 625>
LayerCount: 2
Fore
SplineSet
149 611 m 0
 149 597 147 581 144 565 c 0
 141 549 138 533 136 521 c 2
 112 384 l 2
 110 373 105 362 92 363 c 0
 74 365 77 366 74 382 c 2
 50 521 l 2
 45 547 38 574 38 601 c 0
 38 649 55 674 92 674 c 0
 127 674 149 650 149 611 c 0
EndSplineSet
EndChar
StartChar: parenleft
Encoding: 40 40 29
Width: 326
Flags: MW
VStem: 79 71<174.5 284.5 174.5 325.5>
LayerCount: 2
Fore
SplineSet
307 -193 m 0
 313 -206 298 -217 283 -224 c 0
 275 -228 268 -223 262 -216 c 0
 152 -94 79 75 79 240 c 0
 79 411 156 580 271 705 c 1
 291 720 319 691 307 672 c 0
 264 624 216 539 188 466 c 0
 161 395 150 329 150 240 c 0
 150 109 175 17 242 -100 c 0
 269 -147 278 -159 307 -193 c 0
EndSplineSet
Validated: 33
EndChar
StartChar: parenright
Encoding: 41 41 30
Width: 316
Flags: MW
VStem: 170 69<197 307>
LayerCount: 2
Fore
SplineSet
239 242 m 0
 239 71 166 -100 48 -224 c 1
 28 -239 -4 -216 12 -191 c 1
 56 -142 104 -58 132 15 c 0
 159 86 170 152 170 242 c 0
 170 372 144 464 77 582 c 0
 53 625 43 639 19 667 c 0
 11 675 11 691 22 700 c 0
 34 710 48 707 56 699 c 0
 169 575 239 409 239 242 c 0
EndSplineSet
EndChar
StartChar: asterisk
Encoding: 42 42 31
Width: 534
Flags: W
HStem: 225 21G<259.5 284.5> 654 20G<259 285>
VStem: 233 78<620 641.5> 261 24
LayerCount: 2
Fore
SplineSet
467 355 m 0xe0
 467 339 453 319 430 319 c 0
 402 319 388 337 373 357 c 0
 357 377 336 402 295 427 c 0
 289 430 285 428 285 423 c 0
 286 367 293 342 299 324 c 0
 303 314 306 306 308 298 c 0
 311 291 312 282 312 270 c 0
 312 246 297 225 272 225 c 0
 247 225 232 246 232 270 c 0
 232 282 234 291 236 298 c 0
 239 306 242 314 246 324 c 0
 252 342 259 367 260 421 c 0
 260 429 258 432 250 427 c 0
 209 403 188 377 172 357 c 0
 156 337 143 319 114 319 c 0
 92 319 77 339 77 355 c 0
 77 390 96 397 128 404 c 0
 143 408 162 411 183 418 c 0
 200 423 219 431 241 444 c 0
 246 447 253 451 243 456 c 0
 220 468 200 476 183 481 c 0
 161 488 143 491 127 495 c 0
 96 504 77 512 77 545 c 0
 77 554 84 582 119 582 c 0
 141 582 157 560 170 545 c 0
 187 525 210 500 250 475 c 0
 259 470 261 474 261 482 c 0xd0
 259 524 253 549 247 570 c 0
 241 590 233 609 233 631 c 0
 233 652 246 674 272 674 c 0
 298 674 311 652 311 631 c 0
 311 609 304 590 298 570 c 0
 292 549 285 524 284 482 c 0
 284 471 290 473 297 476 c 0
 336 501 358 525 374 545 c 0
 387 560 404 582 426 582 c 0
 461 582 467 554 467 545 c 0
 467 519 450 506 428 498 c 0
 407 490 380 487 362 481 c 0
 345 476 326 468 303 457 c 0
 292 451 292 451 304 444 c 0
 326 432 344 423 361 418 c 0
 380 412 407 410 429 402 c 0
 450 395 467 382 467 355 c 0xe0
EndSplineSet
EndChar
StartChar: plus
Encoding: 43 43 32
Width: 698
Flags: MW
HStem: 305 66<88 92 92 302 302 303 393 398 398 606> 600 20G<330 369 369 375>
VStem: 317 66<78 292 292 294 385 584 584 586.5>
LayerCount: 2
Fore
SplineSet
630 323 m 2
 630 305 624 305 606 305 c 2
 398 305 l 2
 386 305 383 308 383 294 c 2
 383 78 l 2
 383 58 382 58 362 58 c 0
 352 55 340 56 332 58 c 0
 314 58 317 65 317 78 c 2
 317 292 l 2
 317 302 314 305 303 305 c 2
 92 305 l 2
 75 305 71 306 71 323 c 2
 71 350 l 2
 71 368 68 371 88 371 c 2
 302 371 l 2
 315 371 317 373 317 385 c 2
 317 584 l 2
 317 589 316 593 316 597 c 0
 316 607 317 620 330 620 c 2
 369 620 l 2
 381 620 383 619 383 598 c 2
 383 598 383 382 383 381 c 0
 382 376 385 371 393 371 c 2
 609 371 l 2
 628 371 630 366 630 354 c 2
 630 323 l 2
EndSplineSet
Validated: 1
EndChar
StartChar: comma
Encoding: 44 44 33
Width: 251
Flags: W
HStem: 62 20G<109.5 144>
VStem: 70 120<15 27 -24 46>
LayerCount: 2
Fore
SplineSet
190 4 m 0
 190 -52 154 -110 98 -136 c 0
 92 -139 82 -141 78 -137 c 0
 76 -135 75 -132 73 -130 c 0
 71 -124 69 -115 76 -113 c 0
 121 -86 143 -56 143 -26 c 0xc0
 143 -19 142 -16 139 -15 c 0
 136 -13 129 -15 126 -16 c 0
 95 -23 70 -1 70 31 c 0
 70 61 95 82 124 82 c 0
 164 82 190 50 190 4 c 0
EndSplineSet
Validated: 33
EndChar
StartChar: hyphen
Encoding: 45 45 34
Width: 435
Flags: MW
HStem: 199 69<50.5 382 63 377>
LayerCount: 2
Fore
SplineSet
396 252 m 2
 394 213 l 2
 392 204 383 200 377 199 c 0
 221 203 176 197 54 199 c 0
 47 199 45 207 44 211 c 2
 44 251 l 2
 44 263 56 268 63 268 c 0
 138 266 277 271 382 268 c 0
 389 268 396 259 396 252 c 2
EndSplineSet
EndChar
StartChar: period
Encoding: 46 46 35
Width: 205
Flags: MW
HStem: -18 115<108.5 143.5>
VStem: 65 119<23.5 56.5>
LayerCount: 2
Fore
SplineSet
184 40 m 0
 184 7 161 -18 126 -18 c 0
 91 -18 65 6 65 39 c 0
 65 74 90 97 126 97 c 0
 161 97 184 74 184 40 c 0
EndSplineSet
EndChar
StartChar: slash
Encoding: 47 47 36
Width: 479
Flags: MW
HStem: 657 20G<392 396>
LayerCount: 2
Fore
SplineSet
450 648 m 2
 113 -2 l 2
 108 -12 103 -22 91 -21 c 0
 80 -20 23 -28 40 5 c 0
 155 226 264 440 379 661 c 0
 382 666 388 677 396 677 c 2
 446 675 l 2
 453 675 461 664 450 648 c 2
EndSplineSet
EndChar
StartChar: zero
Encoding: 48 48 37
Width: 489
Flags: MW
HStem: -18 36<220 272.5 220 305> 604 36<214 270>
VStem: 34 88<276 345.5 276 401> 369 87<276.5 345.5>
LayerCount: 2
Fore
SplineSet
456 311 m 0
 456 131 365 -18 245 -18 c 0
 125 -18 34 131 34 311 c 0
 34 491 125 640 245 640 c 0
 365 640 456 491 456 311 c 0
369 311 m 0
 369 380 362 446 350 500 c 0
 335 570 295 604 245 604 c 0
 183 604 152 553 139 500 c 0
 127 450 122 380 122 311 c 0
 122 241 127 173 139 122 c 0
 155 52 195 18 245 18 c 0
 300 18 338 67 350 122 c 0
 362 175 369 242 369 311 c 0
EndSplineSet
Substitution2: "'onum' Oldstyle Figures in Latin lookup 0-1" zero.onum
EndChar
StartChar: one
Encoding: 49 49 38
Width: 489
Flags: MW
HStem: -3 41 620 20G
VStem: 215 79
LayerCount: 2
Fore
SplineSet
386 18 m 0
 386 14 389 -6 367 -4 c 0
 307 0 206 -1 143 -3 c 0
 137 -4 128 -3 125 3 c 0
 124 9 123 16 124 21 c 0
 129 31 136 38 148 38 c 0
 163 38 176 35 185 39 c 0
 214 40 215 59 215 83 c 2
 216 506 l 2
 214 517 203 526 196 521 c 0
 169 501 137 483 108 469 c 0
 104 467 97 468 92 473 c 2
 87 482 l 2
 87 487 88 492 91 494 c 0
 125 518 153 540 192 577 c 0
 221 603 230 613 239 624 c 0
 242 629 252 638 261 640 c 2
 273 640 l 2
 284 640 293 629 294 620 c 2
 295 87 l 1
 295 75 l 2
 295 52 298 39 329 38 c 0
 343 38 360 37 369 38 c 0
 379 38 384 30 386 18 c 0
EndSplineSet
Validated: 33
Substitution2: "'onum' Oldstyle Figures in Latin lookup 0-1" one.onum
EndChar
StartChar: two
Encoding: 50 50 39
Width: 489
Flags: MW
HStem: -4 76<173 308 173 395> 415 20G<58.5 67.5> 569 71<204.5 263.5>
VStem: 333 93<430 480>
LayerCount: 2
Fore
SplineSet
444 131 m 0
 445 100 433 41 429 15 c 0
 426 4 409 -4 395 -4 c 0
 318 -4 198 4 66 -4 c 0
 58 -4 43 -1 39 6 c 2
 38 14 l 2
 37 22 47 30 49 34 c 0
 74 63 110 103 170 165 c 0
 248 245 333 320 333 444 c 0
 333 516 298 569 229 569 c 0
 167 569 109 523 84 447 c 0
 81 438 71 435 64 435 c 0
 53 435 52 443 53 448 c 0
 70 565 151 640 258 640 c 0
 366 640 426 562 426 458 c 0
 426 402 397 360 365 319 c 0
 300 235 223 168 150 92 c 0
 144 86 141 75 173 72 c 1
 211 74 278 74 308 72 c 0
 380 68 403 76 414 132 c 0
 415 137 422 146 431 148 c 1
 436 146 l 2
 442 146 444 143 444 131 c 0
EndSplineSet
Substitution2: "'onum' Oldstyle Figures in Latin lookup 0-1" two.onum
EndChar
StartChar: three
Encoding: 51 51 40
Width: 489
Flags: W
HStem: -18 43<216 264.5> -18 118<69.5 264.5> 575 65<220.5 250.5>
VStem: 314 80<502 514> 355 88<157 233>
LayerCount: 2
Fore
SplineSet
443 220 m 0xa8
 443 94 332 -18 197 -18 c 0
 119 -18 41 14 41 60 c 0
 41 81 59 100 80 100 c 0x68
 103 100 126 79 143 65 c 0
 184 31 202 25 230 25 c 0
 301 25 355 100 355 195 c 0xa8
 355 271 319 325 265 325 c 0
 248 325 230 323 210 309 c 0
 203 304 190 305 185 312 c 0
 180 319 184 330 188 334 c 0
 217 355 243 376 269 403 c 0
 302 437 314 464 314 491 c 0
 314 537 275 575 226 575 c 0
 182 575 134 542 103 486 c 0
 99 478 89 480 82 482 c 0
 73 486 69 492 73 501 c 0
 111 588 182 640 259 640 c 0
 335 640 394 591 394 523 c 0xb0
 394 481 371 440 329 405 c 0
 319 396 323 388 329 387 c 0
 399 372 443 303 443 220 c 0xa8
EndSplineSet
Validated: 1
Substitution2: "'onum' Oldstyle Figures in Latin lookup 0-1" three.onum
EndChar
StartChar: four
Encoding: 52 52 41
Width: 489
Flags: W
HStem: -18 21G -17 21G<303.5 310> 175 66 620 20G<349 352 352 352>
VStem: 290 79<258 259 259 481>
LayerCount: 2
Fore
SplineSet
469 228 m 0x78
 473 218 467 198 468 192 c 0
 466 183 459 180 453 179 c 2
 385 176 l 1
 385 176 368 176 369 155 c 0
 371 108 373 43 371 5 c 0
 371 -2 367 -17 352 -18 c 0xb8
 346 -17 325 -16 310 -17 c 0
 297 -17 290 -6 290 6 c 0
 289 41 288 114 290 153 c 0
 287 172 284 173 276 175 c 0
 224 171 120 172 54 175 c 0
 40 176 37 183 37 191 c 2
 37 208 l 1
 74 267 191 447 320 625 c 0
 329 637 332 640 349 640 c 2
 352 640 l 1
 370 635 371 621 369 610 c 2
 369 259 l 2
 369 247 380 243 383 241 c 2
 451 243 l 2
 460 241 465 243 469 228 c 0x78
290 258 m 0
 292 313 292 412 290 481 c 0
 287 499 285 504 276 497 c 0
 214 414 132 288 113 253 c 0
 111 248 116 241 132 239 c 0
 168 236 226 237 274 239 c 0
 278 240 289 244 290 258 c 0
EndSplineSet
Substitution2: "'onum' Oldstyle Figures in Latin lookup 0-1" four.onum
EndChar
StartChar: five
Encoding: 53 53 42
Width: 489
Flags: W
HStem: -18 39<210 251.5 210 262.5> -18 108<84 262.5> 329 80<210 245.5> 546 79<300 342> 620 20G<366 377 377 377>
VStem: 100 42 334 88<142 225>
LayerCount: 2
Fore
SplineSet
422 204 m 0xb6
 422 80 329 -18 196 -18 c 0
 118 -18 55 8 55 50 c 0
 55 72 73 90 95 90 c 0x76
 128 90 157 55 180 35 c 0
 193 24 202 21 218 21 c 0
 285 21 334 93 334 181 c 0
 334 269 285 329 206 329 c 0
 176 329 148 321 120 302 c 0
 115 299 107 293 100 298 c 0
 91 304 90 307 91 321 c 2
 112 603 l 2
 114 624 142 627 157 627 c 2
 300 625 l 2xb6
 327 625 343 622 353 634 c 0
 356 638 362 640 366 640 c 2
 377 640 l 1xae
 383 636 386 632 384 621 c 2
 376 565 l 2
 371 553 367 548 342 546 c 2
 170 549 l 2
 163 547 152 542 149 531 c 2
 142 406 l 2
 141 397 149 394 157 398 c 0
 179 406 196 409 224 409 c 0
 338 409 422 319 422 204 c 0xb6
EndSplineSet
Validated: 33
Substitution2: "'onum' Oldstyle Figures in Latin lookup 0-1" five.onum
EndChar
StartChar: six
Encoding: 54 54 43
Width: 489
Flags: MW
HStem: -18 31<215.5 285.5 215.5 306> 340 38<254.5 285.5>
VStem: 49 88<169.5 232 158 337> 352 88<132.5 229.5>
LayerCount: 2
Fore
SplineSet
440 189 m 0
 440 76 361 -18 251 -18 c 0
 125 -18 49 93 49 246 c 0
 49 428 164 575 366 637 c 0
 375 640 384 639 387 633 c 2
 392 626 l 2
 395 620 391 611 383 608 c 0
 254 551 190 482 162 373 c 0
 159 360 170 351 177 356 c 0
 206 376 240 378 269 378 c 0
 370 378 440 293 440 189 c 0
352 179 m 0
 352 280 317 340 254 340 c 0
 223 340 195 325 152 292 c 0
 143 285 139 273 138 261 c 0
 137 250 137 239 137 225 c 0
 137 91 178 13 253 13 c 0
 318 13 352 73 352 179 c 0
EndSplineSet
Substitution2: "'onum' Oldstyle Figures in Latin lookup 0-1" six.onum
EndChar
StartChar: seven
Encoding: 55 55 44
Width: 489
Flags: MW
HStem: 546 78
LayerCount: 2
Fore
SplineSet
423 602 m 2
 421 587 l 1
 187 -3 l 2
 184 -11 175 -20 162 -18 c 2
 129 -13 l 2
 117 -11 114 -1 119 10 c 2
 341 526 l 2
 344 533 336 547 321 546 c 0
 224 542 165 544 130 544 c 0
 86 545 82 544 77 539 c 0
 72 535 68 526 63 497 c 0
 62 493 56 489 47 489 c 0
 37 489 33 495 33 501 c 2
 38 592 l 2
 39 605 60 626 74 624 c 0
 158 621 267 620 397 624 c 0
 411 624 425 614 423 602 c 2
EndSplineSet
Substitution2: "'onum' Oldstyle Figures in Latin lookup 0-1" seven.onum
EndChar
StartChar: eight
Encoding: 56 56 45
Width: 464
Flags: W
HStem: -18 32<199.5 265 199.5 284.5> 607 31<197.5 258>
VStem: 40 82 53 69<465 518.5> 322 71<465 524> 350 75<118 158>
LayerCount: 2
Fore
SplineSet
425 171 m 0xe4
 425 65 338 -18 231 -18 c 0
 128 -18 40 58 40 152 c 0xe4
 40 212 75 260 138 297 c 0
 150 304 161 317 151 323 c 0
 84 362 53 410 53 472 c 0
 53 565 133 638 229 638 c 0
 326 638 393 574 393 490 c 0xd8
 393 433 370 389 311 355 c 0
 299 348 310 336 319 331 c 0
 390 289 425 240 425 171 c 0xe4
322 489 m 0xe8
 322 559 288 607 228 607 c 0
 167 607 122 560 122 501 c 0
 122 429 188 395 245 369 c 0
 257 364 266 366 275 373 c 0
 312 405 322 441 322 489 c 0xe8
350 143 m 0xe4
 350 173 340 201 322 219 c 0xe8
 302 240 264 265 224 287 c 0
 208 295 200 293 192 287 c 0
 142 253 115 208 115 153 c 0
 115 72 167 14 232 14 c 0
 298 14 350 70 350 143 c 0xe4
EndSplineSet
Substitution2: "'onum' Oldstyle Figures in Latin lookup 0-1" eight.onum
EndChar
StartChar: nine
Encoding: 57 57 46
Width: 489
Flags: MW
HStem: 244 38<200.5 237> 606 31<200.5 271>
VStem: 39 87<392.5 489.5> 350 88<390 452 285 464.5>
LayerCount: 2
Fore
SplineSet
438 375 m 0
 438 195 328 50 129 -13 c 0
 116 -17 105 -14 98 -5 c 0
 93 1 94 9 105 14 c 0
 185 49 237 87 276 135 c 0
 305 171 321 202 332 251 c 0
 337 271 323 275 317 271 c 0
 285 248 256 244 218 244 c 0
 117 244 39 328 39 433 c 0
 39 546 126 637 235 637 c 0
 362 637 438 529 438 375 c 0
350 397 m 0
 350 532 309 606 233 606 c 0
 168 606 126 548 126 443 c 0
 126 342 169 282 232 282 c 0
 262 282 287 294 328 325 c 0
 341 335 348 350 349 361 c 0
 350 372 350 383 350 397 c 0
EndSplineSet
Substitution2: "'onum' Oldstyle Figures in Latin lookup 0-1" nine.onum
EndChar
StartChar: colon
Encoding: 58 58 47
Width: 257
Flags: MW
HStem: -10 101<114 144> 300 101<114 144>
VStem: 76 106<26.5 56 335.5 365.5>
LayerCount: 2
Fore
SplineSet
182 350 m 0
 182 321 159 300 129 300 c 0
 99 300 76 321 76 350 c 0
 76 381 99 401 129 401 c 0
 159 401 182 381 182 350 c 0
182 41 m 0
 182 11 159 -10 129 -10 c 0
 99 -10 76 12 76 41 c 0
 76 71 99 91 129 91 c 0
 159 91 182 71 182 41 c 0
EndSplineSet
EndChar
StartChar: semicolon
Encoding: 59 59 48
Width: 230
Flags: W
HStem: -13 101<103.5 113> -10 21G<129 134.5> 298 101<101.5 132>
VStem: 64 107<333.5 363> 140 51<-25 -18.5>
LayerCount: 2
Fore
SplineSet
171 348 m 0xb0
 171 319 147 298 117 298 c 0
 86 298 64 319 64 348 c 0
 64 378 86 399 117 399 c 0
 147 399 171 379 171 348 c 0xb0
191 6 m 0xa8
 191 -56 145 -118 79 -144 c 0
 68 -148 57 -122 69 -117 c 0
 117 -88 140 -56 140 -24 c 0
 140 -13 136 -10 133 -10 c 0x68
 125 -10 117 -13 109 -13 c 0
 83 -13 63 9 63 36 c 0
 63 66 88 88 119 88 c 0
 160 88 191 54 191 6 c 0xa8
EndSplineSet
Validated: 1
EndChar
StartChar: less
Encoding: 60 60 49
Width: 698
Flags: W
LayerCount: 2
Fore
SplineSet
630 106 m 0
 630 89 625 76 599 85 c 0
 459 137 206 250 81 307 c 0
 71 312 70 316 70 328 c 0
 67 336 69 348 70 353 c 0
 70 362 70 367 82 372 c 0
 211 429 492 550 604 594 c 0
 629 604 630 583 630 563 c 2
 630 547 l 2
 630 539 617 528 608 524 c 0
 504 480 293 390 185 347 c 0
 170 341 177 334 187 330 c 0
 296 282 510 193 616 151 c 0
 628 146 630 139 630 128 c 0
 630 121 630 114 630 106 c 0
EndSplineSet
EndChar
StartChar: equal
Encoding: 61 61 50
Width: 698
Flags: MW
HStem: 188 67<543 604> 426 69<100 611>
LayerCount: 2
Fore
SplineSet
631 444 m 0
 631 425 627 426 605 426 c 2
 100 426 l 2
 82 424 74 436 72 445 c 2
 71 480 l 2
 73 489 82 492 92 492 c 0
 221 493 481 492 605 495 c 0
 617 495 622 491 625 486 c 0
 629 479 630 471 630 463 c 0
 630 458 631 452 631 444 c 0
631 237 m 2
 630 210 l 2
 629 193 628 188 604 188 c 2
 95 188 l 2
 77 188 68 190 68 209 c 2
 68 233 l 2
 68 256 83 257 96 257 c 0
 224 254 474 255 612 255 c 0
 621 255 631 249 631 237 c 2
EndSplineSet
Validated: 33
EndChar
StartChar: greater
Encoding: 62 62 51
Width: 698
Flags: W
LayerCount: 2
Fore
SplineSet
630 328 m 0
 630 316 628 312 609 303 c 0
 483 246 228 138 100 85 c 0
 74 74 70 89 70 106 c 0
 70 114 69 121 69 128 c 0
 69 139 72 146 83 151 c 0
 188 193 398 279 506 327 c 0
 516 331 528 341 514 347 c 0
 373 408 191 483 91 524 c 0
 73 531 70 530 70 549 c 2
 70 567 l 2
 70 594 79 601 95 594 c 0
 252 529 481 431 612 374 c 0
 623 369 629 363 629 353 c 0
 630 348 632 336 630 328 c 0
EndSplineSet
Validated: 33
EndChar
StartChar: question
Encoding: 63 63 52
Width: 362
Flags: W
HStem: -17 110<138.5 172> 570 100<110 120>
VStem: 91 46<241 308.5> 91 123 285 38<466.5 519.5>
LayerCount: 2
Fore
SplineSet
323 477 m 0xe8
 323 411 298 361 251 329 c 0
 228 313 217 307 179 293 c 0
 147 282 137 270 137 251 c 0
 137 231 146 214 180 174 c 0
 182 171 177 165 174 164 c 0
 166 161 149 166 144 172 c 0
 107 216 91 250 91 284 c 0
 91 333 114 358 172 380 c 0
 261 413 285 440 285 493 c 0
 285 546 249 577 185 577 c 0
 156 577 133 570 107 570 c 0
 67 570 42 585 42 615 c 0
 42 653 82 670 138 670 c 0
 247 670 323 591 323 477 c 0xe8
214 38 m 0xd8
 214 6 189 -17 155 -17 c 0
 122 -17 96 6 96 38 c 0
 96 71 122 93 155 93 c 0
 189 93 214 71 214 38 c 0xd8
EndSplineSet
Validated: 1
EndChar
StartChar: at
Encoding: 64 64 53
Width: 960
Flags: W
HStem: -100 36<398 567.5 398 575.5> 95 41<608.5 634.5 608.5 656.5> 95 62<344.5 423> 472 30<518 539.5 504.5 542> 664 33<426.5 604>
VStem: 120 49<166.5 377 166.5 394> 288 76<196.5 236.5> 522 71 798 36<368.5 482>
LayerCount: 2
Fore
SplineSet
859 156 m 0xdf80
 804 -4 660 -100 491 -100 c 0
 278 -100 120 57 120 276 c 0
 120 512 297 697 522 697 c 0
 704 697 834 576 834 400 c 0
 834 234 722 95 591 95 c 0
 546 95 522 117 522 160 c 0
 522 171 522 179 523 191 c 0
 525 204 515 192 513 188 c 0
 497 169 487 160 469 143 c 0
 436 113 399 95 368 95 c 0
 321 95 288 142 288 200 c 0
 288 273 331 366 395 432 c 0
 438 476 485 502 524 502 c 0
 555 502 577 490 590 467 c 0
 596 456 600 468 602 473 c 0
 607 493 606 499 629 501 c 0
 638 502 664 502 671 502 c 0
 678 502 681 498 681 491 c 0
 662 427 597 231 593 175 c 0
 592 154 597 136 620 136 c 0
 649 136 691 161 720 196 c 0
 765 251 798 330 798 407 c 0
 798 557 682 664 526 664 c 0
 327 664 169 489 169 265 c 0
 169 68 303 -64 493 -64 c 0
 642 -64 760 11 825 158 c 0
 830 169 831 171 844 171 c 0
 847 171 851 170 854 170 c 0
 863 168 860 160 859 156 c 0xdf80
576 414 m 0
 576 449 556 472 528 472 c 0
 508 472 483 458 462 434 c 0
 410 372 364 269 364 213 c 0
 364 180 384 157 407 157 c 0xbf80
 439 157 474 182 515 237 c 0
 537 266 545 283 557 320 c 0
 570 361 576 392 576 414 c 0
EndSplineSet
Validated: 33
EndChar
StartChar: B
Encoding: 66 66 55
Width: 656
Flags: W
HStem: -4 41<323 325> 365 20G<255.5 280.5>
VStem: 147 97<158.5 176 176 332 397.5 405 405 515 515 564> 470 104<474.5 518> 506 107<153 221>
LayerCount: 2
Fore
SplineSet
613 199 m 0xe8
 613 107 546 23 460 6 c 0
 427 0 409 -6 325 -4 c 0
 226 -2 115 -2 29 -4 c 0
 17 -3 20 29 28 32 c 0
 35 33 46 35 52 33 c 0
 138 33 147 40 147 133 c 2
 147 515 l 2
 147 613 140 617 60 617 c 2
 37 617 l 2
 26 617 29 650 37 651 c 2
 46 652 l 2
 140 662 235 660 331 660 c 0
 419 660 440 653 487 632 c 0
 541 607 574 558 574 503 c 0xf0
 574 446 536 397 478 376 c 0
 473 374 474 371 480 368 c 0
 486 365 494 361 500 358 c 0
 570 324 613 268 613 199 c 0xe8
470 497 m 0xf0
 470 539 454 575 426 599 c 0
 378 638 316 633 258 628 c 0
 253 627 244 621 244 612 c 2
 244 405 l 2
 244 390 255 385 256 385 c 0
 305 385 371 380 417 400 c 0
 450 414 470 450 470 497 c 0xf0
506 193 m 0xe8
 506 249 476 300 429 328 c 0
 376 359 325 351 266 351 c 0
 255 349 244 345 244 332 c 2
 244 176 l 2
 244 141 246 112 249 96 c 0
 256 57 288 37 358 37 c 0
 446 37 506 107 506 193 c 0xe8
EndSplineSet
Validated: 33
EndChar
StartChar: C
Encoding: 67 67 56
Width: 762
Flags: MW
HStem: -19 41<363 432> 628 37<349 456 314.5 482.5>
VStem: 56 111<248 419.5>
LayerCount: 2
Fore
SplineSet
699 167 m 0
 684 115 656 52 629 7 c 1
 616 10 613 10 606 10 c 0
 571 10 560 5 528 -5 c 0
 491 -17 451 -19 413 -19 c 0
 201 -19 56 123 56 317 c 0
 56 522 205 665 424 665 c 0
 488 665 526 654 588 631 c 0
 604 625 622 617 637 629 c 0
 642 633 660 633 661 628 c 0
 670 589 672 561 671 538 c 0
 671 515 669 496 670 477 c 0
 667 464 645 461 640 469 c 0
 606 567 535 628 430 628 c 0
 268 628 167 514 167 338 c 0
 167 158 282 22 444 22 c 0
 512 22 559 45 607 88 c 0
 633 112 641 122 667 168 c 0
 669 177 703 179 699 167 c 0
EndSplineSet
EndChar
StartChar: D
Encoding: 68 68 57
Width: 773
Flags: W
HStem: -4 21G<34.5 38> -3 33<278 315.5> 618 41
VStem: 115 97<134 515 515 557> 613 108<271 379.5>
LayerCount: 2
Fore
SplineSet
721 346 m 0xb8
 721 196 620 60 475 18 c 0
 402 -3 353 -3 278 -3 c 2x78
 38 -4 l 2
 31 -4 19 -4 16 5 c 0
 12 14 11 30 24 34 c 0
 37 36 48 35 61 36 c 0
 120 41 115 90 115 134 c 2
 115 515 l 2
 115 599 114 618 29 618 c 2
 20 618 l 2
 7 618 12 648 20 649 c 2
 27 651 l 1
 126 655 222 659 321 659 c 0
 452 659 529 639 600 588 c 0
 679 531 721 446 721 346 c 0xb8
613 330 m 0
 613 429 574 517 510 566 c 0
 466 600 428 614 349 622 c 0
 305 626 278 626 234 624 c 0
 223 623 212 617 212 603 c 2
 212 102 l 2
 212 55 223 30 290 30 c 0
 478 30 613 117 613 330 c 0
EndSplineSet
Validated: 33
EndChar
StartChar: E
Encoding: 69 69 58
Width: 619
Flags: W
HStem: -2 37 -2 49 311 49<377 377> 605 45<262.5 267>
VStem: 151 97<134 296 375.5 381 381 514 514 554.5>
LayerCount: 2
Fore
SplineSet
579 159 m 0x78
 578 88 568 40 565 12 c 0
 563 -4 536 -2 525 -2 c 0
 389 -2 169 -2 37 -3 c 0
 31 -2 27 -2 25 4 c 0
 21 14 24 33 34 34 c 0
 49 36 62 35 77 35 c 0xb8
 142 37 151 48 151 134 c 2
 151 514 l 2
 151 595 147 615 73 615 c 0
 62 615 52 612 45 624 c 0
 42 630 46 639 49 645 c 0
 53 652 60 650 66 650 c 0
 199 651 415 652 512 650 c 0
 521 650 531 647 531 640 c 0
 540 567 538 532 540 503 c 0
 539 496 525 497 516 500 c 0
 510 501 509 506 509 511 c 0
 496 594 482 603 401 604 c 0
 367 605 309 607 267 605 c 0
 258 605 248 590 248 583 c 2
 248 381 l 2
 248 370 256 360 262 360 c 2
 380 360 l 2
 458 360 462 362 472 434 c 0
 473 437 486 440 494 439 c 0
 499 438 501 429 502 424 c 0
 504 373 502 290 501 246 c 0
 501 238 498 233 489 232 c 0
 481 231 472 232 471 237 c 0
 460 306 456 310 377 311 c 2
 262 312 l 2
 255 310 248 306 248 296 c 2
 248 128 l 2
 248 51 250 47 323 47 c 2
 403 47 l 2
 478 47 494 51 511 71 c 0
 525 88 539 116 548 152 c 0
 550 160 554 162 558 163 c 0
 567 164 577 163 579 159 c 0x78
EndSplineSet
Validated: 33
EndChar
StartChar: F
Encoding: 70 70 59
Width: 543
Flags: W
HStem: -3 33 323 49<240 355> 602 48<231.5 235 235 356> 619 31
VStem: 120 98<99 119.5 119.5 303> 466 30<523 523>
LayerCount: 2
Fore
SplineSet
499 633 m 2xec
 496 523 l 1
 487 517 474 520 466 523 c 1
 463 590 450 602 356 602 c 2
 235 602 l 2xec
 228 602 220 595 218 586 c 2
 217 390 l 2
 217 382 226 373 231 372 c 0
 273 369 317 372 359 372 c 0
 431 373 444 376 449 425 c 0
 450 432 455 436 462 437 c 0
 469 438 477 436 478 429 c 0
 478 420 480 302 478 250 c 0
 476 242 451 242 450 250 c 0
 444 315 433 325 355 323 c 0
 326 322 269 322 240 323 c 0
 227 322 218 315 218 303 c 0
 218 102 218 140 218 99 c 0
 218 45 235 31 293 31 c 2
 303 31 l 2
 308 30 311 21 311 13 c 0
 311 4 308 -4 303 -3 c 0
 228 -2 128 -1 51 -3 c 0
 34 -3 39 28 49 30 c 0
 106 33 120 46 120 99 c 2
 120 549 l 2
 120 603 102 617 48 619 c 0xdc
 40 621 38 652 52 650 c 2
 483 650 l 2
 491 650 500 639 499 633 c 2xec
EndSplineSet
EndChar
StartChar: G
Encoding: 71 71 60
Width: 763
Flags: MW
HStem: -19 38<341.5 428.5> 251 36<483 483> 631 36<361 441 361 484>
VStem: 57 109<230.5 362> 560 93
LayerCount: 2
Fore
SplineSet
730 270 m 0
 729 262 724 253 720 254 c 0
 672 252 658 236 657 185 c 0
 656 158 656 101 657 71 c 0
 657 62 657 48 648 44 c 0
 580 9 471 -19 386 -19 c 0
 191 -19 57 121 57 312 c 0
 57 412 100 508 171 574 c 0
 239 638 308 667 414 667 c 0
 468 667 505 659 579 637 c 0
 597 632 603 631 610 631 c 0
 620 631 624 633 630 639 c 1
 638 641 645 640 653 639 c 0
 660 637 655 517 653 466 c 0
 652 454 623 453 621 464 c 0
 599 574 538 631 430 631 c 0
 263 631 166 511 166 319 c 0
 166 142 265 19 418 19 c 0
 462 19 506 31 548 50 c 0
 559 55 560 72 560 83 c 0
 560 108 557 159 560 184 c 0
 560 238 542 249 483 251 c 2
 444 252 l 2
 434 252 429 285 444 287 c 0
 519 285 653 286 720 287 c 0
 730 287 732 278 730 270 c 0
EndSplineSet
EndChar
StartChar: H
Encoding: 72 72 61
Width: 788
Flags: MW
HStem: -3 36<51.5 56 51.5 73.5 51.5 56 286 291 291 296 716.5 749.5> 304 47<230.5 542 233 542 542 546 233 553> 618 32<261.5 291>
VStem: 117 98<99 279 363.5 398 398 549> 572 98<99 147.5 147.5 286 198 286 367 549 519 549>
LayerCount: 2
Fore
SplineSet
768 25 m 0
 773 14 768 -3 756 -3 c 0
 686 -1 607 -3 472 -3 c 0
 464 -3 460 0 459 6 c 0
 455 18 460 32 471 32 c 2
 495 32 l 2
 548 32 572 48 572 99 c 0
 572 145 572 110 572 286 c 0
 571 296 564 304 553 304 c 0
 455 300 326 301 233 304 c 0
 228 304 215 295 215 279 c 2
 215 99 l 2
 215 46 231 33 286 33 c 2
 291 33 l 1
 296 33 l 2
 310 35 316 0 296 -3 c 0
 232 -1 105 -3 42 -3 c 0
 36 -3 29 -3 26 4 c 0
 23 13 22 26 31 32 c 0
 41 34 47 33 56 33 c 0
 102 36 117 50 117 99 c 2
 117 549 l 2
 117 603 100 615 49 618 c 0
 41 622 41 651 51 650 c 0
 116 647 235 647 292 650 c 0
 296 650 299 648 302 646 c 0
 307 641 305 632 303 624 c 0
 302 619 299 619 291 618 c 0
 232 618 215 597 215 549 c 0
 215 486 215 430 215 366 c 0
 215 361 220 351 233 351 c 0
 315 349 431 349 542 351 c 0
 550 351 572 358 572 367 c 0
 573 428 572 489 572 549 c 0
 572 596 556 618 495 618 c 2
 475 618 l 2
 465 620 465 635 468 644 c 0
 470 648 472 653 486 653 c 0
 559 655 677 648 737 650 c 0
 752 651 755 632 750 622 c 0
 748 617 740 617 736 617 c 0
 687 613 671 597 670 549 c 0
 666 397 670 196 670 99 c 0
 670 52 687 33 746 33 c 0
 753 33 765 33 768 25 c 0
EndSplineSet
EndChar
StartChar: I
Encoding: 73 73 62
Width: 363
Flags: MW
HStem: -3 36<298 301 298 312> 617 34<298 300.5>
VStem: 132 97<134 514>
LayerCount: 2
Fore
SplineSet
317 640 m 0
 318 632 318 619 312 619 c 0
 308 619 303 617 298 617 c 0
 237 616 229 606 229 514 c 2
 229 99 l 2
 229 47 244 34 298 33 c 0
 304 33 309 33 313 32 c 0
 326 24 320 -3 312 -3 c 0
 249 -1 127 -1 64 -3 c 0
 58 -3 52 2 52 12 c 0
 52 20 56 31 61 31 c 0
 124 37 129 45 131 99 c 2
 132 134 l 1
 132 514 l 1
 131 549 l 2
 130 601 122 613 68 619 c 0
 60 620 51 625 57 644 c 0
 60 652 64 651 71 651 c 0
 153 651 179 645 301 651 c 0
 310 651 316 650 317 640 c 0
EndSplineSet
EndChar
StartChar: J
Encoding: 74 74 63
Width: 324
Flags: MW
HStem: -289 109<-58 37> 619 31<39 68 283 284 284 287 35 294 283 284 284 285>
VStem: 117 97<52.5 73 73 308>
LayerCount: 2
Fore
SplineSet
298 644 m 0
 302 636 301 620 294 619 c 0
 290 617 287 619 283 619 c 0
 227 615 214 601 214 549 c 2
 214 73 l 2
 214 32 209 -20 200 -60 c 0
 190 -108 172 -163 148 -200 c 0
 112 -255 67 -289 7 -289 c 0
 -50 -289 -90 -263 -90 -227 c 0
 -90 -202 -70 -180 -46 -180 c 0
 -30 -180 -15 -197 -3 -206 c 0
 5 -212 13 -219 22 -224 c 0
 45 -237 77 -221 91 -202 c 0
 113 -170 117 -132 117 7 c 0
 117 609 117 507 116 549 c 0
 114 604 97 619 39 619 c 0
 35 618 30 618 27 618 c 0
 16 619 16 637 20 645 c 0
 24 652 29 650 35 650 c 0
 100 646 224 648 284 650 c 0
 290 650 295 651 298 644 c 0
EndSplineSet
Validated: 33
EndChar
StartChar: K
Encoding: 75 75 64
Width: 740
Flags: W
HStem: -4 37 617 33 631 20G<307 309.5> 632 20G<35 38>
VStem: 129 97<99 281 339 549>
LayerCount: 2
Fore
SplineSet
711 27 m 0xc8
 716 17 718 0 703 -3 c 0
 622 2 484 -3 416 -4 c 0
 411 -3 406 -3 403 2 c 0
 400 10 399 27 410 29 c 0
 466 29 474 39 474 52 c 0
 474 60 471 68 461 81 c 0
 405 152 351 228 277 282 c 0
 264 291 254 295 242 297 c 0
 229 298 226 294 226 281 c 2
 226 99 l 2
 226 52 243 32 303 32 c 0
 311 32 318 34 322 25 c 0
 325 19 325 6 322 0 c 0
 320 -4 314 -4 308 -4 c 0
 233 -1 100 -2 43 -4 c 0
 38 -4 28 -5 24 0 c 0
 18 9 17 29 33 35 c 0
 39 37 46 36 52 35 c 0
 112 35 129 55 129 99 c 2
 129 549 l 2
 129 603 111 617 52 617 c 2
 32 617 l 2xc8
 23 618 19 637 24 645 c 0
 26 652 32 652 38 652 c 0x98
 160 649 253 649 307 651 c 0xa8
 312 651 321 649 321 635 c 0
 321 622 314 617 303 617 c 0
 243 617 226 603 226 549 c 2
 226 339 l 2
 227 328 236 330 243 332 c 0
 256 337 267 344 279 355 c 0
 329 399 443 536 443 593 c 0
 443 610 435 613 386 618 c 2
 376 619 l 1
 368 625 370 639 373 645 c 0
 374 649 380 651 385 650 c 0
 484 647 588 648 636 650 c 0
 655 651 650 617 636 620 c 0
 579 619 556 613 534 597 c 0
 508 579 487 541 469 514 c 0
 435 461 396 411 357 361 c 0
 352 355 348 349 340 343 c 1
 354 337 368 326 397 298 c 0
 462 236 513 163 569 95 c 0
 613 42 635 33 697 33 c 0
 703 33 708 34 711 27 c 0xc8
EndSplineSet
Validated: 33
EndChar
StartChar: L
Encoding: 76 76 65
Width: 595
Flags: MW
HStem: -4 51 614 38<300 334>
VStem: 124 97<138 549 549 559>
LayerCount: 2
Fore
SplineSet
572 148 m 0
 548 91 521 36 508 15 c 0
 501 5 493 -4 477 -4 c 0
 295 -1 67 -2 37 -3 c 0
 30 -4 24 1 23 6 c 0
 20 13 22 29 30 32 c 0
 33 33 35 33 38 34 c 0
 64 34 115 32 122 67 c 0
 123 78 124 97 124 138 c 2
 124 549 l 2
 124 603 106 618 47 618 c 2
 35 618 l 2
 25 619 25 639 30 646 c 0
 33 652 41 652 45 651 c 0
 145 649 215 650 331 652 c 0
 337 652 343 651 345 643 c 0
 349 628 346 617 332 616 c 0
 322 615 311 614 300 614 c 0
 225 612 221 611 221 559 c 2
 221 101 l 2
 221 59 237 47 278 47 c 2
 372 47 l 2
 447 47 463 49 512 114 c 2
 547 160 l 1
 555 163 563 164 568 160 c 0
 574 157 573 150 572 148 c 0
EndSplineSet
EndChar
StartChar: M
Encoding: 77 77 66
Width: 942
Flags: W
HStem: -2 35
VStem: 119 53 145 40 699 106 699 120
LayerCount: 2
Fore
SplineSet
913 5 m 0xa8
 912 -1 901 -3 898 -3 c 0
 823 -5 692 -3 639 -2 c 0
 636 -2 631 1 630 5 c 0
 629 10 629 18 630 24 c 0
 630 28 639 32 647 32 c 0
 724 32 729 62 723 131 c 0
 722 148 723 160 699 519 c 0
 699 526 690 519 687 511 c 2
 467 -1 l 2
 465 -7 438 -7 435 -1 c 2
 209 510 l 2
 207 515 197 519 197 512 c 2
 174 139 l 2
 173 119 172 100 172 89 c 0
 172 51 186 36 242 31 c 0
 249 31 253 30 255 22 c 0
 257 14 257 6 253 2 c 0
 250 -1 245 -1 241 -2 c 0
 191 -3 115 -3 33 -2 c 0
 23 0 24 15 28 24 c 0
 31 31 33 32 40 31 c 0
 117 27 114 64 119 134 c 0xd0
 128 280 145 426 145 572 c 0
 145 604 133 610 90 614 c 0
 73 616 75 627 77 638 c 0
 79 647 88 652 96 651 c 0
 131 649 195 649 227 650 c 0
 236 650 246 651 251 640 c 2
 465 153 l 2
 469 143 482 161 484 165 c 2
 689 638 l 2
 694 647 708 650 714 650 c 0
 756 649 808 649 845 650 c 0
 854 650 858 652 860 642 c 0
 861 635 862 618 855 617 c 2
 844 616 l 2
 792 611 789 599 789 574 c 0
 789 558 791 547 792 532 c 2
 819 136 l 2
 826 40 832 33 895 33 c 0
 904 33 911 34 913 22 c 0
 914 18 913 10 913 5 c 0xa8
EndSplineSet
Validated: 33
EndChar
StartChar: N
Encoding: 78 78 67
Width: 834
Flags: W
HStem: -3 37 618 34<791 802> 631 20G<56 199 199 201.5>
VStem: 129 59<128.5 139 139 508> 649 59<185 515 515 532>
LayerCount: 2
Fore
SplineSet
805 633 m 0xd8
 806 620 803 618 791 618 c 0
 714 616 708 610 708 532 c 2
 708 4 l 2
 708 -15 674 -14 670 -6 c 0
 666 -1 547 133 431 265 c 0
 314 398 199 529 199 529 c 2
 193 532 188 524 188 508 c 2
 188 139 l 2
 188 118 187 91 194 71 c 0
 200 52 214 38 242 36 c 0
 253 35 288 39 293 29 c 0
 298 17 298 -3 281 -3 c 0
 219 -2 105 -1 44 -4 c 0
 32 -5 32 20 37 27 c 0
 41 33 46 34 52 34 c 0
 96 34 129 45 129 92 c 2
 129 597 l 1
 110 611 85 617 48 618 c 0xd8
 43 617 40 627 40 635 c 0
 40 648 46 651 56 651 c 0
 127 649 173 650 199 651 c 0
 204 651 217 646 223 639 c 2
 632 171 l 2
 638 162 649 177 649 185 c 2
 649 515 l 2
 649 565 649 589 636 601 c 0
 630 607 621 611 608 613 c 0
 594 615 576 616 553 617 c 0
 541 618 538 652 553 651 c 0xb8
 631 648 708 650 799 652 c 0
 805 652 805 637 805 633 c 0xd8
EndSplineSet
Validated: 33
EndChar
StartChar: O
Encoding: 79 79 68
Width: 827
Flags: MW
HStem: -19 37<351 516> 631 36<318 469.5>
VStem: 53 108<247.5 413.5> 661 108<238.5 402.5>
LayerCount: 2
Fore
SplineSet
769 339 m 0
 769 138 619 -19 413 -19 c 0
 204 -19 53 125 53 312 c 0
 53 515 202 667 415 667 c 0
 624 667 769 527 769 339 c 0
661 309 m 0
 661 496 552 631 387 631 c 0
 249 631 161 510 161 338 c 0
 161 157 272 18 430 18 c 0
 606 18 661 157 661 309 c 0
EndSplineSet
EndChar
StartChar: P
Encoding: 80 80 69
Width: 577
Flags: MW
HStem: -4 41<54 93.5> 269 32<276 332.5 272.5 366.5> 639 20G<224 298>
VStem: 131 97<78 99 99 252 317.5 322 322 539 539 571> 431 106<423 507>
LayerCount: 2
Fore
SplineSet
537 472 m 0
 537 347 445 269 288 269 c 0
 264 269 257 271 238 274 c 0
 232 275 229 261 228 252 c 2
 228 99 l 2
 228 45 245 36 305 37 c 0
 318 37 327 40 340 37 c 0
 357 32 353 -8 339 -5 c 0
 261 -2 132 -2 61 -4 c 0
 47 -4 45 -1 43 2 c 0
 41 6 40 10 40 15 c 0
 41 34 55 37 70 37 c 0
 117 37 131 40 131 78 c 2
 131 539 l 2
 131 603 123 621 83 620 c 2
 33 619 l 2
 29 618 26 626 25 633 c 0
 25 641 27 650 33 650 c 0
 113 660 185 659 263 659 c 0
 333 659 357 656 396 646 c 0
 483 623 537 555 537 472 c 0
431 475 m 0
 431 539 405 588 363 610 c 0
 323 632 282 633 238 627 c 0
 230 626 228 612 228 604 c 2
 228 322 l 2
 228 313 235 307 242 305 c 0
 258 302 264 301 281 301 c 0
 384 301 431 371 431 475 c 0
EndSplineSet
EndChar
StartChar: Q
Encoding: 81 81 70
Width: 822
Flags: MW
HStem: -211 39 631 36<314 466.5>
VStem: 45 108<247 414> 651 108<260.5 403>
LayerCount: 2
Fore
SplineSet
806 -172 m 0
 817 -175 795 -202 784 -205 c 0
 765 -209 752 -211 733 -211 c 0
 641 -211 563 -158 496 -101 c 0
 459 -70 441 -54 426 -43 c 0
 411 -32 399 -27 375 -18 c 1
 175 0 45 135 45 314 c 0
 45 514 198 667 412 667 c 0
 622 667 759 527 759 339 c 0
 759 182 660 49 511 0 c 0
 508 -1 503 -6 510 -9 c 0
 561 -29 606 -65 647 -100 c 0
 708 -152 742 -169 806 -172 c 0
651 309 m 0
 651 497 549 631 384 631 c 0
 244 631 153 510 153 338 c 0
 153 156 267 17 426 17 c 0
 577 17 651 176 651 309 c 0
EndSplineSet
Validated: 33
EndChar
StartChar: R
Encoding: 82 82 71
Width: 696
Flags: W
HStem: -15 21G<599 648> -5 39 628 31<260 334.5>
VStem: 126 98<99 258 228.5 258 312.5 320 320 515 515 563.5> 435 108<434 495 434 512>
LayerCount: 2
Fore
SplineSet
679 -9 m 1x78
 673 -13 l 1
 663 -13 653 -15 643 -15 c 0xb8
 555 -15 521 16 495 46 c 0
 463 83 436 125 410 166 c 0
 396 189 383 212 370 236 c 0
 364 246 354 270 340 269 c 0
 307 265 278 264 244 266 c 0
 235 266 224 262 224 254 c 0
 224 203 224 151 225 99 c 0
 227 45 241 34 300 34 c 0
 311 35 329 41 334 27 c 0
 335 22 336 11 335 5 c 0
 334 1 323 -3 321 -3 c 0
 245 -1 121 -4 33 -5 c 0
 24 -2 24 -3 20 5 c 0
 17 11 18 20 20 26 c 0
 24 36 41 34 50 34 c 0
 109 34 126 45 126 99 c 2
 126 134 l 1
 126 515 l 2
 126 612 124 617 30 618 c 0
 21 618 16 644 30 651 c 1
 40 652 l 2
 105 659 221 659 278 659 c 0
 399 659 438 641 488 596 c 0
 523 564 543 519 543 471 c 0
 543 397 503 331 443 300 c 0
 435 297 437 293 441 287 c 0
 464 250 480 221 500 191 c 2
 556 107 l 2
 578 73 587 65 619 40 c 0
 633 29 648 21 673 16 c 1
 681 10 685 0 679 -9 c 1x78
435 464 m 0
 435 560 401 628 268 628 c 0
 252 628 224 628 224 609 c 2
 224 320 l 2
 224 305 230 300 234 300 c 0
 265 298 308 296 332 304 c 0
 400 327 435 394 435 464 c 0
EndSplineSet
EndChar
StartChar: S
Encoding: 83 83 72
Width: 513
Flags: MW
HStem: -19 40<235 282.5 226 315> 631 36<216 257 185.5 282>
VStem: 61 88<521 556.5> 370 89<111.5 176>
LayerCount: 2
Fore
SplineSet
459 164 m 0
 459 59 377 -19 253 -19 c 0
 217 -19 183 -8 149 2 c 0
 128 8 124 9 119 9 c 0
 113 9 110 7 104 -2 c 1
 95 -6 84 -4 78 -2 c 1
 76 5 62 89 56 160 c 0
 55 170 80 171 85 165 c 0
 105 104 123 76 160 50 c 0
 189 30 208 21 244 21 c 0
 321 21 370 70 370 134 c 0
 370 218 277 271 216 311 c 0
 139 362 61 417 61 511 c 0
 61 602 132 667 239 667 c 0
 275 667 289 661 322 650 c 0
 344 643 353 641 359 641 c 0
 364 641 366 642 375 650 c 0
 382 652 393 652 398 650 c 0
 404 634 414 541 417 514 c 0
 416 500 393 503 390 509 c 0
 360 585 316 631 248 631 c 0
 184 631 149 593 149 540 c 0
 149 502 174 469 206 441 c 0
 295 361 459 303 459 164 c 0
EndSplineSet
EndChar
StartChar: T
Encoding: 84 84 73
Width: 681
Flags: W
HStem: -4 39<184.5 228> -3 21G<495 499> 602 48<116.5 548 136 156 156 271 402.5 406 406 548 136 552>
VStem: 294 98<99 134 134 584>
LayerCount: 2
Fore
SplineSet
652 494 m 2xb0
 653 486 645 484 639 484 c 0
 622 484 622 490 620 499 c 0
 603 584 587 602 552 602 c 2
 406 602 l 2
 399 602 392 590 392 584 c 0
 391 471 392 246 392 134 c 2
 392 99 l 2
 392 45 410 37 468 37 c 2
 497 37 l 2
 504 37 508 32 511 24 c 0
 513 19 513 11 511 5 c 0
 508 -3 503 -3 495 -3 c 0x70
 415 0 264 -2 189 -4 c 0
 180 -4 178 0 177 3 c 0
 175 9 175 21 177 27 c 0
 180 32 184 34 189 35 c 0
 201 35 216 37 228 35 c 0
 279 35 294 47 294 99 c 2
 294 134 l 2
 294 258 293 464 294 588 c 0
 294 594 281 602 271 602 c 2
 156 602 l 1
 135 602 l 2
 98 602 82 582 64 489 c 1
 55 483 33 484 34 495 c 0
 36 536 44 622 50 667 c 1
 60 678 78 672 80 667 c 0
 88 649 119 650 136 650 c 0
 243 652 449 651 548 650 c 0
 598 649 599 651 606 667 c 0
 609 674 631 670 636 667 c 1
 652 494 l 2xb0
EndSplineSet
EndChar
StartChar: V
Encoding: 86 86 75
Width: 761
Flags: MW
HStem: 615 35
LayerCount: 2
Fore
SplineSet
738 647 m 0
 744 639 741 621 732 620 c 0
 675 619 656 601 623 515 c 2
 422 -5 l 2
 420 -12 408 -24 403 -24 c 0
 398 -25 381 -26 367 -23 c 0
 363 -23 355 -15 352 -7 c 2
 137 530 l 2
 106 607 98 613 36 614 c 0
 32 615 26 618 24 622 c 0
 22 628 23 637 25 642 c 0
 27 650 36 650 42 650 c 0
 110 648 240 648 304 650 c 0
 310 650 323 652 326 647 c 0
 330 642 331 631 328 625 c 0
 326 618 322 618 316 615 c 0
 248 612 221 605 221 583 c 0
 221 573 224 565 238 529 c 2
 393 144 l 2
 395 140 409 118 418 141 c 2
 564 520 l 2
 577 554 578 566 578 580 c 0
 578 605 563 619 497 619 c 2
 489 619 l 2
 480 622 478 638 482 646 c 0
 485 652 491 650 496 650 c 0
 554 648 671 648 729 650 c 0
 733 650 736 650 738 647 c 0
EndSplineSet
EndChar
StartChar: W
Encoding: 87 87 76
Width: 1086
Flags: MW
HStem: 618 33<256.5 294.5 280 294.5 538 549 549 591>
LayerCount: 2
Fore
SplineSet
1067 636 m 0
 1067 628 1064 620 1055 620 c 0
 997 620 981 609 951 530 c 2
 745 -10 l 2
 741 -21 685 -20 680 -12 c 2
 561 273 l 2
 559 279 552 287 544 268 c 2
 430 -12 l 2
 425 -24 368 -22 363 -9 c 2
 159 515 l 2
 122 610 113 613 36 615 c 0
 32 615 26 615 21 618 c 0
 15 621 14 635 17 643 c 0
 18 648 29 650 36 650 c 0
 70 652 201 655 289 651 c 0
 300 651 295 620 289 618 c 2
 280 618 l 2
 233 618 230 611 230 590 c 0
 230 580 233 567 249 527 c 2
 407 130 l 2
 409 124 420 109 430 135 c 2
 519 354 l 2
 523 363 521 369 518 377 c 2
 447 548 l 2
 421 611 413 616 339 619 c 0
 331 621 326 651 340 651 c 0
 448 654 612 652 764 651 c 0
 780 651 773 620 766 618 c 0
 693 617 682 610 656 547 c 2
 606 425 l 2
 604 419 601 408 606 397 c 0
 649 293 721 122 721 122 c 2
 724 114 735 115 742 133 c 2
 895 536 l 2
 925 614 918 618 849 621 c 0
 836 623 842 653 853 651 c 0
 901 649 991 650 1056 652 c 0
 1062 652 1066 644 1067 636 c 0
618 604 m 0
 618 612 611 618 591 618 c 0
 582 617 562 616 549 618 c 0
 527 618 522 613 522 605 c 0
 522 596 526 587 529 578 c 0
 533 571 536 563 567 491 c 0
 570 485 578 500 579 502 c 2
 605 565 l 2
 616 591 618 598 618 604 c 0
EndSplineSet
Validated: 33
EndChar
StartChar: X
Encoding: 88 88 77
Width: 785
Flags: W
HStem: -2 34<33.5 36> 618 33<716 716> 632 20G<325 328.5>
LayerCount: 2
Fore
SplineSet
768 12 m 0xc0
 768 5 764 -2 758 -2 c 0
 713 0 575 -1 491 -3 c 0
 485 -3 478 -5 474 2 c 0
 470 11 471 29 480 29 c 2
 490 29 l 2
 530 29 543 37 543 50 c 0
 542 66 520 93 511 105 c 2
 384 278 l 2
 381 280 370 278 364 271 c 0
 364 270 224 96 224 96 c 2
 208 75 200 58 200 50 c 0
 200 38 209 29 261 29 c 2
 270 29 l 2
 285 29 286 -3 272 -3 c 0
 219 -2 107 1 36 -2 c 0
 30 -2 27 8 27 15 c 0
 27 22 30 32 37 32 c 0
 89 36 121 44 152 85 c 0
 162 98 174 114 192 137 c 2
 337 321 l 2
 340 324 341 333 339 336 c 2
 193 524 l 2
 131 604 122 611 42 613 c 0
 38 613 28 617 27 622 c 0
 24 633 27 652 44 651 c 0xc0
 114 648 250 648 325 652 c 0xa0
 332 652 339 652 342 644 c 0
 347 633 342 618 326 618 c 0
 268 616 258 612 258 599 c 0
 258 585 282 559 290 548 c 2
 393 410 l 2
 399 402 408 409 413 416 c 0
 450 465 494 520 529 572 c 0
 550 603 539 618 506 618 c 2
 482 618 l 2
 460 618 461 636 466 644 c 0
 471 651 477 650 483 650 c 0
 539 648 654 648 715 651 c 0
 732 649 730 617 716 618 c 0
 628 613 585 561 535 494 c 2
 438 365 l 2
 434 359 438 353 439 351 c 2
 615 121 l 2
 632 99 650 71 672 55 c 0
 691 41 714 34 759 29 c 0
 765 28 768 20 768 12 c 0xc0
EndSplineSet
Validated: 33
EndChar
StartChar: Y
Encoding: 89 89 78
Width: 728
Flags: W
HStem: -4 39 -3 21G<241.5 247> 619 31<268 296 296 300 27 305.5>
VStem: 341 97<241 241>
LayerCount: 2
Fore
SplineSet
730 635 m 0xb0
 730 629 728 618 721 618 c 0
 683 616 657 602 638 582 c 0
 616 559 602 531 586 504 c 2
 438 253 l 1
 439 204 438 128 438 99 c 0
 438 62 451 40 494 34 c 0
 505 33 514 36 527 33 c 0
 535 31 539 22 539 13 c 0
 539 4 535 -4 527 -4 c 0xb0
 405 -2 356 0 247 -3 c 0x70
 236 -3 232 15 236 26 c 0
 239 34 247 36 257 36 c 0
 266 37 277 35 284 35 c 0
 322 37 338 62 340 99 c 0
 342 132 343 203 341 241 c 1
 158 527 l 2
 110 602 90 614 30 617 c 0
 24 617 18 616 16 624 c 0
 15 627 15 635 16 638 c 0
 17 646 22 651 27 650 c 0
 96 649 242 648 296 650 c 0
 304 650 318 619 293 619 c 0
 243 619 231 610 231 599 c 0
 231 588 233 582 262 537 c 2
 396 331 l 2
 401 323 417 333 423 344 c 2
 530 525 l 2
 557 570 562 581 562 592 c 0
 562 611 551 618 505 618 c 2
 495 618 l 1
 483 623 484 651 498 650 c 0
 549 648 642 648 721 650 c 0
 728 650 730 642 730 635 c 0xb0
EndSplineSet
EndChar
StartChar: Z
Encoding: 90 90 79
Width: 705
Flags: W
HStem: -3 51<217.5 332> -2 21G<51.5 56 557 596> 602 48<190.5 240 240 454>
LayerCount: 2
Fore
SplineSet
636 195 m 0xa0
 634 145 628 56 623 10 c 0
 621 0 599 -2 593 -2 c 0x60
 521 -2 389 -3 275 -3 c 0xa0
 160 -3 61 -3 56 -2 c 0x60
 47 -2 34 1 36 15 c 0
 36 19 39 27 41 30 c 2
 469 588 l 2
 476 598 459 602 454 602 c 2
 240 602 l 2
 141 602 127 595 115 495 c 0
 115 490 92 488 87 500 c 1
 87 536 88 606 92 640 c 0
 94 647 107 649 114 650 c 2
 590 650 l 2
 610 650 624 640 611 619 c 2
 187 71 l 2
 181 65 172 48 211 48 c 2
 465 48 l 2
 569 48 594 83 604 183 c 2
 605 193 l 1
 610 199 636 202 636 195 c 0xa0
EndSplineSet
EndChar
StartChar: bracketleft
Encoding: 91 91 80
Width: 337
Flags: MW
VStem: 104 80<-175.5 -162 -162 621>
LayerCount: 2
Fore
SplineSet
272 -220 m 2
 272 -228 260 -229 253 -229 c 0
 220 -231 160 -230 127 -229 c 0
 112 -228 104 -223 104 -209 c 0
 101 9 101 446 104 664 c 0
 104 683 109 689 126 690 c 0
 158 693 220 691 254 690 c 0
 260 690 272 691 272 683 c 2
 272 668 l 2
 272 662 270 660 264 660 c 0
 251 659 209 658 196 651 c 0
 188 646 184 638 184 621 c 0
 182 408 182 35 184 -162 c 0
 184 -189 188 -192 237 -196 c 2
 261 -198 l 2
 270 -199 272 -200 272 -209 c 2
 272 -220 l 2
EndSplineSet
Validated: 33
EndChar
StartChar: backslash
Encoding: 92 92 81
Width: 479
Flags: W
LayerCount: 2
Fore
SplineSet
436 9 m 2
 440 1 446 -12 428 -14 c 2
 386 -19 l 2
 372 -21 370 -14 364 -3 c 2
 40 659 l 2
 33 673 56 674 69 674 c 2
 90 674 l 2
 107 674 108 677 117 659 c 2
 436 9 l 2
EndSplineSet
Validated: 33
EndChar
StartChar: bracketright
Encoding: 93 93 82
Width: 343
Flags: W
VStem: 32 168<-216 -209 -216 -209 -209 -200> 120 80<-161 623 623 631.5>
LayerCount: 2
Fore
SplineSet
200 -209 m 0x80
 200 -223 192 -228 177 -229 c 0
 144 -230 84 -231 51 -229 c 0
 45 -229 32 -228 32 -220 c 2
 32 -209 l 2x80
 32 -191 55 -197 67 -196 c 0
 116 -192 120 -188 120 -161 c 0
 122 36 122 410 120 623 c 0x40
 120 640 116 648 108 652 c 0
 98 657 78 657 67 658 c 2
 40 660 l 2
 35 660 32 662 32 668 c 2
 32 683 l 2
 32 689 39 690 44 690 c 2
 50 690 l 2
 84 690 146 693 178 690 c 0
 196 689 200 683 200 664 c 0
 203 446 204 9 200 -209 c 0x80
EndSplineSet
EndChar
StartChar: asciicircum
Encoding: 94 94 83
Width: 491
Flags: MW
HStem: 691 20G<237 259 259 259>
LayerCount: 2
Fore
SplineSet
468 356 m 0
 477 341 469 337 458 336 c 2
 438 334 l 2
 422 332 418 338 411 351 c 0
 374 417 300 542 258 609 c 0
 253 617 244 622 238 612 c 0
 196 547 119 414 81 347 c 0
 73 333 65 334 55 334 c 0
 38 336 12 332 28 360 c 0
 76 446 179 621 237 711 c 1
 259 711 l 1
 328 598 416 449 468 356 c 0
EndSplineSet
Validated: 33
EndChar
StartChar: underscore
Encoding: 95 95 84
Width: 523
Flags: MW
HStem: -232 52<18 454 61 454 454 457.5 61 505 61 526>
LayerCount: 2
Fore
SplineSet
536 -220 m 2
 536 -228 532 -231 526 -232 c 0
 519 -233 512 -232 505 -232 c 2
 28 -232 l 2
 8 -232 -10 -230 -10 -214 c 2
 -10 -187 l 2
 -10 -173 21 -180 61 -180 c 2
 454 -180 l 2
 461 -180 505 -178 516 -179 c 0
 527 -179 536 -182 536 -191 c 2
 536 -220 l 2
EndSplineSet
Validated: 33
EndChar
StartChar: grave
Encoding: 96 96 85
Width: 348
Flags: W
HStem: 637 20G<78 84> 638 20G<161 165.5>
LayerCount: 2
Fore
SplineSet
229 487 m 0x40
 230 474 212 473 204 480 c 0
 172 522 113 591 70 638 c 0x40
 64 644 72 657 84 657 c 2x80
 161 658 l 2
 170 658 175 658 180 650 c 0
 197 605 219 530 229 487 c 0x40
EndSplineSet
EndChar
StartChar: a
Encoding: 97 97 86
Width: 414
Flags: MW
HStem: -12 48<93.5 167> 389 42<172 189>
VStem: 25 77<75.5 103.5> 236 81<89 99 99 172 172 174>
LayerCount: 2
Fore
SplineSet
397 46 m 1
 356 10 316 -12 291 -12 c 0
 262 -12 245 5 239 40 c 0
 237 49 227 37 224 35 c 0
 181 -2 160 -12 122 -12 c 0
 65 -12 25 25 25 78 c 0
 25 129 62 162 131 180 c 0
 167 190 192 201 226 217 c 0
 229 219 237 225 237 235 c 2
 236 299 l 2
 235 357 210 389 168 389 c 0
 147 389 111 367 111 344 c 0
 111 335 110 329 114 320 c 1
 107 312 61 292 54 290 c 0
 37 284 31 286 31 305 c 0
 31 330 55 360 94 390 c 0
 131 420 156 431 188 431 c 0
 231 431 277 407 300 374 c 0
 316 352 317 344 317 281 c 2
 317 99 l 2
 317 57 325 50 339 50 c 0
 346 50 351 50 357 53 c 0
 363 55 371 59 381 68 c 0
 384 70 385 71 390 71 c 0
 401 69 400 54 397 46 c 1
236 89 m 1
 236 172 l 2
 236 176 236 188 227 183 c 0
 204 172 180 162 156 152 c 0
 116 136 102 118 102 91 c 0
 102 60 126 36 157 36 c 0
 177 36 228 66 236 89 c 1
EndSplineSet
EndChar
StartChar: b
Encoding: 98 98 87
Width: 491
Flags: MW
HStem: -15 42<230.5 291.5 230.5 295> 369 57<273.5 292>
VStem: 81 75<313 319 373 593 593 601.5> 380 75<157.5 248>
LayerCount: 2
Fore
SplineSet
455 226 m 0
 455 89 362 -15 228 -15 c 0
 199 -15 141 -7 91 4 c 0
 88 5 82 13 81 22 c 0
 83 220 82 464 81 593 c 0
 81 610 80 622 80 629 c 0
 79 643 70 646 58 648 c 0
 44 651 29 653 15 656 c 0
 6 659 6 680 15 683 c 2
 137 724 l 2
 153 729 157 724 156 707 c 0
 154 626 155 458 156 373 c 0
 157 365 159 357 166 362 c 0
 200 386 252 426 295 426 c 0
 385 426 455 335 455 226 c 0
380 197 m 0
 380 299 327 369 257 369 c 0
 228 369 200 351 156 319 c 1
 156 307 155 263 155 217 c 0
 155 170 157 121 163 96 c 0
 173 56 207 27 254 27 c 0
 329 27 380 96 380 197 c 0
EndSplineSet
Validated: 33
EndChar
StartChar: c
Encoding: 99 99 88
Width: 422
Flags: W
HStem: -12 54<203.5 244> 331 101<200 360> 394 38<200 241>
VStem: 25 80<164.5 259.5>
LayerCount: 2
Fore
SplineSet
386 112 m 0xb0
 393 107 387 96 385 93 c 0
 341 24 280 -12 208 -12 c 0
 102 -12 25 75 25 193 c 0
 25 326 133 432 267 432 c 0
 330 432 386 407 386 368 c 0
 386 347 370 331 350 331 c 0xd0
 329 331 314 341 288 366 c 0
 266 388 251 394 231 394 c 0
 165 394 105 313 105 216 c 0
 105 113 164 42 243 42 c 0
 294 42 333 68 361 109 c 0
 363 115 371 123 378 121 c 0
 384 118 382 117 386 112 c 0xb0
EndSplineSet
EndChar
StartChar: d
Encoding: 100 100 89
Width: 513
Flags: MW
HStem: -15 57<192 209.5> 387 40<189 248.5>
VStem: 23 80<170.5 257.5> 342 79<28.5 117 429 637>
LayerCount: 2
Fore
SplineSet
498 62 m 0
 501 53 500 41 495 39 c 0
 462 23 395 -2 360 -11 c 0
 335 -20 342 25 342 32 c 0
 342 39 338 52 331 47 c 0
 270 5 229 -15 190 -15 c 0
 96 -15 23 78 23 191 c 0
 23 324 120 427 248 427 c 0
 273 427 304 420 331 411 c 0
 336 410 342 415 342 429 c 0
 345 503 343 586 342 637 c 0
 340 643 341 649 334 653 c 0
 321 661 296 659 280 661 c 0
 274 662 270 661 269 668 c 0
 268 673 267 677 268 682 c 0
 269 687 272 690 278 691 c 0
 313 702 364 719 404 734 c 0
 416 739 421 730 421 716 c 2
 421 117 l 2
 421 61 427 60 448 60 c 0
 454 60 464 64 470 66 c 0
 479 68 494 75 498 62 c 0
341 106 m 2
 341 311 l 1
 304 364 271 387 226 387 c 0
 152 387 103 320 103 222 c 0
 103 119 157 42 227 42 c 0
 254 42 291 56 331 83 c 0
 335 85 340 95 341 106 c 2
EndSplineSet
EndChar
StartChar: e
Encoding: 101 101 90
Width: 424
Flags: MW
HStem: -15 64<206.5 229> 267 32<116 276 126 276 276 280 126 388> 398 31<185.5 228.5>
VStem: 24 75<175.5 233.5 175.5 267>
LayerCount: 2
Fore
SplineSet
402 276 m 0
 401 269 394 267 388 267 c 0
 311 264 184 266 120 267 c 0
 112 267 102 264 101 257 c 0
 99 246 99 240 99 227 c 0
 99 124 164 49 249 49 c 0
 297 49 334 67 373 113 c 0
 376 117 383 119 388 118 c 0
 396 116 402 104 398 97 c 0
 379 75 353 49 327 28 c 0
 293 2 249 -15 209 -15 c 0
 103 -15 24 81 24 202 c 0
 24 332 111 429 229 429 c 0
 299 429 345 401 373 341 c 2
 381 324 l 2
 387 312 392 303 401 292 c 0
 403 286 403 283 402 276 c 0
300 311 m 0
 285 366 250 398 207 398 c 0
 164 398 129 367 110 307 c 0
 108 302 122 299 126 299 c 2
 276 299 l 2
 284 299 302 302 300 311 c 0
EndSplineSet
Validated: 33
EndChar
StartChar: f
Encoding: 102 102 91
Width: 321
Flags: MW
HStem: -3 34<29 68.5 40.5 68.5 40.5 284> 353 62<192 279> 669 58<261.5 343>
VStem: 97 80<132 340 340 340>
LayerCount: 2
Fore
SplineSet
439 671 m 0
 439 662 429 645 419 629 c 0
 405 607 392 619 378 630 c 0
 351 652 312 669 282 669 c 0
 241 669 204 643 190 603 c 0
 180 576 175 550 176 504 c 2
 177 435 l 2
 177 424 178 415 192 415 c 2
 266 415 l 2
 271 415 279 411 280 406 c 0
 281 405 287 361 287 361 c 2
 286 356 283 353 275 353 c 2
 190 354 l 2
 182 354 177 345 177 341 c 2
 177 128 l 2
 177 33 181 33 246 34 c 0
 258 34 270 35 280 34 c 0
 291 33 292 24 293 13 c 0
 293 5 289 -3 284 -3 c 0
 220 -1 94 0 32 -3 c 0
 26 -3 24 6 24 13 c 0
 24 16 24 21 26 24 c 0
 29 32 37 31 44 31 c 0
 93 31 97 51 97 132 c 2
 97 340 l 2
 95 351 91 355 85 356 c 2
 22 356 l 2
 15 356 16 382 22 386 c 0
 53 393 76 401 97 413 c 1
 97 436 98 442 99 467 c 0
 103 543 115 588 170 647 c 0
 219 701 273 727 327 727 c 0
 359 727 415 713 436 682 c 0
 438 679 439 675 439 671 c 0
EndSplineSet
Validated: 33
EndChar
StartChar: g
Encoding: 103 103 92
Width: 483
Flags: W
HStem: -250 51<206.5 259.5> -21 66 119 35<199 241.5 192 254.5> 367 20G<327 335 335 338> 396 33<185.5 235>
VStem: 27 73<-174.5 -100> 53 74<243 309.5> 301 74<229.5 280.5 226 303.5> 392 59<-121 -74.5>
LayerCount: 2
Fore
SplineSet
451 -70 m 0xfb80
 451 -172 331 -250 188 -250 c 0
 121 -250 27 -209 27 -140 c 0xfd80
 27 -91 52 -66 88 -42 c 0
 96 -36 104 -32 112 -27 c 0
 118 -22 122 -12 117 -10 c 0
 63 9 47 36 47 64 c 0
 47 82 67 95 89 107 c 0
 105 116 117 123 127 129 c 0
 129 130 137 135 132 138 c 0
 82 163 53 206 53 262 c 0
 53 357 127 429 221 429 c 0
 264 429 301 415 327 387 c 1
 335 387 l 2
 341 387 400 394 426 398 c 0
 440 400 444 399 445 384 c 0
 447 367 449 352 448 335 c 0
 447 329 446 322 438 322 c 0
 432 322 397 326 376 329 c 0
 373 330 365 324 366 321 c 0
 374 301 375 290 375 271 c 0
 375 181 303 119 206 119 c 0
 192 119 179 121 165 125 c 1
 158 115 146 107 137 99 c 0
 126 90 118 82 118 73 c 0
 118 63 118 46 242 45 c 0
 302 44 354 43 400 22 c 0
 436 6 451 -27 451 -70 c 0xfb80
301 265 m 0
 301 342 261 396 209 396 c 0
 162 396 127 348 127 284 c 0xfb80
 127 202 167 154 217 154 c 0
 266 154 301 194 301 265 c 0
392 -97 m 0
 392 -52 366 -31 281 -24 c 0
 237 -21 209 -23 165 -21 c 1
 163 -25 158 -30 152 -36 c 0
 134 -54 100 -87 100 -113 c 0xfd80
 99 -165 170 -199 243 -199 c 0
 307 -199 392 -148 392 -97 c 0
EndSplineSet
EndChar
StartChar: h
Encoding: 104 104 93
Width: 526
Flags: MW
HStem: -3 37 376 51<255 351>
VStem: 93 79<132 328 394.5 398 398 589 589 589> 363 74
LayerCount: 2
Fore
SplineSet
515 14 m 0
 516 6 514 -2 509 -2 c 0
 409 -4 349 -1 296 -2 c 0
 282 -2 280 10 280 15 c 0
 279 23 282 31 288 31 c 2
 294 31 l 2
 342 31 352 42 356 78 c 0
 361 121 363 166 363 215 c 0
 363 305 357 328 337 350 c 0
 322 366 300 376 275 376 c 0
 235 376 210 359 177 339 c 0
 175 338 172 332 172 328 c 2
 172 89 l 2
 172 37 184 31 226 31 c 0
 234 31 240 32 241 23 c 0
 241 20 241 14 242 10 c 0
 242 1 236 -4 230 -3 c 0
 178 -1 84 -5 26 -3 c 0
 17 -5 13 20 20 28 c 0
 23 32 36 32 41 33 c 0
 86 36 93 48 93 132 c 2
 93 589 l 1
 92 627 l 2
 92 642 80 651 67 653 c 0
 53 655 40 656 26 658 c 0
 19 659 15 682 26 686 c 0
 58 699 112 716 154 728 c 0
 164 731 172 728 172 706 c 2
 172 398 l 2
 172 391 176 374 184 379 c 0
 231 409 266 427 324 427 c 0
 378 427 415 405 430 356 c 0
 440 326 442 286 443 245 c 0
 443 204 440 162 439 130 c 0
 438 108 437 86 437 64 c 0
 437 38 447 34 500 34 c 0
 514 34 514 28 515 14 c 0
EndSplineSet
EndChar
StartChar: i
Encoding: 105 105 94
Width: 266
Flags: W
HStem: -3 35<27 41 41 41 41 232> 562 103<111 140.5>
VStem: 72 106 100 78<125 304 304 329>
LayerCount: 2
Fore
SplineSet
182 613 m 0xe0
 182 584 156 562 125 562 c 0
 93 562 72 584 72 613 c 0
 72 642 96 665 126 665 c 0
 158 665 182 644 182 613 c 0xe0
247 23 m 0
 247 20 246 16 246 13 c 0
 246 3 243 -3 232 -3 c 0
 181 -2 80 -1 29 -3 c 0
 25 -3 21 5 20 13 c 0
 19 21 21 30 28 31 c 2
 41 32 l 2
 99 36 100 40 100 125 c 2
 100 304 l 2xd0
 100 354 98 354 73 359 c 0
 58 362 46 365 32 370 c 0
 25 372 25 391 31 395 c 0
 61 406 123 431 152 437 c 0
 175 445 178 429 178 413 c 2
 178 125 l 2
 178 104 178 87 179 73 c 0
 181 35 188 34 229 34 c 0
 236 37 246 30 247 23 c 0
EndSplineSet
Validated: 33
EndChar
StartChar: j
Encoding: 106 106 95
Width: 247
Flags: W
HStem: -244 49<-37.5 50.5> -244 111<-81.5 15> 551 103<101.5 132.5>
VStem: 93 77<-18.5 -13 -13 25 25 308 308 330.5>
LayerCount: 2
Fore
SplineSet
171 603 m 0xb0
 171 574 148 551 117 551 c 0
 85 551 62 574 62 603 c 0
 62 632 86 654 117 654 c 0
 149 654 171 632 171 603 c 0xb0
170 25 m 2
 170 -62 167 -91 150 -133 c 0
 140 -157 126 -178 109 -196 c 0
 78 -230 39 -244 -9 -244 c 0
 -66 -244 -107 -220 -107 -186 c 0
 -107 -159 -92 -133 -71 -133 c 0x70
 -55 -133 -40 -151 -30 -163 c 0
 -16 -179 6 -195 29 -195 c 0
 72 -195 93 -162 93 -75 c 2
 93 -13 l 1
 93 308 l 2
 93 353 91 354 83 359 c 0
 77 362 66 365 55 367 c 0
 44 370 32 372 24 374 c 0
 18 376 18 396 24 399 c 0
 31 402 80 423 148 445 c 0
 165 451 170 435 170 425 c 2
 170 25 l 2
EndSplineSet
Validated: 1
EndChar
StartChar: k
Encoding: 107 107 96
Width: 518
Flags: W
HStem: -3 34<20.5 55.5 23 55.5 23 227> 389 32<268 271 265.5 272> 402 20G<457 461>
VStem: 82 78
LayerCount: 2
Fore
SplineSet
496 -3 m 0xd0
 440 0 332 -1 279 -3 c 0
 275 -3 271 6 271 14 c 0
 271 27 273 29 286 29 c 0
 312 29 321 37 321 43 c 0
 321 48 318 52 298 74 c 2
 169 211 l 2
 161 217 161 199 161 195 c 2
 161 124 l 2
 161 29 163 30 215 30 c 2
 227 30 l 2
 232 30 235 21 235 13 c 0
 235 5 232 -4 227 -3 c 0
 169 -2 75 -2 23 -3 c 0
 18 -3 16 6 16 13 c 0
 15 27 15 31 31 31 c 0
 80 31 82 41 82 132 c 2
 82 573 l 2
 82 593 82 607 81 626 c 0
 80 639 56 646 47 648 c 0
 34 651 22 654 21 654 c 0
 12 656 14 679 21 681 c 0
 75 695 99 712 138 722 c 0
 153 726 160 721 160 705 c 2
 161 279 l 2
 161 267 176 273 181 276 c 2
 287 353 l 2
 309 369 313 374 313 377 c 0
 313 389 276 389 268 389 c 0
 260 393 256 397 257 407 c 0
 258 418 260 421 271 421 c 0xd0
 333 420 410 421 457 422 c 0xb0
 465 422 467 413 467 406 c 0
 467 399 464 389 461 389 c 0
 417 388 373 370 338 343 c 0
 303 317 268 291 232 266 c 0
 229 263 231 253 236 248 c 0
 296 186 354 126 417 63 c 0
 440 40 452 29 486 29 c 2
 496 29 l 1
 506 25 504 -4 496 -3 c 0xd0
EndSplineSet
EndChar
StartChar: l
Encoding: 108 108 97
Width: 262
Flags: MW
HStem: -3 34
VStem: 96 80<97 98 98 623 623 629>
LayerCount: 2
Fore
SplineSet
247 13 m 0
 247 4 244 -3 235 -3 c 0
 133 -6 101 0 30 -2 c 0
 28 -2 19 2 18 6 c 0
 16 13 16 27 24 31 c 1
 35 31 l 2
 88 31 96 44 96 97 c 2
 96 623 l 2
 96 635 90 639 80 641 c 0
 63 644 47 647 30 650 c 0
 22 652 19 674 30 678 c 0
 57 685 104 698 162 720 c 0
 171 721 176 707 176 699 c 2
 176 98 l 2
 176 39 179 31 228 31 c 0
 233 31 246 33 247 25 c 0
 248 22 247 16 247 13 c 0
EndSplineSet
Validated: 33
EndChar
StartChar: m
Encoding: 109 109 98
Width: 812
Flags: MW
HStem: -3 36<750 779 750 792> 378 51<313.5 318.5 579.5 591.5>
VStem: 93 79<132 275 275 301.5> 365 78<132 295 295 320> 636 76
LayerCount: 2
Fore
SplineSet
802 12 m 0
 802 4 797 -4 792 -3 c 0
 723 0 638 -2 570 -3 c 0
 564 -3 560 -4 557 3 c 0
 554 10 552 29 564 29 c 2
 574 29 l 2
 617 29 627 39 631 81 c 0
 634 122 636 161 636 221 c 0
 636 348 618 378 565 378 c 0
 536 378 494 355 443 320 c 1
 443 89 l 2
 443 40 454 29 498 29 c 0
 509 29 511 26 512 14 c 0
 512 6 507 -3 502 -3 c 0
 452 -2 349 -1 294 -2 c 0
 282 -2 280 24 292 29 c 0
 295 31 301 30 305 30 c 0
 357 30 365 41 365 132 c 2
 365 295 l 2
 365 348 339 378 298 378 c 0
 255 378 206 343 172 320 c 1
 172 89 l 2
 172 38 181 29 232 29 c 0
 236 30 240 30 241 29 c 0
 245 28 248 19 248 11 c 0
 247 4 242 -4 238 -3 c 0
 188 -1 84 -1 26 -3 c 0
 23 -3 19 -2 17 4 c 0
 15 9 16 19 18 24 c 0
 21 31 33 31 40 31 c 0
 84 33 93 46 93 132 c 2
 93 275 l 2
 93 328 93 346 90 350 c 0
 86 358 77 362 49 366 c 2
 26 369 l 2
 18 370 21 394 26 396 c 0
 54 409 111 427 157 439 c 0
 170 442 172 432 172 421 c 2
 172 362 l 2
 173 354 180 357 185 361 c 0
 229 392 285 429 342 429 c 0
 388 429 424 401 438 356 c 0
 439 352 444 352 449 356 c 0
 496 389 550 429 609 429 c 0
 651 429 685 406 701 369 c 0
 714 339 716 310 716 229 c 0
 716 176 712 124 712 71 c 0
 712 39 721 33 779 33 c 0
 784 34 794 34 798 31 c 0
 803 29 803 19 802 12 c 0
EndSplineSet
Validated: 33
EndChar
StartChar: n
Encoding: 110 110 99
Width: 516
Flags: MW
HStem: -2 33<289.5 295 459.5 483> 374 54<275 380>
VStem: 88 78<133 270 270 299> 362 71
LayerCount: 2
Fore
SplineSet
501 7 m 0
 499 -3 497 -2 486 -2 c 0
 436 -3 348 0 296 -2 c 0
 283 -2 281 1 280 14 c 0
 280 21 282 31 288 31 c 2
 295 31 l 1
 339 35 352 46 356 87 c 0
 362 145 362 204 362 263 c 0
 362 340 337 374 289 374 c 0
 261 374 210 349 166 315 c 1
 166 89 l 2
 166 37 177 31 227 31 c 0
 232 31 235 21 236 14 c 0
 236 2 233 -2 222 -3 c 0
 171 -1 84 -5 31 -2 c 0
 27 -2 19 -2 17 3 c 0
 14 12 15 29 25 29 c 2
 31 29 l 2
 77 29 88 43 88 133 c 2
 88 270 l 2
 88 328 87 345 84 351 c 0
 81 358 76 361 45 367 c 2
 25 371 l 2
 18 372 18 395 25 398 c 0
 57 403 106 433 143 441 c 0
 159 445 166 436 166 424 c 2
 166 369 l 2
 166 367 171 353 177 357 c 0
 207 378 228 392 260 408 c 0
 287 421 309 428 330 428 c 0
 430 428 441 321 441 248 c 0
 441 188 433 128 433 67 c 0
 433 38 436 31 483 31 c 0
 488 34 495 33 499 28 c 0
 502 23 503 14 501 7 c 0
EndSplineSet
Validated: 33
EndChar
StartChar: p
Encoding: 112 112 101
Width: 503
Flags: MW
HStem: -278 34<22 25 25 53 16 250> -11 42<263.5 313.5> 364 60<299.5 305>
VStem: 89 78<-132 -13 85 282 282 303> 397 78<162 237>
LayerCount: 2
Fore
SplineSet
475 225 m 0
 475 99 373 -11 254 -11 c 0
 230 -11 208 -6 179 3 c 0
 172 5 167 6 167 -13 c 2
 167 -132 l 2
 167 -229 176 -241 232 -241 c 2
 246 -241 l 2
 254 -241 262 -244 264 -249 c 0
 266 -256 266 -267 263 -272 c 0
 261 -276 254 -278 250 -278 c 0
 180 -275 67 -280 25 -278 c 0
 19 -278 12 -279 9 -273 c 0
 4 -264 5 -244 16 -244 c 2
 25 -244 l 2
 81 -244 89 -229 89 -132 c 2
 89 282 l 1
 89 306 l 2
 89 331 86 334 63 340 c 0
 51 343 40 348 28 351 c 0
 19 353 21 368 24 372 c 0
 26 376 28 377 30 379 c 2
 140 448 l 2
 156 458 167 456 167 440 c 2
 167 378 l 2
 167 374 169 354 177 360 c 0
 242 406 280 424 319 424 c 0
 404 424 475 330 475 225 c 0
397 186 m 0
 397 288 341 364 269 364 c 0
 240 364 207 348 173 321 c 0
 171 319 167 312 167 303 c 2
 167 85 l 1
 203 51 245 31 282 31 c 0
 348 31 397 96 397 186 c 0
EndSplineSet
Validated: 33
EndChar
StartChar: q
Encoding: 113 113 102
Width: 504
Flags: MW
HStem: -277 36<251 311 277.5 311 277.5 479> -13 53<205 222> 393 33<198.5 260.5>
VStem: 31 77<170 259.5> 347 76<-130 30 30 30 218 218>
LayerCount: 2
Fore
SplineSet
493 -271 m 0
 491 -275 490 -276 488 -277 c 0
 485 -277 482 -277 479 -277 c 0
 416 -275 317 -275 256 -277 c 0
 246 -277 237 -275 237 -262 c 0
 237 -255 235 -247 245 -242 c 0
 258 -240 271 -241 284 -241 c 0
 338 -241 347 -228 347 -130 c 2
 347 30 l 1
 348 30 l 1
 348 30 346 53 339 47 c 0
 290 6 245 -13 199 -13 c 0
 102 -13 31 76 31 195 c 0
 31 324 126 426 249 426 c 0
 286 426 324 417 363 397 c 0
 371 393 377 397 378 399 c 0
 386 408 396 418 405 425 c 0
 410 428 426 431 430 424 c 1
 425 405 423 377 423 349 c 2
 423 305 l 1
 423 -130 l 2
 423 -224 433 -244 477 -244 c 2
 487 -244 l 2
 497 -244 497 -262 493 -271 c 0
348 103 m 2
 347 218 l 2
 346 290 346 299 338 324 c 0
 324 364 283 393 238 393 c 0
 159 393 108 329 108 222 c 0
 108 118 167 40 243 40 c 0
 271 40 307 56 341 85 c 0
 343 87 345 89 348 103 c 2
EndSplineSet
Validated: 33
EndChar
StartChar: r
Encoding: 114 114 103
Width: 350
Flags: MW
HStem: -3 33<32 56.5 26 245>
VStem: 92 78<196.5 289 196.5 324 196.5 324>
LayerCount: 2
Fore
SplineSet
339 392 m 0
 332 370 321 349 310 329 c 1
 296 330 285 336 273 342 c 0
 261 348 250 353 237 353 c 0
 218 353 196 338 170 289 c 1
 170 104 169 141 171 89 c 0
 172 38 181 31 231 31 c 2
 253 31 l 2
 262 31 268 6 259 -2 c 0
 256 -4 248 -3 245 -3 c 0
 192 -2 85 0 32 -3 c 0
 20 -4 20 5 20 14 c 0
 20 28 19 30 33 30 c 0
 80 30 92 43 92 132 c 2
 92 324 l 2
 90 332 91 336 82 339 c 2
 40 355 l 2
 28 360 24 361 23 370 c 2
 23 378 l 2
 23 386 26 388 31 389 c 0
 48 398 69 404 90 411 c 0
 111 418 132 426 150 435 c 0
 161 441 168 434 168 423 c 0
 169 399 168 376 169 353 c 0
 169 344 174 345 175 346 c 0
 194 387 205 411 220 419 c 0
 248 434 288 420 313 409 c 0
 318 407 325 406 330 404 c 0
 335 403 341 398 339 392 c 0
EndSplineSet
EndChar
StartChar: s
Encoding: 115 115 104
Width: 314
Flags: MW
HStem: -10 30<146 169 130 190> 398 37<137 171>
VStem: 34 64<330.5 349> 216 69<78 108.5>
LayerCount: 2
Fore
SplineSet
285 113 m 0
 285 43 226 -10 154 -10 c 0
 138 -10 118 -7 104 -3 c 0
 98 -1 90 3 84 4 c 0
 80 4 75 1 71 -9 c 1
 65 -11 61 -14 55 -12 c 0
 49 -11 46 -9 45 -2 c 0
 41 28 35 81 36 112 c 0
 35 121 47 121 56 120 c 0
 61 118 62 114 63 110 c 0
 77 49 109 20 151 20 c 0
 187 20 216 49 216 84 c 0
 216 133 162 164 126 189 c 0
 81 219 34 254 34 313 c 0
 34 385 91 435 169 435 c 0
 196 435 224 428 253 416 c 1
 255 390 257 340 255 314 c 0
 255 312 248 309 241 309 c 0
 234 309 227 311 228 314 c 0
 218 369 189 398 153 398 c 0
 121 398 98 375 98 345 c 0
 98 316 125 290 158 266 c 0
 189 243 225 225 251 196 c 0
 271 174 285 142 285 113 c 0
EndSplineSet
EndChar
StartChar: t
Encoding: 116 116 105
Width: 319
Flags: MW
HStem: -11 58<186.5 202> 368 55<158 161>
VStem: 70 76<127 155 155 179 179 355 355 356>
LayerCount: 2
Fore
SplineSet
294 80 m 0
 268 22 227 -11 177 -11 c 0
 114 -11 70 41 70 114 c 2
 70 155 l 1
 70 355 l 2
 70 358 67 365 64 366 c 0
 56 366 50 366 44 366 c 0
 38 366 32 367 24 369 c 1
 21 374 19 385 21 390 c 0
 22 392 27 396 29 397 c 0
 68 417 98 459 121 524 c 0
 122 532 147 537 146 524 c 0
 145 501 144 459 146 436 c 0
 147 430 154 423 158 423 c 2
 269 423 l 2
 277 423 285 419 281 407 c 0
 280 397 276 383 272 374 c 0
 269 369 268 366 256 366 c 2
 161 368 l 2
 155 368 147 361 146 356 c 2
 146 179 l 2
 146 75 163 47 210 47 c 0
 230 47 250 62 270 100 c 0
 272 106 287 106 293 99 c 0
 297 95 295 83 294 80 c 0
EndSplineSet
Validated: 33
EndChar
StartChar: u
Encoding: 117 117 106
Width: 534
Flags: MW
HStem: -10 59<221.5 232>
VStem: 88 79<130 184 184 340 340 350> 371 77<9 79 118 291 291 301>
LayerCount: 2
Fore
SplineSet
513 31 m 0
 483 18 433 2 399 -5 c 0
 384 -8 372 -10 371 9 c 2
 369 48 l 2
 369 51 366 67 362 63 c 0
 314 28 263 -10 201 -10 c 0
 123 -10 88 43 88 128 c 2
 88 340 l 2
 88 360 86 371 66 377 c 0
 53 381 39 384 26 388 c 0
 21 389 14 410 26 413 c 0
 57 420 116 436 151 443 c 0
 163 445 167 432 167 424 c 2
 167 184 l 2
 167 76 188 49 255 49 c 0
 286 49 328 68 367 99 c 0
 367 100 371 110 371 118 c 2
 371 291 l 2
 371 311 372 331 368 350 c 0
 364 366 355 379 338 382 c 0
 325 385 322 384 316 386 c 0
 311 387 303 388 283 391 c 0
 275 396 277 415 285 417 c 0
 326 426 392 440 428 444 c 0
 439 445 448 441 448 428 c 2
 448 110 l 1
 448 79 l 2
 448 48 471 52 491 57 c 0
 498 59 506 61 512 63 c 0
 524 65 525 33 513 31 c 0
EndSplineSet
EndChar
StartChar: v
Encoding: 118 118 107
Width: 498
Flags: W
HStem: 369 20G<490 493> 388 31<188 213 213 222>
LayerCount: 2
Fore
SplineSet
490 389 m 0x80
 447 384 436 368 400 284 c 2
 278 2 l 2
 274 -5 271 -9 264 -10 c 0
 255 -12 243 -11 237 -9 c 0
 230 -6 229 1 227 6 c 2
 97 305 l 2
 77 352 75 357 67 367 c 0
 53 383 30 385 10 388 c 0
 1 390 2 418 14 419 c 0
 35 421 160 416 224 419 c 0
 228 419 230 411 230 403 c 0
 230 396 227 388 222 388 c 2
 213 388 l 2
 163 388 161 378 161 368 c 0
 161 352 249 150 263 116 c 0
 268 109 274 93 281 110 c 0
 304 166 352 281 377 334 c 0
 397 377 333 387 306 388 c 0
 301 392 299 419 310 419 c 0
 356 418 433 418 488 419 c 0x40
 499 419 496 389 490 389 c 0x80
EndSplineSet
EndChar
StartChar: w
Encoding: 119 119 108
Width: 753
Flags: W
HStem: -12 21G<235.5 239 237 248> 365 20G<281 284 583.5 588> 367 20G<209 213> 386 31<261 268.5> 396 20G<17 198 198 202.5>
LayerCount: 2
Fore
SplineSet
740 386 m 0xd0
 713 383 700 381 689 366 c 0
 684 358 676 339 668 320 c 0
 625 214 583 109 540 2 c 0
 536 -9 536 -9 523 -11 c 0
 518 -12 510 -15 504 -13 c 0
 498 -12 496 -10 494 -5 c 2
 492 0 l 1
 384 261 l 2
 380 268 376 258 374 254 c 2
 267 2 l 2
 265 -5 261 -10 254 -11 c 0
 252 -12 250 -12 248 -12 c 0
 245 -12 241 -12 237 -12 c 0
 234 -12 230 -12 228 -11 c 0
 223 -10 221 -8 219 -4 c 2
 217 1 l 1
 95 302 l 2
 65 377 58 383 8 386 c 0xd0
 0 387 1 405 3 411 c 0
 5 419 11 417 17 416 c 0
 54 416 95 411 198 416 c 0
 207 416 212 420 215 408 c 0
 218 400 217 387 209 387 c 0
 166 385 158 375 158 364 c 0
 158 353 179 299 201 243 c 0
 223 187 247 130 255 111 c 0
 257 106 266 94 270 103 c 2
 360 314 l 1
 360 313 l 1
 351 331 342 353 328 367 c 0xa8
 314 381 302 384 284 385 c 0
 278 385 272 386 265 386 c 0
 261 386 258 394 258 401 c 0
 257 409 259 417 263 417 c 0xd0
 309 416 391 410 466 416 c 0xc8
 475 417 482 419 485 409 c 0
 488 401 486 388 483 386 c 0
 440 385 430 376 430 360 c 0
 430 351 433 340 445 311 c 2
 529 108 l 2
 532 100 542 111 544 116 c 0
 547 123 626 311 631 338 c 0
 638 374 617 383 588 385 c 0
 579 385 569 385 559 386 c 0
 553 388 548 417 561 417 c 0
 604 416 676 416 735 417 c 0
 750 420 747 387 740 386 c 0xd0
EndSplineSet
Validated: 37
EndChar
StartChar: x
Encoding: 120 120 109
Width: 522
Flags: W
HStem: -3 30 369 20G<217 221 221 230> 388 29<493 495>
LayerCount: 2
Fore
SplineSet
511 10 m 0xa0
 511 3 507 -3 502 -2 c 0
 451 -1 355 -1 296 -3 c 0
 284 -3 284 26 296 26 c 2
 305 26 l 2
 335 26 340 33 340 42 c 0
 340 54 321 72 314 82 c 2
 257 158 l 2
 250 167 240 175 234 168 c 0
 218 150 144 74 144 55 c 0
 144 38 155 30 198 26 c 1
 206 26 l 2
 216 25 216 -5 206 -3 c 0
 154 -1 63 -1 15 -2 c 0
 11 -2 8 5 7 12 c 0
 7 20 9 27 15 27 c 0
 63 28 78 38 132 100 c 2
 221 201 l 1
 138 312 l 2
 90 376 78 385 21 388 c 0
 14 390 11 418 26 417 c 0
 79 414 173 416 220 417 c 0xa0
 223 417 229 418 231 415 c 0
 237 407 235 389 230 389 c 2
 221 389 l 2xc0
 213 389 187 389 187 377 c 0
 187 369 204 343 223 318 c 0
 241 294 261 271 262 270 c 0
 270 259 274 258 284 270 c 0
 292 278 309 296 323 314 c 0
 338 332 350 352 350 365 c 0
 350 379 343 387 306 388 c 0
 300 389 297 386 294 393 c 0
 292 398 292 406 293 411 c 0
 294 418 300 418 305 417 c 0
 381 416 454 415 495 417 c 0
 501 418 504 417 507 412 c 0
 509 407 510 399 508 394 c 0
 505 386 500 388 493 388 c 0
 433 384 419 375 377 328 c 2
 339 286 l 1
 292 232 l 1
 396 99 373 128 413 77 c 0
 441 41 460 31 503 28 c 0
 508 25 511 17 511 10 c 0xa0
EndSplineSet
EndChar
StartChar: y
Encoding: 121 121 110
Width: 488
Flags: W
HStem: -264 21G<111.5 132.5> 389 30<457 472> 398 20G<305 313 311.5 313> 401 20G<199 203>
LayerCount: 2
Fore
SplineSet
476 410 m 0xc0
 478 402 474 389 470 389 c 0
 430 384 413 368 372 259 c 2
 248 -75 l 2
 230 -122 218 -155 206 -182 c 0
 195 -208 184 -226 170 -243 c 0
 159 -257 141 -264 124 -264 c 0
 99 -264 77 -243 77 -219 c 0
 77 -196 95 -184 127 -176 c 0
 167 -165 192 -135 217 -54 c 2
 231 -8 l 1
 104 294 l 2
 67 382 62 385 15 389 c 0
 11 390 7 402 9 410 c 0
 12 421 20 420 29 419 c 0xc0
 71 416 151 420 199 421 c 0x90
 207 421 215 423 218 413 c 0
 220 404 217 390 212 389 c 0
 167 388 160 379 160 364 c 0
 160 357 162 349 171 329 c 0
 204 256 233 180 263 105 c 0
 266 98 278 115 279 118 c 2
 339 271 l 2
 343 281 349 296 354 312 c 0
 359 327 363 343 363 353 c 0
 363 378 353 388 302 389 c 0xc0
 296 392 292 417 305 418 c 0
 307 419 310 418 313 418 c 0xa0
 349 420 426 421 457 419 c 0
 465 419 474 421 476 410 c 0xc0
EndSplineSet
EndChar
StartChar: z
Encoding: 122 122 111
Width: 410
Flags: MW
HStem: -2 49<147 298 147 343> 366 51
LayerCount: 2
Fore
SplineSet
395 118 m 2
 354 6 l 2
 352 2 347 -1 343 -2 c 0
 262 -4 100 -4 21 -2 c 0
 17 -2 14 9 15 17 c 0
 16 22 20 24 23 29 c 2
 266 360 l 2
 268 365 262 368 259 369 c 0
 213 370 166 366 119 366 c 0
 92 366 82 358 61 273 c 0
 58 266 45 266 38 269 c 0
 29 272 31 276 32 283 c 0
 41 333 55 413 62 442 c 0
 64 446 90 447 90 441 c 0
 90 420 93 414 133 415 c 0
 192 416 304 418 361 417 c 0
 370 417 375 420 382 413 c 1
 384 404 384 395 380 390 c 0
 295 279 172 108 135 54 c 0
 133 49 143 46 147 47 c 0
 182 44 238 43 298 47 c 0
 333 49 341 61 364 115 c 1
 368 120 l 2
 372 130 399 129 395 118 c 2
EndSplineSet
EndChar
StartChar: braceleft
Encoding: 123 123 112
Width: 501
Flags: W
HStem: 691 20G<390 391.5>
VStem: 196 85 219 81
LayerCount: 2
Fore
SplineSet
400 -245 m 0xc0
 398 -249 395 -250 390 -249 c 0
 275 -231 197 -147 197 -45 c 0
 197 -23 201 4 208 35 c 0
 215 66 220 97 220 111 c 0
 220 161 182 200 110 215 c 0
 107 216 105 220 105 224 c 0
 103 229 103 232 105 237 c 0
 105 241 109 245 112 246 c 0
 179 260 219 301 219 348 c 0xa0
 219 364 215 389 207 423 c 0
 199 455 196 483 196 506 c 0xc0
 196 608 276 694 390 711 c 0
 393 711 396 710 397 706 c 0
 400 695 400 691 399 690 c 0
 399 689 399 689 398 689 c 1
 398 689 l 1
 398 689 l 1
 398 689 397 688 397 687 c 0
 396 684 391 681 388 680 c 0
 317 664 280 622 280 564 c 0
 280 544 283 520 289 490 c 0
 296 454 300 424 300 402 c 0
 300 356 281 315 245 281 c 0
 223 260 208 249 183 238 c 0
 173 234 170 230 182 224 c 0
 258 186 300 129 300 59 c 0xa0
 300 41 297 5 290 -27 c 0
 284 -56 281 -82 281 -101 c 0
 281 -159 316 -199 391 -220 c 0
 394 -220 398 -223 399 -225 c 0
 400 -225 400 -226 400 -226 c 2
 403 -234 403 -238 400 -245 c 0xc0
EndSplineSet
Validated: 1
EndChar
StartChar: bar
Encoding: 124 124 113
Width: 534
Flags: MW
HStem: -22 21G<245 253 253 278> 840 20G<250 259>
VStem: 236 65<362 422 422 833>
LayerCount: 2
Fore
SplineSet
301 422 m 2
 301 302 304 140 300 0 c 0
 300 -15 295 -22 278 -22 c 0
 271 -21 262 -21 253 -22 c 0
 237 -22 236 -11 236 5 c 2
 236 835 l 2
 236 853 241 860 259 860 c 0
 268 858 277 856 288 858 c 0
 307 858 301 851 301 833 c 2
 301 422 l 2
EndSplineSet
Validated: 33
EndChar
StartChar: braceright
Encoding: 125 125 114
Width: 501
Flags: W
VStem: 203 81<368 377.5 327 428> 223 61 223 85<535 558 480.5 590>
LayerCount: 2
Fore
SplineSet
399 233 m 0x40
 399 222 398 216 387 214 c 0
 322 199 285 160 285 114 c 0
 285 87 291 61 297 35 c 0
 303 9 309 -17 309 -44 c 0
 309 -144 233 -227 125 -247 c 0
 116 -249 104 -245 106 -237 c 0
 106 -234 107 -229 107 -226 c 0
 108 -222 110 -219 114 -218 c 0
 186 -203 224 -160 224 -103 c 0
 224 -48 203 4 203 59 c 0
 203 104 223 146 259 181 c 0
 280 202 295 213 321 224 c 0
 329 228 328 235 320 239 c 0
 245 277 203 334 203 402 c 0x80
 203 454 223 508 223 562 c 0
 223 618 189 660 118 680 c 0
 114 681 104 688 106 697 c 0
 106 702 107 712 114 711 c 0
 229 693 308 609 308 507 c 0x20
 308 454 284 404 284 351 c 0
 284 303 319 265 385 249 c 0
 392 247 399 240 399 233 c 0x40
EndSplineSet
Validated: 1
EndChar
StartChar: asciitilde
Encoding: 126 126 115
Width: 567
Flags: W
HStem: 241 82<404 444.5> 336 79<129 161.5> 399 20G<520 523>
LayerCount: 2
Fore
SplineSet
547 407 m 0xa0
 541 311 483 241 406 241 c 0
 355 241 307 264 262 288 c 0
 229 305 181 336 142 336 c 0
 98 336 64 303 57 249 c 0
 56 242 49 237 42 238 c 0
 34 239 23 242 24 253 c 0
 28 347 90 415 168 415 c 0xc0
 218 415 262 392 304 369 c 0
 340 349 383 323 425 323 c 0
 470 323 501 351 511 406 c 0
 512 413 517 419 523 419 c 2
 534 418 l 2
 543 417 548 411 547 407 c 0xa0
EndSplineSet
EndChar
StartChar: exclamdown
Encoding: 161 161 171
Width: 272
Flags: MW
HStem: -249 21G<104 123 123 155> 322 112<120.5 153.5>
VStem: 79 116<362.5 394.5>
LayerCount: 2
Fore
SplineSet
195 379 m 0
 195 346 170 322 137 322 c 0
 104 322 79 346 79 379 c 0
 79 410 104 434 137 434 c 0
 170 434 195 411 195 379 c 0
190 -209 m 2
 192 -237 190 -249 155 -249 c 2
 123 -249 l 2
 85 -249 84 -236 86 -208 c 2
 123 255 l 2
 126 262 147 262 150 255 c 2
 190 -209 l 2
EndSplineSet
EndChar
StartChar: cent
Encoding: 162 162 150
Width: 447
Flags: MW
HStem: -18 55<261.5 266.5> 394 39<224 265>
VStem: 48 80<187.5 257.5>
LayerCount: 2
Fore
SplineSet
413 367 m 0
 413 346 397 330 374 330 c 0
 360 330 350 335 337 346 c 0
 328 355 324 356 320 345 c 2
 209 67 l 2
 199 41 255 37 268 37 c 0
 321 37 352 64 387 106 c 0
 390 110 394 114 400 110 c 2
 410 104 l 2
 415 101 414 93 408 84 c 0
 361 16 302 -18 231 -18 c 0
 212 -18 202 -16 189 -13 c 0
 181 -11 176 -15 173 -23 c 0
 159 -61 127 -148 116 -169 c 0
 111 -181 107 -182 100 -181 c 2
 85 -178 l 2
 80 -177 81 -172 82 -169 c 2
 84 -165 l 1
 144 -14 l 2
 148 -3 147 2 139 7 c 0
 84 43 48 114 48 190 c 0
 48 325 157 433 291 433 c 0
 303 433 308 432 320 431 c 1
 369 559 l 2
 371 563 374 566 382 565 c 0
 392 564 406 566 400 550 c 2
 351 425 l 1
 387 414 413 394 413 367 c 0
300 380 m 1
 287 390 273 394 257 394 c 0
 189 394 128 314 128 213 c 0
 128 162 143 116 172 82 c 0
 177 76 180 78 184 87 c 2
 300 380 l 1
EndSplineSet
EndChar
StartChar: sterling
Encoding: 163 163 151
Width: 796
Flags: W
HStem: -235 62<585.5 601> -234 21G<40 68> -88 46<238.5 335.5> 62 37<70 217 75 188> 580 119<586 747> 651 48<593.5 624>
VStem: 656 94<-102 -10> 685 65<-102 -96>
LayerCount: 2
Fore
SplineSet
776 618 m 0x76
 776 596 758 580 736 580 c 0xba
 717 580 704 591 692 603 c 0
 687 607 683 611 679 616 c 0
 661 634 641 651 607 651 c 0
 580 651 548 633 525 602 c 0
 499 568 477 528 443 442 c 0
 399 333 356 224 307 118 c 0
 303 109 302 100 312 99 c 0
 314 99 316 99 316 99 c 1
 448 100 l 2
 454 100 458 100 461 100 c 0
 471 100 472 97 470 87 c 2
 467 74 l 2
 466 68 461 60 444 60 c 2
 279 62 l 1
 253 10 233 -24 204 -62 c 1
 234 -48 268 -42 302 -42 c 0
 369 -42 418 -74 463 -107 c 0
 484 -123 506 -139 529 -152 c 0
 551 -165 573 -173 598 -173 c 0
 647 -173 685 -140 685 -101 c 0xb5
 685 -91 681 -78 669 -57 c 0
 660 -42 656 -34 656 -22 c 0
 656 2 674 20 697 20 c 0
 729 20 750 -14 750 -55 c 0
 750 -149 652 -235 550 -235 c 0xba
 515 -235 475 -224 444 -204 c 0
 430 -195 415 -183 399 -170 c 0
 384 -158 368 -144 352 -132 c 0
 320 -108 287 -88 251 -88 c 0
 226 -88 207 -94 175 -109 c 1
 172 -111 l 1
 136 -183 87 -234 49 -234 c 0
 31 -234 15 -221 15 -203 c 0
 15 -165 75 -111 138 -85 c 1
 162 -42 171 -23 192 32 c 2
 198 48 l 2
 200 52 197 62 188 62 c 2
 72 62 l 2
 68 62 60 61 57 63 c 0
 54 64 52 67 54 75 c 0
 57 90 56 99 75 99 c 2
 217 99 l 1
 242 165 265 234 292 302 c 0
 318 369 347 436 383 497 c 0
 439 593 525 699 647 699 c 0
 713 699 776 665 776 618 c 0x76
EndSplineSet
Validated: 1
EndChar
StartChar: currency
Encoding: 164 164 229
Width: 698
Flags: W
HStem: 87 21G<146 146 554 554> 104 66<318 380> 507 66<319.5 381 319.5 397.5> 571 20G<146 146 554 554>
VStem: 120 65<312.5 371> 517 66<304.5 367 304.5 385>
LayerCount: 2
Fore
SplineSet
600 133 m 1x5c
 554 87 l 1xac
 491 152 l 1
 438 113 411 104 349 104 c 0x6c
 287 104 260 113 212 152 c 1
 146 87 l 1
 101 133 l 1
 166 198 l 1
 128 256 120 283 120 342 c 0
 120 400 129 428 166 479 c 1
 101 544 l 1
 146 591 l 1x9c
 212 525 l 1
 261 564 289 573 350 573 c 0x6c
 412 573 439 564 491 525 c 1
 554 591 l 1
 600 544 l 1
 536 479 l 1
 573 426 583 398 583 336 c 0
 583 273 574 246 536 198 c 1
 600 133 l 1x5c
517 338 m 0
 517 432 443 507 352 507 c 0
 260 507 185 432 185 339 c 0
 185 245 258 170 349 170 c 0x6c
 442 170 517 245 517 338 c 0
EndSplineSet
Validated: 1
EndChar
StartChar: yen
Encoding: 165 165 164
Width: 523
Flags: W
HStem: -4 34<134 148 139 148 148 176.5 139 382> 350 51<12.5 17 17 19 12.5 171> 379 20G<142 146.5 372 377> 381 20G 492 50<11 14 14 88 88 90.5 11 118 241 245 245 326 437 512> 669 32 684 20G<4.5 7> 685 20G<224 228>
VStem: 214 97<126 291 291 291>
LayerCount: 2
Fore
SplineSet
528 674 m 0xcc80
 528 673 527 672 527 671 c 0
 526 670 523 669 519 669 c 0
 483 669 466 657 439 594 c 2
 421 552 l 2
 418 546 429 542 437 542 c 2
 512 542 l 2
 523 542 527 534 527 528 c 2
 527 508 l 2
 527 497 523 492 512 492 c 2
 409 492 l 2
 401 492 395 489 392 482 c 2
 361 414 l 2
 357 405 367 399 377 399 c 2xac80
 514 401 l 2
 521 399 527 397 527 388 c 2
 527 363 l 2
 527 354 520 349 507 349 c 2
 359 350 l 2
 351 350 345 350 339 349 c 0
 334 349 331 347 329 343 c 2
 311 302 l 1
 311 126 l 2
 311 42 322 31 372 31 c 2
 383 31 l 2
 393 31 398 26 398 18 c 2
 398 6 l 2
 398 -5 397 -5 382 -4 c 0
 308 0 190 -1 138 -4 c 0
 130 -4 124 0 125 6 c 2
 126 19 l 2
 127 27 130 30 139 30 c 2
 148 30 l 2
 205 30 214 37 214 126 c 2
 214 291 l 1
 192 340 l 2
 189 347 185 350 178 350 c 0
 176 350 173 350 171 350 c 2
 17 350 l 2
 8 350 -1 353 -1 366 c 2
 -1 390 l 2
 -1 400 6 401 19 401 c 2xcc80
 142 399 l 2
 151 399 166 401 161 414 c 2
 134 478 l 2
 130 487 126 492 118 492 c 2
 14 492 l 2
 5 492 -1 495 -1 506 c 2
 -1 529 l 2
 -1 541 2 542 11 542 c 2
 88 542 l 2
 93 542 105 548 102 554 c 2
 83 599 l 2
 61 652 44 667 7 669 c 0xac80
 1 669 0 672 -1 679 c 0
 -3 681 -3 685 -3 688 c 0
 -3 692 -2 694 -2 695 c 0
 -3 702 2 704 7 704 c 0xca80
 61 702 167 702 224 705 c 0xc980
 232 705 235 698 235 691 c 0
 236 688 238 683 235 679 c 0
 235 675 234 670 230 669 c 0
 229 669 228 669 227 669 c 0
 184 666 172 656 172 643 c 0
 172 640 175 631 181 616 c 2
 207 552 l 2
 210 545 224 542 233 542 c 2
 346 542 l 2
 353 542 362 546 365 554 c 2
 387 608 l 2
 394 626 397 637 397 644 c 0
 397 658 389 666 360 668 c 0
 354 669 339 671 339 681 c 2
 339 692 l 2
 339 698 341 701 347 701 c 0
 348 701 350 701 351 701 c 0
 394 699 477 699 518 702 c 0
 525 703 528 693 528 690 c 2
 528 678 l 2
 528 676 528 675 528 674 c 0xcc80
332 480 m 2
 335 488 334 492 326 492 c 2
 245 492 l 2
 237 492 233 490 237 481 c 2
 278 381 l 2x9c80
 281 374 288 372 293 383 c 2
 332 480 l 2
EndSplineSet
Validated: 33
EndChar
StartChar: brokenbar
Encoding: 166 166 19
Width: 534
Flags: MW
HStem: -22 21G<236 301 236 236> 840 20G<236 301 301 301>
VStem: 236 65<-22 358 479 860>
LayerCount: 2
Fore
SplineSet
301 479 m 1
 236 479 l 1
 236 860 l 1
 301 860 l 1
 301 479 l 1
301 -22 m 1
 236 -22 l 1
 236 358 l 1
 301 358 l 1
 301 -22 l 1
EndSplineSet
Validated: 1
EndChar
StartChar: section
Encoding: 167 167 152
Width: 491
Flags: W
HStem: -237 41<221.5 257 221.5 264.5> -237 116<96 264.5> 581 118<227 397.5> 656 43<236.5 276.5>
VStem: 53 119<399 598> 323 118<-139 33.5> 389 52<-5 33.5 -49.5 40.5>
LayerCount: 2
Fore
SplineSet
441 19 m 0x9c
 441 -118 329 -237 200 -237 c 0
 135 -237 67 -206 67 -165 c 0
 67 -144 85 -121 107 -121 c 0x6c
 130 -121 144 -142 157 -157 c 0
 180 -182 209 -196 234 -196 c 0
 280 -196 323 -158 323 -120 c 0
 323 -91 309 -58 265 3 c 0
 211 78 158 154 112 235 c 0
 73 304 53 368 53 430 c 0
 53 576 162 699 292 699 c 0
 329 699 430 676 430 625 c 0
 430 602 409 581 386 581 c 0xac
 367 581 354 593 342 605 c 0
 337 609 333 614 329 618 c 0
 311 637 292 656 261 656 c 0
 212 656 172 620 172 576 c 0
 172 530 242 439 269 401 c 0
 379 245 410 191 430 117 c 0
 438 86 441 48 441 19 c 0x9c
389 9 m 0xaa
 389 72 375 123 353 170 c 0
 341 194 328 217 313 240 c 0
 298 263 282 287 265 312 c 0
 247 338 220 378 194 419 c 0
 168 459 144 501 134 532 c 0
 131 543 128 545 126 543 c 0
 123 541 121 535 120 532 c 0
 88 448 105 363 145 284 c 0
 197 183 271 95 327 -5 c 0
 345 -37 354 -54 360 -72 c 0
 362 -78 365 -79 368 -77 c 0
 372 -75 375 -71 377 -66 c 0
 386 -43 389 -19 389 9 c 0xaa
EndSplineSet
EndChar
StartChar: dieresis
Encoding: 168 168 160
Width: 348
Flags: MW
HStem: 481 120<69.5 102.5 246.5 280>
VStem: 26 120<524 557.5> 203 121<524.5 557.5>
LayerCount: 2
Fore
SplineSet
324 541 m 0
 324 508 297 481 263 481 c 0
 230 481 203 508 203 541 c 0
 203 574 230 601 263 601 c 0
 297 601 324 574 324 541 c 0
146 541 m 0
 146 507 119 481 86 481 c 0
 53 481 26 507 26 541 c 0
 26 574 53 601 86 601 c 0
 119 601 146 574 146 541 c 0
EndSplineSet
Validated: 1
EndChar
StartChar: copyright
Encoding: 169 169 157
Width: 796
Flags: MW
HStem: -13 42<312.5 487.5 312.5 498.5> 117 42<369 442.5> 411 20G<563.5 566 566 582> 549 34<367.5 436.5 348 447.5> 667 42<312.5 487.5>
VStem: 42 42<260 436.5 260 447.5> 166 94<294.5 413> 716 42<260 436.5>
LayerCount: 2
Fore
SplineSet
758 348 m 0
 758 149 597 -13 400 -13 c 0
 203 -13 42 149 42 348 c 0
 42 547 203 709 400 709 c 0
 597 709 758 548 758 348 c 0
716 348 m 0
 716 525 575 667 400 667 c 0
 225 667 84 525 84 348 c 0
 84 172 225 29 400 29 c 0
 575 29 716 172 716 348 c 0
594 216 m 0
 544 149 483 117 402 117 c 0
 269 117 166 216 166 345 c 0
 166 481 276 583 420 583 c 0
 453 583 463 581 513 564 c 0
 522 561 527 560 530 560 c 0
 538 560 542 562 550 583 c 1
 570 583 l 2
 575 583 579 581 580 572 c 2
 589 455 l 2
 589 450 590 443 589 438 c 0
 589 434 587 431 582 431 c 2
 566 431 l 2
 561 431 559 433 558 437 c 0
 556 440 556 445 553 451 c 0
 528 517 481 549 414 549 c 0
 321 549 260 478 260 360 c 0
 260 229 319 159 419 159 c 0
 479 159 526 181 565 232 c 0
 569 237 572 242 579 238 c 2
 594 230 l 2
 600 227 598 221 594 216 c 0
EndSplineSet
EndChar
StartChar: ordfeminine
Encoding: 170 170 166
Width: 272
Flags: MW
HStem: 402 33<70 119> 645 29<121.5 132>
VStem: 23 55<458 475.5 458 476> 162 56<473 499 499 522 522 522 547 582>
LayerCount: 2
Fore
SplineSet
272 441 m 1
 244 418 216 402 200 402 c 0
 180 402 168 415 164 436 c 1
 161 434 159 432 156 430 c 0
 129 409 114 402 89 402 c 0
 51 402 23 425 23 460 c 0
 23 492 49 512 94 522 c 0
 119 528 139 535 162 547 c 1
 162 594 l 2
 162 628 146 645 118 645 c 0
 109 645 100 642 91 635 c 0
 85 628 83 625 83 621 c 0
 83 619 84 617 87 605 c 1
 32 580 l 1
 28 591 27 594 27 597 c 0
 27 613 45 632 70 650 c 0
 94 668 111 674 132 674 c 0
 193 674 218 648 218 582 c 2
 218 499 l 1
 218 471 l 2
 218 447 223 444 231 444 c 0
 238 444 244 446 265 460 c 1
 272 441 l 1
162 473 m 2
 162 522 l 1
 155 519 146 515 130 509 c 0
 82 490 78 484 78 467 c 0
 78 449 92 435 111 435 c 0
 127 435 162 457 162 473 c 2
EndSplineSet
EndChar
StartChar: guillemotleft
Encoding: 171 171 174
Width: 371
Flags: W
HStem: 33 21G<187 218 187 187> 393 20G<302 330 330 330> 410 20G<187 218 218 218>
LayerCount: 2
Fore
SplineSet
331 51 m 1xc0
 302 51 l 1
 177 230 l 1
 302 413 l 1
 330 413 l 1
 263 230 l 1
 331 51 l 1xc0
218 33 m 1
 187 33 l 1
 31 230 l 1
 187 430 l 1
 218 430 l 1xa0
 117 230 l 1
 117 231 l 1
 218 33 l 1
EndSplineSet
EndChar
StartChar: logicalnot
Encoding: 172 172 172
Width: 698
Flags: MW
HStem: 182 21G<564 630 564 564> 430 67<71 564 71 630>
VStem: 564 66<182 430 430 430>
LayerCount: 2
Fore
SplineSet
630 182 m 1
 564 182 l 1
 564 430 l 1
 71 430 l 1
 71 497 l 1
 630 497 l 1
 630 182 l 1
EndSplineSet
EndChar
StartChar: registered
Encoding: 174 174 156
Width: 796
Flags: MW
HStem: -20 43<306.5 485 306.5 496.5> 122 30<203 204 200.5 377 382 385> 543 34<359 394> 673 44<306.5 485>
VStem: 31 43<258 438 258 450> 245 84<216 312 369 373 373 484 484 512> 462 93<429 477.5> 719 42<258 438>
LayerCount: 2
Fore
SplineSet
761 348 m 0
 761 145 597 -20 396 -20 c 0
 194 -20 31 145 31 348 c 0
 31 552 194 717 396 717 c 0
 597 717 761 552 761 348 c 0
719 348 m 0
 719 528 574 673 396 673 c 0
 217 673 74 528 74 348 c 0
 74 168 217 23 396 23 c 0
 574 23 719 168 719 348 c 0
610 131 m 2
 610 122 606 122 598 122 c 0
 572 123 538 123 517 122 c 0
 510 122 506 125 503 129 c 2
 358 330 l 1
 339 330 l 2
 332 330 329 322 329 312 c 2
 329 215 l 1
 329 177 l 2
 329 162 339 153 382 152 c 0
 388 152 389 151 389 142 c 2
 389 131 l 2
 389 128 389 127 389 125 c 0
 389 122 387 122 385 122 c 0
 383 122 380 122 377 122 c 0
 325 125 247 125 204 122 c 0
 202 122 192 122 192 130 c 2
 192 144 l 2
 192 149 197 152 204 152 c 0
 241 153 245 161 245 216 c 2
 245 484 l 2
 245 540 241 546 208 548 c 0
 202 548 198 550 198 557 c 2
 198 566 l 2
 198 569 197 573 199 575 c 0
 201 577 204 577 212 577 c 0
 256 574 351 577 399 577 c 0
 490 578 555 530 555 457 c 0
 555 401 521 364 456 342 c 0
 450 341 449 336 453 330 c 2
 548 194 l 2
 570 163 581 154 604 152 c 0
 608 152 610 151 610 150 c 0
 610 149 610 148 610 146 c 0
 610 145 610 143 610 141 c 2
 610 131 l 2
462 451 m 0
 462 504 422 543 366 543 c 0
 352 543 345 542 329 537 c 1
 329 373 l 2
 329 365 330 363 339 363 c 0
 419 363 462 397 462 451 c 0
EndSplineSet
EndChar
StartChar: macron
Encoding: 175 175 221
Width: 349
Flags: MW
HStem: 500 75<18.5 40 30 40 40 318>
LayerCount: 2
Fore
SplineSet
341 515 m 2
 341 502 333 500 318 500 c 2
 26 500 l 2
 11 500 9 508 9 519 c 2
 9 564 l 2
 9 574 22 575 30 575 c 0
 33 575 37 575 40 575 c 2
 321 575 l 2
 335 575 341 573 341 559 c 2
 341 515 l 2
EndSplineSet
Validated: 1
EndChar
StartChar: degree
Encoding: 176 176 149
Width: 415
Flags: MW
HStem: 352 55<179 237.5 179 252.5> 622 55<179 237.5>
VStem: 48 54<484.5 544 484.5 559> 315 54<484.5 544>
LayerCount: 2
Fore
SplineSet
369 514 m 0
 369 425 297 352 208 352 c 0
 119 352 48 425 48 514 c 0
 48 604 119 677 208 677 c 0
 297 677 369 604 369 514 c 0
315 514 m 0
 315 574 267 622 208 622 c 0
 150 622 102 574 102 514 c 0
 102 455 150 407 208 407 c 0
 267 407 315 455 315 514 c 0
EndSplineSet
EndChar
StartChar: plusminus
Encoding: 177 177 163
Width: 698
Flags: W
HStem: -26 68<91.5 154> -25 21G 389 66<88 92 92 302 302 303 393 398 398 606> 684 20G<330 369 369 375>
VStem: 317 66<147 162 162 376 376 378 469 668 668 670.5>
LayerCount: 2
Fore
SplineSet
630 407 m 2x78
 630 389 624 389 606 389 c 2
 398 389 l 2
 395 389 392 389 390 389 c 0
 388 389 387 389 386 388 c 0
 384 387 383 385 383 378 c 2
 383 162 l 2
 383 142 382 142 362 142 c 0
 352 139 340 139 332 142 c 0
 323 142 319 143 317 147 c 0
 317 148 316 151 316 153 c 0
 316 156 317 159 317 162 c 2
 317 376 l 2
 317 387 314 389 303 389 c 2
 92 389 l 2
 75 389 71 390 71 408 c 2
 71 435 l 2
 71 439 71 442 71 445 c 0
 71 447 71 449 72 451 c 0
 74 454 78 455 88 455 c 2
 302 455 l 2
 315 455 317 457 317 469 c 2
 317 668 l 2
 317 673 316 677 316 681 c 0
 316 691 317 704 330 704 c 2
 369 704 l 2
 381 704 383 703 383 682 c 2
 383 466 l 2
 382 460 385 455 393 455 c 2
 609 455 l 2
 628 455 630 451 630 438 c 2
 630 407 l 2x78
630 -4 m 2
 630 -14 626 -20 620 -22 c 0
 614 -25 603 -25 596 -25 c 0x78
 482 -26 210 -26 98 -26 c 0
 85 -26 78 -25 74 -21 c 0
 73 -19 72 -16 71 -13 c 0
 71 -10 71 -6 71 -1 c 2
 71 21 l 2
 71 36 72 43 90 42 c 0
 124 39 435 39 610 42 c 0xb8
 626 42 630 38 630 22 c 2
 630 -4 l 2
EndSplineSet
EndChar
StartChar: twosuperior
Encoding: 178 178 18
Width: 300
Flags: MW
HStem: 301 54<108 194 194 198.5 108 251> 375 20G<255 262 260.5 266.5> 595 51<112.5 148>
VStem: 193 75<514 554.5>
LayerCount: 2
Fore
SplineSet
280 389 m 2
 280 389 267 308 266 308 c 2
 267 308 l 1
 265 303 256 301 251 301 c 2
 19 301 l 2
 14 301 9 302 9 309 c 2
 9 324 l 1
 25 343 49 367 91 403 c 0
 130 436 193 484 193 539 c 0
 193 570 166 595 130 595 c 0
 95 595 64 571 50 529 c 0
 47 523 15 522 15 531 c 0
 22 603 76 646 146 646 c 0
 213 646 268 605 268 546 c 0
 268 482 214 450 169 419 c 0
 145 403 124 387 95 361 c 0
 92 359 94 358 97 357 c 0
 100 356 105 355 108 355 c 2
 194 355 l 2
 203 355 225 354 232 359 c 0
 234 361 236 364 238 368 c 0
 239 373 241 380 243 390 c 0
 244 396 251 395 255 395 c 0
 257 395 259 395 262 395 c 0
 271 395 280 393 280 389 c 2
EndSplineSet
Validated: 33
EndChar
StartChar: threesuperior
Encoding: 179 179 17
Width: 300
Flags: W
HStem: 294 36<116.5 141 116.5 143.5> 294 76<25.5 143.5> 470 176<138 156.5> 598 48<113.5 132.5>
VStem: 163 66<568 572.5> 193 71<388.5 428>
LayerCount: 2
Fore
SplineSet
264 424 m 0xa4
 264 353 185 294 102 294 c 0
 56 294 2 311 2 341 c 0
 2 358 17 370 34 370 c 0x64
 52 370 69 355 83 346 c 0
 101 333 110 330 123 330 c 0
 159 330 193 366 193 411 c 0
 193 445 169 470 144 470 c 0xa4
 132 470 124 468 109 457 c 0
 102 453 90 451 82 463 c 0
 79 468 82 480 87 483 c 0
 138 516 163 545 163 563 c 0
 163 582 145 598 120 598 c 0
 95 598 69 582 50 548 c 0
 36 529 13 551 16 561 c 0
 41 615 87 646 140 646 c 0
 188 646 229 620 229 579 c 0x98
 229 557 218 538 196 521 c 0
 190 516 192 514 197 512 c 0
 238 499 264 467 264 424 c 0xa4
EndSplineSet
EndChar
StartChar: acute
Encoding: 180 180 159
Width: 349
Flags: MW
HStem: 641 20G<186 274 274 274>
LayerCount: 2
Fore
SplineSet
288 652 m 0
 288 650 287 648 287 647 c 2
 144 475 l 2
 138 468 113 468 118 484 c 2
 167 648 l 2
 171 656 179 661 186 661 c 2
 274 661 l 2
 281 662 290 660 288 652 c 0
EndSplineSet
EndChar
StartChar: mu
Encoding: 181 181 165
Width: 524
Flags: W
HStem: -232 21G<61.5 92.5> -20 75 455 20G<88 114 114 118 359 359> 456 20G<134 136.5 406 412>
VStem: 27 103<-185.5 -161 -185.5 -161> 59 94<124.5 163 163 196 196 432> 332 95<134 436>
LayerCount: 2
Fore
SplineSet
524 110 m 1xda
 518 25 483 -20 417 -20 c 0
 373 -20 347 5 336 54 c 0
 335 62 331 68 323 58 c 0
 290 21 270 6 232 -9 c 0
 195 -24 142 -28 113 8 c 1
 111 10 l 2
 110 11 108 14 107 13 c 0
 107 12 106 10 106 7 c 0
 106 -26 109 -47 123 -115 c 0
 127 -136 130 -154 130 -168 c 0
 130 -203 108 -232 77 -232 c 0
 46 -232 27 -205 27 -169 c 0xda
 27 -153 29 -135 34 -115 c 2
 50 -52 l 2
 55 -33 58 24 59 64 c 0
 60 159 61 355 59 439 c 0
 58 471 63 475 88 475 c 2
 114 475 l 2xe6
 122 475 129 475 134 476 c 0xda
 139 476 142 476 145 475 c 0
 151 471 152 460 153 432 c 0
 155 373 153 255 153 196 c 2
 153 163 l 2
 153 86 176 55 220 55 c 0
 256 55 293 76 332 120 c 1
 335 199 335 354 332 436 c 0
 331 468 333 474 359 475 c 2xe6
 406 476 l 2
 418 476 424 474 426 468 c 0
 427 465 427 461 427 456 c 0
 428 452 427 446 427 440 c 2
 427 134 l 1
 426 110 l 1
 426 106 l 2
 426 66 440 47 457 47 c 0
 472 47 485 64 492 110 c 1
 524 110 l 1xda
EndSplineSet
Validated: 33
EndChar
StartChar: paragraph
Encoding: 182 182 154
Width: 469
Flags: MW
HStem: -249 21G<239 246 246 267 376 380 380 396> 615 45<224 295 224 346>
VStem: 231 51 363 50<-240.5 -234>
LayerCount: 2
Fore
SplineSet
481 629 m 2
 481 618 473 617 464 617 c 2
 426 617 l 2
 414 617 413 608 413 599 c 2
 413 -233 l 2
 413 -248 412 -249 396 -249 c 2
 380 -249 l 2
 372 -249 363 -247 363 -234 c 2
 364 599 l 2
 364 609 360 615 346 615 c 2
 295 615 l 2
 284 615 282 609 282 601 c 2
 283 -237 l 2
 283 -247 278 -249 267 -249 c 2
 246 -249 l 2
 232 -249 231 -245 231 -233 c 2
 231 245 l 2
 231 256 227 260 213 260 c 0
 106 262 48 296 14 360 c 0
 -2 390 -9 423 -9 459 c 0
 -9 585 79 659 224 660 c 0
 286 660 409 658 463 661 c 0
 475 662 481 655 481 647 c 2
 481 629 l 2
EndSplineSet
Validated: 33
EndChar
StartChar: periodcentered
Encoding: 183 183 199
Width: 257
Flags: MW
HStem: 227 108<114.5 144>
VStem: 76 106<266.5 296>
LayerCount: 2
Fore
SplineSet
182 281 m 0
 182 252 159 227 129 227 c 0
 100 227 76 252 76 281 c 0
 76 311 100 335 129 335 c 0
 159 335 182 311 182 281 c 0
EndSplineSet
Validated: 1
EndChar
StartChar: cedilla
Encoding: 184 184 225
Width: 349
Flags: MW
HStem: -224 30<156.5 166 149.5 189> -194 83<149.5 183> -10 20G<186 214 214 214>
VStem: 202 55<-156 -136>
LayerCount: 2
Fore
SplineSet
257 -130 m 0xf0
 257 -182 215 -224 163 -224 c 0
 150 -224 137 -223 121 -217 c 0
 111 -213 113 -208 117 -202 c 0
 118 -200 119 -197 121 -195 c 0
 122 -192 127 -190 130 -191 c 0
 140 -193 147 -194 152 -194 c 0
 180 -194 202 -172 202 -147 c 0
 202 -125 192 -111 174 -111 c 0
 161 -111 148 -117 111 -136 c 0
 106 -138 98 -138 103 -130 c 2
 186 10 l 1
 214 10 l 1
 186 -42 l 2
 184 -46 184 -47 184 -48 c 0
 185 -49 188 -49 190 -50 c 0
 228 -55 257 -88 257 -130 c 0xf0
EndSplineSet
Validated: 8388609
EndChar
StartChar: onesuperior
Encoding: 185 185 15
Width: 300
Flags: MW
HStem: 299 21G<77.5 80 80 241>
VStem: 127 66<560 560.5>
LayerCount: 2
Fore
SplineSet
248 315 m 0
 248 307 245 299 241 299 c 0
 189 301 131 301 80 299 c 0
 75 299 72 308 72 315 c 0
 72 322 75 331 80 331 c 2
 109 334 l 2
 124 336 128 338 128 352 c 2
 127 560 l 2
 127 561 127 568 125 567 c 0
 114 560 104 555 94 550 c 0
 85 546 75 542 64 538 c 0
 50 537 43 554 49 561 c 0
 89 585 131 618 151 642 c 0
 154 646 193 647 193 639 c 2
 193 353 l 2
 193 349 193 342 195 339 c 0
 197 336 200 335 207 334 c 0
 212 334 218 334 223 335 c 0
 237 335 247 335 248 315 c 0
EndSplineSet
Validated: 33
EndChar
StartChar: ordmasculine
Encoding: 186 186 167
Width: 360
Flags: MW
HStem: 402 27<163.5 212.5 163.5 223.5> 648 26<148.5 197>
VStem: 31 61<520.5 577> 269 62<499.5 558>
LayerCount: 2
Fore
SplineSet
331 538 m 0
 331 461 265 402 182 402 c 0
 96 402 31 460 31 538 c 0
 31 616 95 674 180 674 c 0
 265 674 331 616 331 538 c 0
269 523 m 0
 269 593 223 648 171 648 c 0
 126 648 92 610 92 557 c 0
 92 484 137 429 190 429 c 0
 235 429 269 468 269 523 c 0
EndSplineSet
Validated: 1
EndChar
StartChar: guillemotright
Encoding: 187 187 175
Width: 371
Flags: W
HStem: 33 21G<154 185 154 154> 393 20G<42 72 72 72> 410 20G<154 185 185 185>
LayerCount: 2
Fore
SplineSet
342 230 m 1xa0
 185 33 l 1
 154 33 l 1
 255 231 l 1
 255 230 l 1
 154 430 l 1
 185 430 l 1
 342 230 l 1xa0
195 230 m 1
 72 51 l 1
 42 51 l 1
 109 230 l 1
 42 413 l 1
 72 413 l 1xc0
 195 230 l 1
EndSplineSet
EndChar
StartChar: onequarter
Encoding: 188 188 14
Width: 715
Flags: MW
HStem: -34 21G<99.5 104 104 136> 86 47<494 555 494 555 644 681> 298 35<210 225 210 243> 640 20G<578 582 582 623 623 625>
VStem: 128 67<351 352 352 559 559 559.5> 566 67<-7 -4 234 236>
LayerCount: 2
Fore
SplineSet
696 99 m 0
 695 96 695 94 694 92 c 0
 693 88 689 86 681 86 c 2
 644 86 l 2
 639 85 634 81 633 78 c 2
 633 -4 l 2
 633 -8 631 -17 625 -17 c 0
 618 -17 610 -17 601 -17 c 0
 593 -17 585 -17 580 -15 c 0
 574 -14 567 -12 566 -7 c 2
 567 77 l 2
 565 83 559 85 555 86 c 2
 432 86 l 2
 428 86 418 86 418 92 c 2
 418 94 l 1
 418 96 l 1
 418 112 l 1
 595 338 l 1
 605 341 612 343 624 340 c 0
 629 339 634 335 633 328 c 2
 633 138 l 2
 633 134 637 133 644 133 c 2
 683 133 l 2
 694 133 695 124 695 116 c 0
 695 114 695 111 695 108 c 0
 695 105 696 101 696 99 c 0
624 645 m 2
 150 -26 l 2
 147 -31 142 -34 136 -34 c 2
 104 -34 l 2
 95 -34 92 -22 97 -15 c 2
 570 654 l 1
 572 658 l 2
 574 660 575 660 578 660 c 2
 582 660 l 1
 623 660 l 2
 627 660 629 653 624 645 c 2
250 314 m 0
 250 305 247 298 243 298 c 0
 190 300 132 300 81 298 c 0
 75 298 72 306 72 314 c 0
 73 321 76 330 80 330 c 2
 111 332 l 2
 126 333 128 337 128 351 c 2
 128 559 l 2
 128 560 128 568 126 566 c 0
 115 559 105 554 95 550 c 0
 85 546 75 542 64 537 c 1
 50 537 43 553 49 561 c 0
 89 585 132 618 152 642 c 0
 155 646 195 647 195 639 c 2
 195 352 l 2
 195 338 196 334 210 333 c 0
 215 333 220 333 225 333 c 0
 240 334 250 333 250 314 c 0
567 138 m 2
 567 222 l 2
 567 225 567 230 566 234 c 0
 566 238 565 239 562 236 c 2
 490 141 l 2
 488 138 489 133 494 133 c 2
 555 133 l 2
 562 133 567 135 567 138 c 2
EndSplineSet
Validated: 33
EndChar
StartChar: onehalf
Encoding: 189 189 13
Width: 715
Flags: MW
HStem: -34 21G<97 103 103 130 130 137> -7 54<526 612 612 616.5 526 669> 288 51<530 566> 640 20G<580 586 586 620 620 622>
VStem: 128 67<351 352 352 549 549 551.5> 610 76<206 247>
LayerCount: 2
Fore
SplineSet
698 81 m 2
 698 81 685 0 684 0 c 2
 685 0 l 1
 683 -5 674 -7 669 -7 c 2
 437 -7 l 2
 431 -7 426 -6 426 1 c 2
 426 16 l 1
 442 35 466 59 509 95 c 0
 548 128 610 176 610 231 c 0
 610 263 584 288 548 288 c 0
 512 288 482 264 468 222 c 0
 465 216 433 214 433 223 c 0
 440 295 494 339 564 339 c 0
 631 339 686 297 686 238 c 0
 686 174 632 143 587 111 c 0
 563 95 542 79 513 54 c 0
 510 52 511 50 515 49 c 0
 518 48 523 47 526 47 c 2
 612 47 l 2
 621 47 643 46 650 51 c 0
 652 53 654 56 656 61 c 0
 657 65 659 72 661 82 c 0
 662 88 669 88 673 88 c 0
 675 88 677 87 680 88 c 0
 689 88 698 85 698 81 c 2
624 645 m 2
 150 -26 l 2
 146 -32 143 -33 137 -34 c 0
 135 -34 133 -34 130 -34 c 2
 103 -34 l 2
 91 -34 92 -22 94 -20 c 2
 570 654 l 2
 573 658 575 660 580 660 c 0
 582 660 584 660 586 660 c 2
 620 660 l 2
 624 660 629 653 624 645 c 2
250 314 m 0
 251 305 247 298 243 298 c 0
 190 300 132 300 81 298 c 0
 75 298 72 306 72 314 c 0
 73 321 76 330 80 330 c 2
 119 332 l 2
 130 333 128 343 128 351 c 2
 128 549 l 2
 128 554 127 567 117 562 c 0
 108 556 103 554 95 550 c 0
 85 546 75 542 64 537 c 1
 50 537 43 553 49 561 c 0
 89 585 132 618 152 642 c 0
 155 645 175 646 187 644 c 0
 194 643 195 634 195 628 c 2
 195 352 l 2
 195 338 197 333 211 332 c 0
 216 332 221 332 226 332 c 0
 241 333 250 333 250 314 c 0
EndSplineSet
EndChar
StartChar: threequarters
Encoding: 190 190 16
Width: 715
Flags: W
HStem: -35 21G<131 136> -34 21G<98.5 104> 86 47<465 527 615 655 655 658> 291 36<132 156 132 159.5> 291 76<41.5 159.5> 467 176<153.5 172> 595 48<128.5 148> 640 20G<593 614 614 618>
VStem: 178 67<565 569.5> 208 71<385 424.5> 539 66<77 78 138 232 232 233>
LayerCount: 2
Fore
SplineSet
669 109 m 0x71a0
 669 104 667 86 660 86 c 2
 615 86 l 2
 611 85 606 81 605 78 c 2
 606 -4 l 2
 605 -8 602 -17 596 -17 c 0
 590 -17 581 -17 571 -17 c 0
 562 -17 554 -17 548 -15 c 0
 542 -14 539 -12 538 -7 c 2
 539 77 l 2
 536 84 534 85 527 86 c 2
 404 86 l 2
 399 86 389 90 390 96 c 2
 390 97 l 1
 390 98 l 1
 390 112 l 1
 567 338 l 1
 577 341 583 343 595 340 c 0
 601 339 606 335 605 328 c 2
 605 138 l 2
 605 134 609 133 615 133 c 2
 655 133 l 2
 661 133 665 128 666 125 c 0
 668 120 669 114 669 109 c 0x71a0
621 641 m 2
 150 -26 l 2
 143 -35 141 -35 131 -35 c 2xb460
 104 -34 l 2
 93 -34 94 -20 96 -18 c 2
 570 654 l 2
 575 661 585 660 593 660 c 2
 614 660 l 2
 622 660 626 648 621 641 c 2
279 420 m 0
 279 349 201 291 118 291 c 0
 71 291 17 308 17 338 c 0
 17 354 33 367 50 367 c 0x6c60
 68 367 85 352 99 342 c 0
 116 330 126 327 138 327 c 0
 174 327 208 363 208 407 c 0
 208 442 185 467 159 467 c 0x7460
 148 467 139 465 124 454 c 0
 120 450 112 447 107 452 c 0
 103 456 100 461 98 465 c 0
 95 471 97 477 102 480 c 0
 154 513 178 542 178 560 c 0
 178 579 161 595 135 595 c 0
 111 595 84 579 66 544 c 0
 61 539 26 544 32 558 c 0
 55 612 102 643 155 643 c 0
 203 643 245 617 245 576 c 0x72a0
 245 554 233 535 212 517 c 0
 206 513 207 510 213 509 c 0
 254 496 279 464 279 420 c 0
539 138 m 2
 539 232 l 2
 539 234 539 238 538 239 c 0
 537 241 534 237 534 236 c 2
 462 141 l 2
 459 138 461 133 465 133 c 2
 529 133 l 2
 535 133 539 135 539 138 c 2
EndSplineSet
EndChar
StartChar: questiondown
Encoding: 191 191 170
Width: 371
Flags: W
HStem: -249 98<241 252> 322 112<190 223.5>
VStem: 40 36<-98.5 -45.5 -98.5 -24> 148 118<362.5 394.5> 225 41
LayerCount: 2
Fore
SplineSet
266 379 m 0xf0
 266 346 240 322 207 322 c 0
 173 322 148 346 148 379 c 0
 148 410 173 434 207 434 c 0
 240 434 266 411 266 379 c 0xf0
320 -194 m 0
 320 -232 280 -249 224 -249 c 0
 115 -249 40 -170 40 -56 c 0
 40 8 64 59 111 92 c 0
 134 108 145 113 183 127 c 0
 215 139 225 151 225 170 c 0xe8
 225 190 221 201 186 241 c 0
 178 250 186 255 188 256 c 0
 197 260 214 257 219 249 c 0
 255 205 271 171 271 137 c 0
 271 88 248 63 191 41 c 0
 101 7 76 -19 76 -72 c 0
 76 -125 112 -158 176 -158 c 0
 205 -158 228 -151 254 -151 c 0
 294 -151 320 -164 320 -194 c 0
EndSplineSet
Validated: 33
EndChar
StartChar: Aacute
Encoding: 193 193 205
Width: 711
Flags: W
HStem: -3 33 283 57<243.5 394 273 394 394 397 273 406> 864 20G<361.5 365> 865 20G<453 456.5>
LayerCount: 2
Fore
SplineSet
467 875 m 0xd0
 467 873 467 871 466 870 c 2
 323 698 l 2
 317 691 292 691 297 707 c 2
 347 871 l 2
 349 879 358 884 365 884 c 2xe0
 453 885 l 2
 460 885 469 883 467 875 c 0xd0
682 -4 m 0
 617 -1 485 -1 414 -3 c 0
 408 -3 405 -1 403 5 c 0
 402 8 402 13 402 17 c 0
 402 32 409 33 420 33 c 0
 439 33 455 32 466 33 c 0
 507 35 516 50 502 87 c 0
 478 151 458 206 434 270 c 0
 431 278 415 284 406 283 c 0
 366 281 289 282 250 283 c 0
 237 283 235 274 229 266 c 0
 214 218 182 133 165 93 c 0
 160 81 157 68 157 59 c 0
 157 42 171 33 214 32 c 0
 229 31 235 35 251 33 c 0
 256 32 258 22 258 14 c 0
 257 6 254 -3 250 -3 c 0
 191 -2 88 0 34 -3 c 0
 30 -3 27 -3 23 -3 c 0
 11 -1 12 18 14 27 c 0
 15 32 19 33 23 33 c 0
 43 33 67 32 81 48 c 0
 88 56 94 70 101 86 c 0
 107 101 113 116 117 127 c 2
 305 638 l 1
 298 664 l 2
 295 674 330 672 335 672 c 0
 348 672 379 674 387 662 c 0
 505 351 552 225 574 167 c 0
 584 141 593 115 602 89 c 0
 619 43 629 30 675 30 c 2
 682 30 l 2
 694 30 695 -5 682 -4 c 0
402 355 m 0
 386 399 356 488 341 537 c 0
 339 544 331 547 328 540 c 0
 312 489 278 399 261 355 c 0
 259 345 266 343 273 340 c 0
 305 339 365 339 394 340 c 0
 400 340 405 347 402 355 c 0
EndSplineSet
Validated: 33
EndChar
StartChar: Atilde
Encoding: 195 195 179
Width: 711
Flags: W
HStem: -3 33 283 57<243.5 394 273 394 394 397 273 406> 697 71<431 434> 765 70<249.5 255.5> 820 20G<487 490>
LayerCount: 2
Fore
SplineSet
682 -4 m 0xe8
 617 -1 485 -1 414 -3 c 0
 408 -3 405 -1 403 5 c 0
 402 8 402 13 402 17 c 0
 402 32 409 33 420 33 c 0
 439 33 455 32 466 33 c 0
 507 35 516 50 502 87 c 0
 478 151 458 206 434 270 c 0
 431 278 415 284 406 283 c 0
 366 281 289 282 250 283 c 0
 237 283 235 274 229 266 c 0
 214 218 182 133 165 93 c 0
 160 81 157 68 157 59 c 0
 157 42 171 33 214 32 c 0
 229 31 235 35 251 33 c 0
 256 32 258 22 258 14 c 0
 257 6 254 -3 250 -3 c 0
 191 -2 88 0 34 -3 c 0
 30 -3 27 -3 23 -3 c 0
 11 -1 12 18 14 27 c 0
 15 32 19 33 23 33 c 0
 43 33 67 32 81 48 c 0
 88 56 94 70 101 86 c 0
 107 101 113 116 117 127 c 2
 305 638 l 1
 298 664 l 2
 295 674 330 672 335 672 c 0
 348 672 379 674 387 662 c 0
 505 351 552 225 574 167 c 0
 584 141 593 115 602 89 c 0
 619 43 629 30 675 30 c 2
 682 30 l 2
 694 30 695 -5 682 -4 c 0xe8
402 355 m 0
 386 399 356 488 341 537 c 0
 339 544 331 547 328 540 c 0
 312 489 278 399 261 355 c 0
 259 345 266 343 273 340 c 0
 305 339 365 339 394 340 c 0
 400 340 405 347 402 355 c 0
504 821 m 0
 504 750 463 697 405 697 c 0xe8
 378 697 346 710 308 736 c 0
 271 762 262 765 249 765 c 0
 230 765 220 754 212 718 c 0
 212 714 210 710 209 700 c 0
 205 692 184 687 182 700 c 0
 186 786 219 835 280 835 c 0xd0
 310 835 333 826 378 795 c 0
 409 774 425 768 437 768 c 0
 458 768 469 780 477 834 c 0
 477 838 484 840 490 840 c 0
 496 841 502 838 502 834 c 0
 504 828 504 824 504 821 c 0
EndSplineSet
Validated: 33
EndChar
StartChar: Adieresis
Encoding: 196 196 116
Width: 711
Flags: MW
HStem: -3 33 283 57<243.5 394 273 394 394 397 273 406> 704 120<249.5 282.5 426.5 460.5>
VStem: 206 121<747 780.5> 383 121<747.5 780.5>
LayerCount: 2
Fore
SplineSet
504 764 m 0
 504 731 478 704 443 704 c 0
 410 704 383 731 383 764 c 0
 383 797 410 824 443 824 c 0
 478 824 504 797 504 764 c 0
327 764 m 0
 327 730 299 704 266 704 c 0
 233 704 206 730 206 764 c 0
 206 797 233 824 266 824 c 0
 299 824 327 797 327 764 c 0
682 -4 m 0
 617 -1 485 -1 414 -3 c 0
 408 -3 405 -1 403 5 c 0
 402 8 402 13 402 17 c 0
 402 32 409 33 420 33 c 0
 439 33 455 32 466 33 c 0
 507 35 516 50 502 87 c 0
 478 151 458 206 434 270 c 0
 431 278 415 284 406 283 c 0
 366 281 289 282 250 283 c 0
 237 283 235 274 229 266 c 0
 214 218 182 133 165 93 c 0
 160 81 157 68 157 59 c 0
 157 42 171 33 214 32 c 0
 229 31 235 35 251 33 c 0
 256 32 258 22 258 14 c 0
 257 6 254 -3 250 -3 c 0
 191 -2 88 0 34 -3 c 0
 30 -3 27 -3 23 -3 c 0
 11 -1 12 18 14 27 c 0
 15 32 19 33 23 33 c 0
 43 33 67 32 81 48 c 0
 88 56 94 70 101 86 c 0
 107 101 113 116 117 127 c 2
 305 638 l 1
 298 664 l 2
 295 674 330 672 335 672 c 0
 348 672 379 674 387 662 c 0
 505 351 552 225 574 167 c 0
 584 141 593 115 602 89 c 0
 619 43 629 30 675 30 c 2
 682 30 l 2
 694 30 695 -5 682 -4 c 0
402 355 m 0
 386 399 356 488 341 537 c 0
 339 544 331 547 328 540 c 0
 312 489 278 399 261 355 c 0
 259 345 266 343 273 340 c 0
 305 339 365 339 394 340 c 0
 400 340 405 347 402 355 c 0
EndSplineSet
Validated: 33
EndChar
StartChar: Aring
Encoding: 197 197 117
Width: 711
Flags: MW
HStem: -3 33 283 57<243.5 394 273 394 394 397 273 406> 690 47<333.5 363.5 333.5 376.5> 849 47<333.5 363.5>
VStem: 246 47<777.5 808.5 777.5 821.5> 402 48
LayerCount: 2
Fore
SplineSet
682 -4 m 0
 617 -1 485 -1 414 -3 c 0
 408 -3 405 -1 403 5 c 0
 402 8 402 13 402 17 c 0
 402 32 409 33 420 33 c 0
 439 33 455 32 466 33 c 0
 507 35 516 50 502 87 c 0
 478 151 458 206 434 270 c 0
 431 278 415 284 406 283 c 0
 366 281 289 282 250 283 c 0
 237 283 235 274 229 266 c 0
 214 218 182 133 165 93 c 0
 160 81 157 68 157 59 c 0
 157 42 171 33 214 32 c 0
 229 31 235 35 251 33 c 0
 256 32 258 22 258 14 c 0
 257 6 254 -3 250 -3 c 0
 191 -2 88 0 34 -3 c 0
 30 -3 27 -3 23 -3 c 0
 11 -1 12 18 14 27 c 0
 15 32 19 33 23 33 c 0
 43 33 67 32 81 48 c 0
 88 56 94 70 101 86 c 0
 107 101 113 116 117 127 c 2
 305 638 l 1
 298 664 l 2
 295 674 330 672 335 672 c 0
 348 672 379 674 387 662 c 0
 505 351 552 225 574 167 c 0
 584 141 593 115 602 89 c 0
 619 43 629 30 675 30 c 2
 682 30 l 2
 694 30 695 -5 682 -4 c 0
402 355 m 0
 386 399 356 488 341 537 c 0
 339 544 331 547 328 540 c 0
 312 489 278 399 261 355 c 0
 259 345 266 343 273 340 c 0
 305 339 365 339 394 340 c 0
 400 340 405 347 402 355 c 0
450 793 m 0
 450 736 404 690 349 690 c 0
 292 690 246 736 246 793 c 0
 246 850 292 896 349 896 c 0
 404 896 450 850 450 793 c 0
403 793 m 0
 403 824 378 849 349 849 c 0
 318 849 293 824 293 793 c 0
 293 762 318 737 349 737 c 0
 378 737 403 762 403 793 c 0
EndSplineSet
EndChar
StartChar: AE
Encoding: 198 198 161
Width: 915
Flags: W
HStem: -6 34<141 168> -6 51 -4 21G<300 390.5 300 832> 254 50<221 417 268 417 417 420> 312 51<545 550> 609 49<549.5 556 556 714 714 742> 627 31<297 320>
VStem: 434 97<135 236 236 240 374 379 379 583 583 585.5>
LayerCount: 2
Fore
SplineSet
874 144 m 0x5d
 870 60 864 41 861 14 c 0
 860 -1 844 -4 832 -4 c 0
 746 -1 466 -4 315 -4 c 0
 311 -4 299 -4 300 7 c 2
 300 17 l 2x3d
 300 30 312 31 323 31 c 2
 354 30 l 2
 402 28 432 47 433 99 c 2
 434 135 l 1
 434 236 l 2
 434 244 432 254 420 254 c 2
 227 254 l 2
 215 254 212 250 207 242 c 2
 126 109 l 2
 104 73 103 64 103 56 c 0
 103 40 115 28 167 28 c 0
 177 28 179 24 179 19 c 2
 180 5 l 2
 181 -3 178 -6 168 -6 c 0
 115 -6 8 -2 -43 -6 c 0
 -49 -6 -53 -3 -54 6 c 0
 -57 24 -61 27 -40 29 c 0
 4 34 25 52 68 123 c 2
 317 539 l 2
 332 564 341 578 345 587 c 0
 349 594 349 597 349 603 c 0
 349 620 343 627 297 627 c 0x9b
 288 627 282 628 283 635 c 2
 284 649 l 2
 285 655 287 658 297 658 c 0
 424 654 719 661 800 658 c 0
 811 658 825 653 825 646 c 0
 827 609 832 550 834 517 c 0
 834 514 835 511 834 508 c 0
 834 505 833 504 829 504 c 2
 814 504 l 2
 802 504 801 520 799 528 c 0
 785 593 770 609 742 609 c 2
 714 609 l 1
 556 609 l 2
 543 609 531 605 531 591 c 2
 531 379 l 2
 531 369 537 363 553 363 c 2
 669 365 l 2
 685 365 697 366 707 367 c 0
 717 368 724 370 730 374 c 0
 741 382 747 397 753 430 c 0
 755 438 756 441 764 441 c 0
 769 440 776 441 778 441 c 0
 782 441 787 436 787 426 c 0
 787 380 786 292 788 246 c 0
 789 236 788 232 780 232 c 0
 774 230 769 230 763 231 c 0
 758 231 755 234 754 243 c 0
 746 309 735 315 671 314 c 2
 550 312 l 2
 536 312 531 298 531 286 c 2
 531 119 l 2
 531 48 545 45 605 45 c 0
 634 42 672 44 709 45 c 0
 773 47 786 50 806 76 c 0
 821 96 832 119 840 149 c 0
 841 152 841 154 842 156 c 2
 842 158 l 2
 842 159 842 160 843 160 c 1
 843 163 846 163 851 163 c 2
 864 163 l 2
 875 163 874 152 874 144 c 0x5d
434 331 m 2
 434 583 l 2
 434 588 430 614 421 600 c 0
 375 530 305 412 252 318 c 0
 247 311 253 304 268 304 c 2
 417 304 l 2
 431 304 434 321 434 331 c 2
EndSplineSet
EndChar
StartChar: Ccedilla
Encoding: 199 199 118
Width: 762
Flags: W
HStem: -249 30<361.5 371 354.5 394> -136 158<372.5 388> -18 40<389 389> 628 37<349 456 314.5 482.5>
VStem: 56 111<248 419.5> 407 55<-181 -161>
LayerCount: 2
Fore
SplineSet
462 -155 m 0xbc
 462 -207 420 -249 368 -249 c 0
 355 -249 342 -248 326 -242 c 0
 316 -238 318 -233 322 -227 c 0
 323 -225 324 -222 326 -220 c 0
 327 -217 332 -215 335 -216 c 0
 345 -218 352 -219 357 -219 c 0
 385 -219 407 -197 407 -172 c 0
 407 -150 397 -136 379 -136 c 0xdc
 366 -136 353 -142 316 -161 c 0
 311 -163 303 -163 308 -155 c 2
 389 -18 l 1
 190 -8 56 130 56 317 c 0
 56 522 205 665 424 665 c 0
 488 665 526 654 588 631 c 0
 604 625 622 617 637 629 c 0
 642 633 660 633 661 628 c 0
 670 589 672 561 671 538 c 0
 671 515 669 496 670 477 c 0
 667 464 645 461 640 469 c 0
 606 567 535 628 430 628 c 0
 268 628 167 514 167 338 c 0
 167 158 282 22 444 22 c 0
 512 22 559 45 607 88 c 0
 633 112 641 122 667 168 c 0
 669 177 703 179 699 167 c 0
 684 115 656 52 629 7 c 1
 616 10 613 10 606 10 c 0
 571 10 560 5 528 -5 c 0
 492 -16 454 -19 417 -19 c 1
 391 -67 l 2
 389 -71 389 -72 389 -73 c 0
 390 -74 393 -74 395 -75 c 0
 433 -80 462 -113 462 -155 c 0xbc
EndSplineSet
Validated: 33
EndChar
StartChar: Egrave
Encoding: 200 200 207
Width: 619
Flags: W
HStem: -2 37 -2 49 311 49<262 377 262 380> 605 45<262.5 267> 860 20G<214.5 221> 861 20G<298 302>
VStem: 151 97<134 296 375.5 381 381 514 514 554.5>
LayerCount: 2
Fore
SplineSet
366 710 m 0xb6
 366 697 348 696 341 703 c 0
 309 745 250 814 206 861 c 0x76
 201 867 208 880 221 880 c 2xba
 298 881 l 2
 306 881 312 881 317 873 c 0
 333 828 356 753 366 710 c 0xb6
579 159 m 0
 578 88 568 40 565 12 c 0
 563 -4 536 -2 525 -2 c 0
 389 -2 169 -2 37 -3 c 0
 31 -2 27 -2 25 4 c 0
 21 14 24 33 34 34 c 0
 49 36 62 35 77 35 c 0xb6
 142 37 151 48 151 134 c 2
 151 514 l 2
 151 595 147 615 73 615 c 0
 62 615 52 612 45 624 c 0
 42 630 46 639 49 645 c 0
 53 652 60 650 66 650 c 0
 199 651 415 652 512 650 c 0
 521 650 531 647 531 640 c 0
 540 567 538 532 540 503 c 0
 539 496 525 497 516 500 c 0
 510 501 509 506 509 511 c 0
 496 594 482 603 401 604 c 0
 367 605 309 607 267 605 c 0
 258 605 248 590 248 583 c 2
 248 381 l 2
 248 370 256 360 262 360 c 2
 380 360 l 2
 458 360 462 362 472 434 c 0
 473 437 486 440 494 439 c 0
 499 438 501 429 502 424 c 0
 504 373 502 290 501 246 c 0
 501 238 498 233 489 232 c 0
 481 231 472 232 471 237 c 0
 460 306 456 311 377 311 c 2
 262 311 l 2
 255 310 248 306 248 296 c 2
 248 128 l 2
 248 51 250 47 323 47 c 2
 403 47 l 2
 478 47 494 51 511 71 c 0
 525 88 539 116 548 152 c 0
 550 160 554 162 558 163 c 0
 567 164 577 163 579 159 c 0
EndSplineSet
Validated: 33
EndChar
StartChar: Ecircumflex
Encoding: 202 202 204
Width: 619
Flags: W
HStem: -2 37 -2 49 311 49<262 377 262 380> 605 45<262.5 267>
VStem: 151 97<134 296 375.5 381 381 514 514 554.5>
LayerCount: 2
Fore
SplineSet
451 709 m 2x78
 454 704 456 697 450 696 c 0
 443 694 433 695 430 698 c 2
 308 802 l 1
 193 698 l 2
 185 691 165 696 170 704 c 2
 258 860 l 2
 261 865 266 868 271 870 c 0
 279 871 333 872 346 871 c 0
 357 870 359 869 363 861 c 2
 451 709 l 2x78
579 159 m 0
 578 88 568 40 565 12 c 0
 563 -4 536 -2 525 -2 c 0
 389 -2 169 -2 37 -3 c 0
 31 -2 27 -2 25 4 c 0
 21 14 24 33 34 34 c 0
 49 36 62 35 77 35 c 0xb8
 142 37 151 48 151 134 c 2
 151 514 l 2
 151 595 147 615 73 615 c 0
 62 615 52 612 45 624 c 0
 42 630 46 639 49 645 c 0
 53 652 60 650 66 650 c 0
 199 651 415 652 512 650 c 0
 521 650 531 647 531 640 c 0
 540 567 538 532 540 503 c 0
 539 496 525 497 516 500 c 0
 510 501 509 506 509 511 c 0
 496 594 482 603 401 604 c 0
 367 605 309 607 267 605 c 0
 258 605 248 590 248 583 c 2
 248 381 l 2
 248 370 256 360 262 360 c 2
 380 360 l 2
 458 360 462 362 472 434 c 0
 473 437 486 440 494 439 c 0
 499 438 501 429 502 424 c 0
 504 373 502 290 501 246 c 0
 501 238 498 233 489 232 c 0
 481 231 472 232 471 237 c 0
 460 306 456 311 377 311 c 2
 262 311 l 2
 255 310 248 306 248 296 c 2
 248 128 l 2
 248 51 250 47 323 47 c 2
 403 47 l 2
 478 47 494 51 511 71 c 0
 525 88 539 116 548 152 c 0
 550 160 554 162 558 163 c 0
 567 164 577 163 579 159 c 0
EndSplineSet
Validated: 33
EndChar
StartChar: Edieresis
Encoding: 203 203 206
Width: 619
Flags: W
HStem: -2 37 -2 49 311 49<262 377 262 380> 605 45<262.5 267> 707 114<211.5 242.5 379.5 411.5>
VStem: 151 97<134 296 375.5 381 381 514 514 554.5> 170 114<747.5 779.5> 338 115<748.5 779.5>
LayerCount: 2
Fore
SplineSet
453 764 m 0x7b
 453 733 428 707 395 707 c 0
 364 707 338 733 338 764 c 0
 338 795 364 821 395 821 c 0
 428 821 453 795 453 764 c 0x7b
284 764 m 0
 284 731 258 707 227 707 c 0
 196 707 170 731 170 764 c 0
 170 795 195 821 227 821 c 0
 258 821 284 795 284 764 c 0
579 159 m 0
 578 88 568 40 565 12 c 0
 563 -4 536 -2 525 -2 c 0
 389 -2 169 -2 37 -3 c 0
 31 -2 27 -2 25 4 c 0
 21 14 24 33 34 34 c 0
 49 36 62 35 77 35 c 0
 142 37 151 48 151 134 c 2
 151 514 l 2
 151 595 147 615 73 615 c 0
 62 615 52 612 45 624 c 0
 42 630 46 639 49 645 c 0
 53 652 60 650 66 650 c 0
 199 651 415 652 512 650 c 0
 521 650 531 647 531 640 c 0
 540 567 538 532 540 503 c 0
 539 496 525 497 516 500 c 0
 510 501 509 506 509 511 c 0
 496 594 482 603 401 604 c 0
 367 605 309 607 267 605 c 0
 258 605 248 590 248 583 c 2
 248 381 l 2
 248 370 256 360 262 360 c 2
 380 360 l 2
 458 360 462 362 472 434 c 0
 473 437 486 440 494 439 c 0
 499 438 501 429 502 424 c 0
 504 373 502 290 501 246 c 0
 501 238 498 233 489 232 c 0
 481 231 472 232 471 237 c 0
 460 306 456 311 377 311 c 2
 262 311 l 2
 255 310 248 306 248 296 c 2
 248 128 l 2xbd
 248 51 250 47 323 47 c 2
 403 47 l 2
 478 47 494 51 511 71 c 0
 525 88 539 116 548 152 c 0
 550 160 554 162 558 163 c 0
 567 164 577 163 579 159 c 0
EndSplineSet
Validated: 33
EndChar
StartChar: Igrave
Encoding: 204 204 211
Width: 363
Flags: W
HStem: -3 36<298 301 298 312> 617 34<298 300.5> 860 20G<78 84> 861 20G<161 165.5>
VStem: 132 97<134 514>
LayerCount: 2
Fore
SplineSet
229 710 m 0xd8
 230 697 212 696 204 703 c 0
 172 745 113 814 70 861 c 0xd8
 64 867 72 880 84 880 c 2xe8
 161 881 l 2
 170 881 175 881 180 873 c 0
 197 828 219 753 229 710 c 0xd8
317 640 m 0
 318 632 318 619 312 618 c 0
 308 618 303 617 298 617 c 0
 237 616 229 606 229 514 c 2
 229 99 l 2
 229 47 244 34 298 33 c 0
 304 33 309 33 313 32 c 0
 326 24 320 -3 312 -3 c 0
 249 -1 127 -1 64 -3 c 0
 58 -3 52 2 52 12 c 0
 52 20 56 31 61 31 c 0
 124 37 129 45 131 99 c 2
 132 134 l 1
 132 514 l 1
 131 549 l 2
 130 601 122 613 68 619 c 0
 60 620 51 625 57 644 c 0
 60 652 64 651 71 651 c 0
 153 651 179 645 301 651 c 0
 310 651 316 650 317 640 c 0
EndSplineSet
EndChar
StartChar: Iacute
Encoding: 205 205 208
Width: 363
Flags: W
HStem: -3 36<298 301 298 312> 617 34<298 300.5> 864 20G<182.5 186> 865 20G<274 277.5>
VStem: 132 97<134 514>
LayerCount: 2
Fore
SplineSet
288 875 m 0xd8
 288 873 287 871 287 870 c 2
 144 698 l 2
 138 691 113 691 118 707 c 2
 167 871 l 2
 171 879 179 884 186 884 c 2xe8
 274 885 l 2
 281 885 290 883 288 875 c 0xd8
317 640 m 0
 318 632 318 619 312 618 c 0
 308 618 303 617 298 617 c 0
 237 616 229 606 229 514 c 2
 229 99 l 2
 229 47 244 34 298 33 c 0
 304 33 309 33 313 32 c 0
 326 24 320 -3 312 -3 c 0
 249 -1 127 -1 64 -3 c 0
 58 -3 52 2 52 12 c 0
 52 20 56 31 61 31 c 0
 124 37 129 45 131 99 c 2
 132 134 l 1
 132 514 l 1
 131 549 l 2
 130 601 122 613 68 619 c 0
 60 620 51 625 57 644 c 0
 60 652 64 651 71 651 c 0
 154 651 179 645 301 651 c 0
 310 651 316 650 317 640 c 0
EndSplineSet
EndChar
StartChar: Icircumflex
Encoding: 206 206 209
Width: 362
Flags: MW
HStem: -3 36<297 300 297 312> 617 34<298 300>
VStem: 132 96<134 514>
LayerCount: 2
Fore
SplineSet
314 709 m 2
 317 704 319 697 313 696 c 0
 306 694 296 695 293 698 c 2
 171 802 l 1
 56 698 l 2
 48 691 28 696 33 704 c 2
 121 860 l 2
 124 865 129 868 134 870 c 0
 142 871 196 872 209 871 c 0
 219 870 222 869 226 861 c 2
 314 709 l 2
317 640 m 0
 318 632 317 619 312 618 c 0
 307 618 302 617 298 617 c 0
 237 616 228 606 228 514 c 2
 228 99 l 2
 228 47 244 34 297 33 c 0
 303 33 308 33 312 32 c 0
 326 24 319 -3 312 -3 c 0
 249 -1 126 -1 64 -3 c 0
 57 -3 51 2 51 12 c 0
 51 20 56 31 60 31 c 0
 123 37 129 45 131 99 c 2
 132 134 l 1
 132 514 l 1
 131 549 l 2
 130 601 122 613 67 619 c 0
 59 620 50 625 56 644 c 0
 59 652 63 651 70 651 c 0
 153 651 178 645 301 651 c 0
 309 651 316 650 317 640 c 0
EndSplineSet
EndChar
StartChar: Idieresis
Encoding: 207 207 210
Width: 363
Flags: W
HStem: -3 36<298 301 298 312> 617 34<298 300.5> 704 120<70.5 103.5 247.5 281.5>
VStem: 27 120<747 780.5> 132 97<134 514> 204 121<747.5 780.5>
LayerCount: 2
Fore
SplineSet
325 764 m 0xf4
 325 731 299 704 264 704 c 0
 231 704 204 731 204 764 c 0
 204 797 231 824 264 824 c 0
 299 824 325 797 325 764 c 0xf4
147 764 m 0
 147 730 120 704 87 704 c 0
 54 704 27 730 27 764 c 0
 27 797 54 824 87 824 c 0
 120 824 147 797 147 764 c 0
317 640 m 0
 318 632 318 619 312 618 c 0
 308 618 303 617 298 617 c 0
 237 616 229 606 229 514 c 2
 229 99 l 2
 229 47 244 34 298 33 c 0
 304 33 309 33 313 32 c 0
 326 24 320 -3 312 -3 c 0
 249 -1 127 -1 64 -3 c 0
 58 -3 52 2 52 12 c 0
 52 20 56 31 61 31 c 0
 124 37 129 45 131 99 c 2
 132 134 l 1
 132 514 l 1xe8
 131 549 l 2
 130 601 122 613 68 619 c 0
 60 620 51 625 57 644 c 0
 60 652 64 651 71 651 c 0
 153 651 179 645 301 651 c 0
 310 651 316 650 317 640 c 0
EndSplineSet
Validated: 33
EndChar
StartChar: Eth
Encoding: 208 208 1
Width: 795
Flags: W
HStem: -5 31<254.5 342.5 254.5 348> 294 66<98 100 19 103.5 228 231> 623 44
VStem: 13 200<61.5 293> 116 97<140 275 236 275 379 521 521 570.5> 634 109<273 383>
LayerCount: 2
Fore
SplineSet
743 349 m 0xf4
 743 197 640 58 494 16 c 0
 428 -3 417 -5 279 -5 c 0
 225 -5 97 -4 24 -6 c 0
 19 -7 12 -3 12 3 c 0
 12 7 11 21 14 26 c 0
 17 32 19 34 22 34 c 0
 23 34 24 34 25 34 c 2
 28 34 l 2
 31 34 34 33 38 33 c 0
 97 33 114 43 115 98 c 0
 116 119 115 121 116 140 c 0
 116 158 116 193 116 279 c 0xec
 116 292 109 294 98 294 c 2
 13 293 l 2xf4
 6 294 0 300 0 310 c 2
 0 345 l 1
 0 345 0 360 19 360 c 2
 98 360 l 2
 102 360 106 360 109 363 c 0
 113 365 116 369 116 379 c 2
 116 521 l 2xec
 116 620 108 623 28 623 c 0
 17 623 13 630 13 641 c 0
 13 655 18 659 28 661 c 2
 110 664 l 2
 185 667 261 667 336 667 c 0
 467 667 551 647 622 595 c 0
 701 537 743 450 743 349 c 0xf4
634 332 m 0
 634 434 595 523 531 573 c 0
 487 607 444 621 365 629 c 0
 329 633 306 635 270 635 c 0
 254 635 241 635 228 634 c 0
 220 631 213 625 213 611 c 2
 213 377 l 2
 213 363 224 360 232 360 c 2
 375 361 l 2
 393 361 397 351 397 343 c 2
 397 313 l 2
 394 301 390 295 376 295 c 2
 231 294 l 2
 222 294 213 292 213 275 c 2
 213 94 l 2
 213 29 214 26 295 26 c 0
 390 26 424 32 472 54 c 0
 571 100 634 209 634 332 c 0
EndSplineSet
EndChar
StartChar: Ntilde
Encoding: 209 209 120
Width: 834
Flags: W
HStem: -3 37 618 34<791 801.5> 697 71<519 522> 765 70<337.5 343.5> 820 20G<575 578>
VStem: 129 59<128.5 139 139 508> 649 59<185 515 515 532>
LayerCount: 2
Fore
SplineSet
805 633 m 0xee
 806 620 803 618 791 618 c 0
 714 616 708 610 708 532 c 2
 708 4 l 2
 708 -15 674 -14 670 -6 c 0
 665 -1 547 133 431 265 c 0
 314 398 199 529 199 529 c 2
 193 532 188 524 188 508 c 2
 188 139 l 2
 188 118 187 91 194 71 c 0
 200 52 214 38 242 36 c 0
 253 35 288 39 293 29 c 0
 298 17 298 -3 281 -3 c 0
 219 -2 105 -1 44 -4 c 0
 32 -5 32 20 37 27 c 0
 41 33 46 34 52 34 c 0
 96 34 129 45 129 92 c 2
 129 597 l 1
 110 611 85 617 48 618 c 0
 43 617 40 627 40 635 c 0
 40 648 46 651 56 651 c 0
 127 649 173 650 199 651 c 0
 204 651 217 646 223 639 c 2
 632 171 l 2
 638 162 649 177 649 185 c 2
 649 515 l 2
 649 564 649 589 636 601 c 0
 630 607 621 611 608 613 c 0
 594 615 576 616 553 617 c 0
 541 618 538 652 553 651 c 0
 631 648 708 650 799 652 c 0
 804 652 804 636 805 633 c 0xee
592 821 m 0
 592 750 551 697 493 697 c 0xee
 466 697 434 710 396 736 c 0
 359 762 350 765 337 765 c 0
 318 765 308 754 300 718 c 0
 300 714 298 710 297 700 c 0
 293 692 272 687 270 700 c 0
 274 786 307 835 368 835 c 0xd6
 398 835 421 826 466 795 c 0
 497 774 513 768 525 768 c 0
 546 768 557 780 565 834 c 0
 565 838 572 840 578 840 c 0
 584 841 590 838 590 834 c 0
 592 828 592 824 592 821 c 0
EndSplineSet
EndChar
StartChar: Ograve
Encoding: 210 210 214
Width: 827
Flags: W
HStem: -19 37<351 516> 631 36<318 469.5> 860 20G<333.5 340> 861 20G<416 420.5>
VStem: 53 108<247.5 413.5> 661 108<238.5 402.5>
LayerCount: 2
Fore
SplineSet
485 710 m 0xdc
 485 697 467 696 459 703 c 0
 427 745 368 814 325 861 c 0xdc
 319 867 327 880 340 880 c 2xec
 416 881 l 2
 425 881 431 881 435 873 c 0
 452 828 474 753 485 710 c 0xdc
769 339 m 0
 769 138 619 -19 413 -19 c 0
 204 -19 53 125 53 312 c 0
 53 515 202 667 415 667 c 0
 624 667 769 527 769 339 c 0
661 309 m 0
 661 496 552 631 387 631 c 0
 249 631 161 510 161 338 c 0
 161 157 272 18 430 18 c 0
 606 18 661 157 661 309 c 0
EndSplineSet
Validated: 1
EndChar
StartChar: Oacute
Encoding: 211 211 212
Width: 827
Flags: W
HStem: -19 37<351 516> 631 36<318 469.5> 864 20G<437.5 441> 865 20G<529 533>
VStem: 53 108<247.5 413.5> 661 108<238.5 402.5>
LayerCount: 2
Fore
SplineSet
543 875 m 0xdc
 543 873 543 871 542 870 c 2
 399 698 l 2
 393 691 369 691 374 707 c 2
 423 871 l 2
 425 879 434 884 441 884 c 2xec
 529 885 l 2
 537 885 545 883 543 875 c 0xdc
769 339 m 0
 769 138 619 -19 413 -19 c 0
 204 -19 53 125 53 312 c 0
 53 515 202 667 415 667 c 0
 624 667 769 527 769 339 c 0
661 309 m 0
 661 496 552 631 387 631 c 0
 249 631 161 510 161 338 c 0
 161 157 272 18 430 18 c 0
 606 18 661 157 661 309 c 0
EndSplineSet
Validated: 1
EndChar
StartChar: Ocircumflex
Encoding: 212 212 213
Width: 827
Flags: MW
HStem: -19 37<351 515.5> 631 36<318 469.5>
VStem: 53 108<247.5 413.5> 661 108<238.5 402.5>
LayerCount: 2
Fore
SplineSet
569 696 m 0
 562 694 551 695 549 698 c 2
 427 802 l 1
 312 698 l 2
 304 691 284 696 288 704 c 2
 377 860 l 2
 380 865 385 868 390 870 c 0
 397 871 452 872 465 871 c 0
 475 870 477 869 482 861 c 2
 569 709 l 2
 572 704 575 697 569 696 c 0
769 339 m 0
 769 138 619 -19 412 -19 c 0
 203 -19 53 125 53 312 c 0
 53 515 202 667 414 667 c 0
 623 667 769 527 769 339 c 0
661 309 m 0
 661 496 552 631 387 631 c 0
 249 631 161 510 161 338 c 0
 161 157 272 18 430 18 c 0
 606 18 661 157 661 309 c 0
EndSplineSet
Validated: 33
EndChar
StartChar: Otilde
Encoding: 213 213 180
Width: 827
Flags: W
HStem: -19 37<351 516> 631 36<318 469.5> 697 71<494 497> 765 70<312.5 318.5> 820 20G<550 553>
VStem: 53 108<247.5 413.5> 661 108<238.5 402.5>
LayerCount: 2
Fore
SplineSet
769 339 m 0xee
 769 138 619 -19 413 -19 c 0
 204 -19 53 125 53 312 c 0
 53 515 202 667 415 667 c 0
 624 667 769 527 769 339 c 0xee
661 309 m 0
 661 496 552 631 387 631 c 0
 249 631 161 510 161 338 c 0
 161 157 272 18 430 18 c 0
 606 18 661 157 661 309 c 0
567 821 m 0
 567 750 526 697 468 697 c 0xee
 441 697 409 710 371 736 c 0
 334 762 325 765 312 765 c 0
 293 765 283 754 275 718 c 0
 275 714 273 710 272 700 c 0
 268 692 247 687 245 700 c 0
 249 786 282 835 343 835 c 0xd6
 373 835 396 826 441 795 c 0
 472 774 488 768 500 768 c 0
 521 768 532 780 540 834 c 0
 540 838 547 840 553 840 c 0
 559 841 565 838 565 834 c 0
 567 828 567 824 567 821 c 0
EndSplineSet
Validated: 1
EndChar
StartChar: Odieresis
Encoding: 214 214 121
Width: 827
Flags: MW
HStem: -19 37<351 516> 631 36<318 469.5> 704 120<309.5 342.5 486.5 520>
VStem: 53 108<247.5 413.5> 265 121<747 780.5> 443 121<747.5 780.5> 661 108<238.5 402.5>
LayerCount: 2
Fore
SplineSet
564 764 m 0
 564 731 537 704 503 704 c 0
 470 704 443 731 443 764 c 0
 443 797 470 824 503 824 c 0
 537 824 564 797 564 764 c 0
386 764 m 0
 386 730 359 704 326 704 c 0
 293 704 265 730 265 764 c 0
 265 797 293 824 326 824 c 0
 359 824 386 797 386 764 c 0
769 339 m 0
 769 138 619 -19 413 -19 c 0
 204 -19 53 125 53 312 c 0
 53 515 202 667 415 667 c 0
 624 667 769 527 769 339 c 0
661 309 m 0
 661 496 552 631 387 631 c 0
 249 631 161 510 161 338 c 0
 161 157 272 18 430 18 c 0
 606 18 661 157 661 309 c 0
EndSplineSet
EndChar
StartChar: multiply
Encoding: 215 215 21
Width: 699
Flags: W
LayerCount: 2
Fore
SplineSet
599 563 m 2
 606 556 610 547 598 535 c 0
 548 486 453 386 413 350 c 0
 405 344 400 335 411 324 c 2
 593 143 l 2
 606 130 608 121 597 112 c 2
 575 94 l 2
 561 82 553 85 546 92 c 2
 374 267 l 2
 356 286 342 278 329 264 c 0
 269 198 222 154 162 96 c 0
 152 86 140 82 126 95 c 2
 109 111 l 2
 102 117 98 130 109 140 c 0
 148 177 244 275 290 321 c 0
 303 334 300 341 291 351 c 2
 115 529 l 2
 105 539 97 552 109 564 c 2
 130 585 l 2
 131 586 145 596 156 585 c 0
 205 538 279 462 337 400 c 0
 351 386 357 387 374 402 c 0
 421 445 494 523 541 576 c 0
 549 586 569 589 573 586 c 2
 599 563 l 2
EndSplineSet
Validated: 33
EndChar
StartChar: Oslash
Encoding: 216 216 162
Width: 865
Flags: MW
HStem: -21 36<417 492 417 538> 639 36<335.5 443>
VStem: 53 109<303 418.5> 699 109<272.5 350>
LayerCount: 2
Fore
SplineSet
808 342 m 0
 808 137 644 -21 432 -21 c 0
 359 -21 286 -2 224 32 c 0
 215 37 205 39 195 27 c 2
 120 -62 l 2
 114 -69 109 -75 101 -68 c 0
 92 -61 81 -55 91 -43 c 2
 169 44 l 2
 177 53 175 64 171 67 c 0
 96 129 53 217 53 317 c 0
 53 520 219 675 435 675 c 0
 512 675 583 658 649 618 c 0
 657 613 662 615 670 624 c 2
 731 698 l 2
 734 701 741 705 749 699 c 2
 757 693 l 2
 766 687 760 678 753 670 c 2
 694 603 l 2
 686 594 691 589 698 583 c 0
 773 518 808 441 808 342 c 0
597 566 m 0
 546 613 480 639 406 639 c 0
 265 639 162 516 162 342 c 0
 162 264 183 195 222 139 c 0
 232 125 241 128 248 136 c 0
 335 242 507 445 595 542 c 0
 602 548 608 556 597 566 c 0
699 310 m 0
 699 390 679 461 639 519 c 0
 636 523 627 525 619 516 c 0
 531 414 357 211 270 110 c 0
 260 98 269 86 273 82 c 0
 326 37 384 15 450 15 c 0
 534 15 594 46 641 114 c 0
 679 168 699 235 699 310 c 0
EndSplineSet
EndChar
StartChar: Udieresis
Encoding: 220 220 122
Width: 815
Flags: MW
HStem: -19 66<342 451> 617 33<544 544> 704 120<309.5 342.5 486.5 520>
VStem: 118 97<295 370.5 370.5 505> 265 121<747 780.5> 442 121<747.5 780.5> 634 58<304 305 305 485 485 489>
LayerCount: 2
Fore
SplineSet
563 764 m 0
 563 731 537 704 503 704 c 0
 470 704 442 731 442 764 c 0
 442 797 470 824 503 824 c 0
 537 824 563 797 563 764 c 0
386 764 m 0
 386 730 359 704 326 704 c 0
 293 704 265 730 265 764 c 0
 265 797 292 824 326 824 c 0
 359 824 386 797 386 764 c 0
793 635 m 0
 793 628 790 620 784 619 c 0
 707 616 692 597 692 489 c 2
 692 305 l 2
 692 201 691 128 608 55 c 0
 551 4 500 -19 402 -19 c 0
 266 -19 185 35 141 131 c 0
 121 176 118 198 118 295 c 2
 118 555 l 2
 118 610 107 617 32 618 c 0
 22 618 18 649 32 650 c 0
 60 652 219 652 302 650 c 0
 316 650 312 616 302 618 c 2
 292 618 l 2
 233 618 218 603 216 549 c 0
 216 534 215 520 215 505 c 0
 215 481 215 431 215 310 c 0
 215 164 259 47 425 47 c 0
 532 47 590 91 618 166 c 0
 635 211 634 256 634 304 c 2
 634 485 l 2
 634 596 622 615 544 617 c 1
 537 619 l 2
 527 619 522 650 537 650 c 0
 588 651 722 651 784 650 c 0
 790 650 793 642 793 635 c 0
EndSplineSet
EndChar
StartChar: Yacute
Encoding: 221 221 7
Width: 728
Flags: W
HStem: -4 39 -3 21G<241.5 247> 619 31<268 296 296 300 27 305.5> 864 20G<377.5 381> 865 20G<470 473.5>
VStem: 341 97<241 241>
LayerCount: 2
Fore
SplineSet
484 875 m 0xac
 484 873 483 871 483 870 c 2
 339 698 l 2
 333 691 309 691 314 707 c 2
 363 871 l 2
 367 879 374 884 381 884 c 2xb4
 470 885 l 2
 477 885 485 883 484 875 c 0xac
730 635 m 0
 730 629 728 618 721 618 c 0
 683 616 657 602 638 582 c 0
 616 559 602 531 586 504 c 2
 438 253 l 1
 439 204 438 128 438 99 c 0
 438 62 451 40 494 34 c 0
 505 33 514 36 527 33 c 0
 535 31 539 22 539 13 c 0
 539 4 535 -4 527 -4 c 0xac
 405 -2 356 0 247 -3 c 0x6c
 236 -3 232 15 236 26 c 0
 239 34 247 36 257 36 c 0
 266 37 277 35 284 35 c 0
 322 37 338 62 340 99 c 0
 342 132 343 203 341 241 c 1
 158 527 l 2
 110 602 90 614 30 617 c 0
 24 617 18 616 16 624 c 0
 15 627 15 634 16 638 c 0
 17 646 22 650 27 650 c 0
 96 649 242 648 296 650 c 0
 304 650 318 619 293 619 c 0
 243 619 230 610 230 599 c 0
 230 588 233 582 262 537 c 2
 396 331 l 2
 401 323 417 333 423 344 c 2
 530 525 l 2
 557 570 562 581 562 592 c 0
 562 611 551 618 505 618 c 2
 495 618 l 1
 483 623 484 650 498 650 c 0
 549 648 642 648 721 650 c 0
 728 650 730 642 730 635 c 0
EndSplineSet
EndChar
StartChar: Thorn
Encoding: 222 222 9
Width: 589
Flags: W
HStem: -5 34 -4 21G<322 331> 139 33<286.5 323 263 377.5> 506 29<266.5 269 269 297 237 298.5> 626 32<286 291 281 292.5> 639 20G<28.5 33>
VStem: 120 97<77 98 98 126 126 132 193 199 199 486 550 554 554 564.5> 446 108<295.5 373.5 281.5 380>
LayerCount: 2
Fore
SplineSet
554 345 m 0xbb
 554 218 456 139 299 139 c 0
 274 139 252 140 227 144 c 0
 218 146 217 136 217 132 c 2
 217 98 l 2
 217 43 236 29 296 29 c 0
 297 29 307 30 317 29 c 0xbb
 327 28 338 26 338 19 c 0
 339 9 340 -4 322 -4 c 0x7b
 253 -2 120 -2 50 -5 c 0
 39 -5 33 -4 34 7 c 0
 35 12 36 18 39 22 c 0
 41 25 47 27 56 27 c 0
 98 27 107 33 113 43 c 0
 118 51 120 57 120 77 c 2
 120 126 l 1
 120 545 l 2
 120 584 119 603 113 613 c 0
 108 622 100 623 91 624 c 0
 88 625 84 625 79 625 c 2
 79 625 62 626 56 627 c 1
 56 627 l 1
 50 627 l 2
 45 627 40 627 36 627 c 0
 32 627 29 627 27 628 c 0
 22 629 19 632 19 640 c 2
 19 649 l 2
 19 658 24 659 33 659 c 0xb7
 88 658 220 655 286 658 c 0
 299 658 301 656 301 649 c 2
 301 638 l 2
 301 630 300 627 297 627 c 0
 296 626 294 626 291 626 c 0
 289 626 285 626 281 626 c 0
 239 623 230 621 224 611 c 0
 219 603 217 596 217 576 c 2
 217 554 l 2
 217 546 226 534 237 535 c 0
 253 535 260 535 269 535 c 0
 325 535 374 529 411 520 c 0
 438 513 466 500 490 481 c 0
 534 446 554 402 554 345 c 0xbb
446 348 m 0
 446 412 420 463 378 485 c 0
 353 498 322 506 275 506 c 0
 258 506 256 506 239 504 c 0
 231 502 217 498 217 486 c 2
 217 199 l 2
 217 187 221 177 230 175 c 0
 243 173 255 172 271 172 c 0
 375 172 446 243 446 348 c 0
EndSplineSet
EndChar
StartChar: germandbls
Encoding: 223 223 155
Width: 545
Flags: W
HStem: -17 45 -4 32<31 31> 676 35<259 309.5>
VStem: 86 81<93 132 132 386 386 433 433 464> 388 80<516 582> 412 90<132.5 216 132.5 226.5>
LayerCount: 2
Fore
SplineSet
502 187 m 0xb4
 502 78 420 -17 322 -17 c 0
 293 -17 269 -3 269 22 c 0
 269 41 282 57 299 57 c 0
 312 57 323 49 333 43 c 0
 349 36 356 33 361 33 c 0
 387 33 412 87 412 172 c 0xb4
 412 281 375 347 309 361 c 0
 294 364 275 366 257 366 c 0
 249 366 245 368 243 370 c 0
 241 373 241 378 241 382 c 0
 241 391 241 392 252 394 c 0
 340 406 388 459 388 541 c 0
 388 623 343 676 276 676 c 0
 242 676 213 660 195 632 c 0
 174 599 167 568 167 498 c 2
 167 433 l 1
 167 132 l 1
 167 87 l 2
 167 37 172 31 219 31 c 0
 232 29 235 27 235 11 c 0
 235 8 235 3 234 0 c 0
 232 -3 230 -5 225 -4 c 0
 166 -2 80 -2 31 -4 c 0
 21 -5 19 0 19 11 c 0
 19 24 19 27 31 28 c 0
 84 31 86 37 86 93 c 2
 86 132 l 1
 86 386 l 2
 86 542 95 583 138 639 c 0
 176 687 225 711 288 711 c 0
 389 711 468 641 468 550 c 0x78
 468 482 422 424 343 390 c 0
 332 385 337 384 344 382 c 0
 384 371 416 352 446 323 c 0
 486 284 502 245 502 187 c 0xb4
EndSplineSet
Validated: 33
EndChar
StartChar: agrave
Encoding: 224 224 124
Width: 414
Flags: W
HStem: -12 48<93.5 167> 389 42<172 189> 637 20G<111.5 118> 638 20G<195 199>
VStem: 25 77<75.5 103.5> 236 81<89 99 99 172 172 174>
LayerCount: 2
Fore
SplineSet
263 487 m 0xdc
 263 474 245 473 238 480 c 0
 206 522 147 591 103 638 c 0xdc
 98 644 105 657 118 657 c 2xec
 195 658 l 2
 203 658 209 658 213 650 c 0
 230 605 253 530 263 487 c 0xdc
397 46 m 1
 356 10 316 -12 291 -12 c 0
 262 -12 245 5 239 40 c 0
 237 49 227 37 224 35 c 0
 181 -2 160 -12 122 -12 c 0
 65 -12 25 25 25 78 c 0
 25 129 62 162 131 180 c 0
 167 190 192 201 226 217 c 0
 229 219 237 225 237 235 c 2
 236 299 l 2
 235 357 210 389 168 389 c 0
 147 389 111 367 111 344 c 0
 111 335 110 329 114 320 c 1
 107 312 61 292 54 290 c 0
 37 284 31 286 31 305 c 0
 31 330 55 360 94 390 c 0
 131 420 156 431 188 431 c 0
 231 431 277 407 300 374 c 0
 316 352 317 344 317 281 c 2
 317 99 l 2
 317 57 325 50 339 50 c 0
 346 50 351 50 357 53 c 0
 363 55 371 59 381 68 c 0
 384 70 385 71 390 71 c 0
 401 69 400 54 397 46 c 1
236 89 m 1
 236 172 l 2
 236 176 236 187 227 183 c 0
 204 172 180 162 156 152 c 0
 116 136 102 118 102 91 c 0
 102 60 126 36 157 36 c 0
 177 36 228 66 236 89 c 1
EndSplineSet
Validated: 1
EndChar
StartChar: aacute
Encoding: 225 225 123
Width: 414
Flags: MW
HStem: -12 48<93.5 167> 389 42<172 189> 641 20G<219 308 308 311.5>
VStem: 25 77<75.5 103.5> 236 81<89 99 99 172 172 174>
LayerCount: 2
Fore
SplineSet
322 652 m 0
 321 650 321 648 320 647 c 2
 177 475 l 2
 171 468 147 468 152 484 c 2
 201 648 l 2
 203 656 212 661 219 661 c 2
 308 661 l 2
 315 661 323 660 322 652 c 0
397 46 m 1
 356 10 316 -12 291 -12 c 0
 262 -12 245 5 239 40 c 0
 237 49 227 37 224 35 c 0
 181 -2 160 -12 122 -12 c 0
 65 -12 25 25 25 78 c 0
 25 129 62 162 131 180 c 0
 167 190 192 201 226 217 c 0
 229 219 237 225 237 235 c 2
 236 299 l 2
 235 357 210 389 168 389 c 0
 147 389 111 367 111 344 c 0
 111 335 110 329 114 320 c 1
 107 312 61 292 54 290 c 0
 37 284 31 286 31 305 c 0
 31 330 55 360 94 390 c 0
 131 420 156 431 188 431 c 0
 231 431 277 407 300 374 c 0
 316 352 317 344 317 281 c 2
 317 99 l 2
 317 57 325 50 339 50 c 0
 346 50 351 50 357 53 c 0
 363 55 371 59 381 68 c 0
 384 70 385 71 390 71 c 0
 401 69 400 54 397 46 c 1
236 89 m 1
 236 172 l 2
 236 176 236 187 227 183 c 0
 204 172 180 162 156 152 c 0
 116 136 102 118 102 91 c 0
 102 60 126 36 157 36 c 0
 177 36 228 66 236 89 c 1
EndSplineSet
Validated: 1
EndChar
StartChar: acircumflex
Encoding: 226 226 125
Width: 414
Flags: MW
HStem: -12 48<93.5 167> 389 42<172 189>
VStem: 25 77<75.5 103.5> 236 81<89 99 99 172 172 174>
LayerCount: 2
Fore
SplineSet
397 46 m 1
 356 10 316 -12 291 -12 c 0
 262 -12 245 5 239 40 c 0
 237 49 227 37 224 35 c 0
 181 -2 160 -12 122 -12 c 0
 65 -12 25 25 25 78 c 0
 25 129 62 162 131 180 c 0
 167 190 192 201 226 217 c 0
 229 219 237 225 237 235 c 2
 236 299 l 2
 235 357 210 389 168 389 c 0
 147 389 111 367 111 344 c 0
 111 335 110 329 114 320 c 1
 107 312 61 292 54 290 c 0
 37 284 31 286 31 305 c 0
 31 330 55 360 94 390 c 0
 131 420 156 431 188 431 c 0
 231 431 277 407 300 374 c 0
 316 352 317 344 317 281 c 2
 317 99 l 2
 317 57 325 50 339 50 c 0
 346 50 351 50 357 53 c 0
 363 55 371 59 381 68 c 0
 384 70 385 71 390 71 c 0
 401 69 400 54 397 46 c 1
236 89 m 1
 236 172 l 2
 236 176 236 187 227 183 c 0
 204 172 180 162 156 152 c 0
 116 136 102 118 102 91 c 0
 102 60 126 36 157 36 c 0
 177 36 228 66 236 89 c 1
333 486 m 2
 335 481 338 474 332 473 c 0
 325 471 315 472 312 475 c 2
 190 579 l 1
 75 475 l 2
 67 468 47 473 51 481 c 2
 140 637 l 2
 143 642 148 645 153 647 c 0
 160 648 215 649 228 648 c 0
 238 647 240 646 245 638 c 2
 333 486 l 2
EndSplineSet
Validated: 33
EndChar
StartChar: atilde
Encoding: 227 227 127
Width: 414
Flags: W
HStem: -12 48<93.5 167> 389 42<172 189> 469 71<285 288> 537 70<103.5 109.5> 592 20G<341 344>
VStem: 25 77<75.5 103.5> 236 81<89 99 99 172 172 174>
LayerCount: 2
Fore
SplineSet
397 46 m 1xee
 356 10 316 -12 291 -12 c 0
 262 -12 245 5 239 40 c 0
 237 49 227 37 224 35 c 0
 181 -2 160 -12 122 -12 c 0
 65 -12 25 25 25 78 c 0
 25 129 62 162 131 180 c 0
 167 190 192 201 226 217 c 0
 229 219 237 225 237 235 c 2
 236 299 l 2
 235 357 210 389 168 389 c 0
 147 389 111 367 111 344 c 0
 111 335 110 329 114 320 c 1
 107 312 61 292 54 290 c 0
 37 284 31 286 31 305 c 0
 31 330 55 360 94 390 c 0
 131 420 156 431 188 431 c 0
 231 431 277 407 300 374 c 0
 316 352 317 344 317 281 c 2
 317 99 l 2
 317 57 325 50 339 50 c 0
 346 50 351 50 357 53 c 0
 363 55 371 59 381 68 c 0
 384 70 385 71 390 71 c 0
 401 69 400 54 397 46 c 1xee
236 89 m 1
 236 172 l 2
 236 176 236 187 227 183 c 0
 204 172 180 162 156 152 c 0
 116 136 102 118 102 91 c 0
 102 60 126 36 157 36 c 0
 177 36 228 66 236 89 c 1
358 593 m 0
 358 522 317 469 259 469 c 0xee
 232 469 200 482 162 508 c 0
 125 534 116 537 103 537 c 0
 84 537 74 526 66 490 c 0
 66 486 64 482 63 472 c 0
 59 464 38 459 36 472 c 0
 40 558 73 607 134 607 c 0xd6
 164 607 187 598 232 567 c 0
 263 546 279 540 291 540 c 0
 312 540 323 552 331 606 c 0
 331 610 338 612 344 612 c 0
 350 613 356 610 356 606 c 0
 358 600 358 596 358 593 c 0
EndSplineSet
EndChar
StartChar: aring
Encoding: 229 229 128
Width: 414
Flags: W
HStem: -12 48<93.5 167> 389 42<172 189> 474 47<180.5 210.5 180.5 223.5> 633 47<180.5 210.5>
VStem: 25 77<75.5 103.5> 93 47<561.5 592.5 561.5 605.5> 236 81<89 99 99 172 172 174> 250 47<561.5 592.5>
LayerCount: 2
Fore
SplineSet
397 46 m 1xfa
 356 10 316 -12 291 -12 c 0
 262 -12 245 5 239 40 c 0
 237 49 227 37 224 35 c 0
 181 -2 160 -12 122 -12 c 0
 65 -12 25 25 25 78 c 0
 25 129 62 162 131 180 c 0
 167 190 192 201 226 217 c 0
 229 219 237 225 237 235 c 2
 236 299 l 2
 235 357 210 389 168 389 c 0
 147 389 111 367 111 344 c 0
 111 335 110 329 114 320 c 1
 107 312 61 292 54 290 c 0
 37 284 31 286 31 305 c 0
 31 330 55 360 94 390 c 0
 131 420 156 431 188 431 c 0
 231 431 277 407 300 374 c 0
 316 352 317 344 317 281 c 2
 317 99 l 2
 317 57 325 50 339 50 c 0
 346 50 351 50 357 53 c 0
 363 55 371 59 381 68 c 0
 384 70 385 71 390 71 c 0
 401 69 400 54 397 46 c 1xfa
236 89 m 1
 236 172 l 2
 236 176 236 187 227 183 c 0
 204 172 180 162 156 152 c 0
 116 136 102 118 102 91 c 0
 102 60 126 36 157 36 c 0
 177 36 228 66 236 89 c 1
297 577 m 0xf5
 297 520 251 474 196 474 c 0
 139 474 93 520 93 577 c 0
 93 634 139 680 196 680 c 0
 251 680 297 634 297 577 c 0xf5
250 577 m 0
 250 608 225 633 196 633 c 0
 165 633 140 608 140 577 c 0
 140 546 165 521 196 521 c 0
 225 521 250 546 250 577 c 0
EndSplineSet
EndChar
StartChar: ae
Encoding: 230 230 168
Width: 654
Flags: W
HStem: -17 48<154.5 158> -17 65<447 452> 265 32<352.5 514 365 514 514 517 365 607> 387 46 399 34<434.5 457.5> 411 20G<190.5 226.5>
VStem: 37 89 259 78<78 250.5 171 250.5 224.5 250.5 224.5 291 224.5 322.5>
LayerCount: 2
Fore
SplineSet
627 277 m 2xb3
 627 265 616 265 607 265 c 2
 362 265 l 2
 343 265 337 258 337 243 c 0
 337 206 342 161 350 138 c 0
 367 85 420 48 474 48 c 0x6b
 517 48 545 64 586 108 c 0
 591 113 602 114 606 110 c 2
 613 102 l 2
 618 98 616 91 611 85 c 0
 584 54 558 31 528 12 c 0
 498 -7 468 -17 436 -17 c 0
 380 -17 331 10 297 59 c 0
 293 65 288 66 282 60 c 0
 240 15 181 -17 135 -17 c 0
 79 -17 37 22 37 74 c 0
 37 133 66 155 167 181 c 0
 208 191 229 202 259 221 c 1
 259 291 l 2
 259 354 233 387 188 387 c 0xb3
 154 387 126 365 126 341 c 0
 126 331 133 318 120 312 c 2
 65 287 l 2
 50 280 45 295 45 307 c 0
 45 333 66 358 111 393 c 0
 147 420 175 431 206 431 c 0xa7
 247 431 289 411 315 380 c 0
 321 373 325 377 330 383 c 0
 366 415 409 433 460 433 c 0
 531 433 569 404 604 328 c 0
 606 323 608 319 610 315 c 0
 614 305 617 302 627 292 c 1
 627 277 l 2xb3
524 309 m 0
 512 366 477 399 438 399 c 0
 391 399 357 366 343 307 c 0
 341 296 358 297 365 297 c 2
 514 297 l 2
 520 297 526 303 524 309 c 0
259 78 m 1
 259 171 l 2
 259 179 255 183 249 180 c 0
 235 173 217 164 187 154 c 0
 131 135 116 120 116 88 c 0
 116 54 138 31 171 31 c 0xb3
 197 31 226 46 259 78 c 1
EndSplineSet
EndChar
StartChar: ccedilla
Encoding: 231 231 129
Width: 422
Flags: W
HStem: -234 30<187 197 179 219.5> -12 54<197 268.5> 331 101<200 360> 394 38<200 241>
VStem: 25 80<164.5 259.5> 232 56<-166 -134>
LayerCount: 2
Fore
SplineSet
386 112 m 0xdc
 393 107 387 96 385 93 c 0
 347 35 298 -1 240 -10 c 1
 222 -43 l 2
 218 -50 214 -59 220 -60 c 0
 258 -65 288 -98 288 -140 c 0
 288 -192 245 -234 194 -234 c 0
 180 -234 168 -233 151 -227 c 0
 148 -226 144 -218 147 -212 c 0
 149 -210 150 -207 151 -205 c 0
 156 -196 175 -204 183 -204 c 0
 211 -204 232 -183 232 -158 c 0
 232 -110 184 -115 150 -143 c 0
 146 -147 133 -140 138 -132 c 2
 202 -26 l 2
 205 -20 204 -12 197 -12 c 0
 96 -7 25 79 25 193 c 0
 25 326 133 432 267 432 c 0
 330 432 386 407 386 368 c 0
 386 347 370 331 350 331 c 0xec
 329 331 314 341 288 366 c 0
 266 388 251 394 231 394 c 0
 165 394 105 313 105 216 c 0
 105 113 164 42 243 42 c 0
 294 42 333 68 361 109 c 0
 363 114 371 123 378 121 c 0
 384 118 382 117 386 112 c 0xdc
EndSplineSet
EndChar
StartChar: ecircumflex
Encoding: 234 234 132
Width: 424
Flags: MW
HStem: -15 64<206 229> 267 32<116 276 126 276 276 280 126 388> 398 31<185.5 228.5>
VStem: 24 75<175.5 233.5 175.5 267>
LayerCount: 2
Fore
SplineSet
401 276 m 0
 401 269 394 267 388 267 c 0
 311 264 184 266 120 267 c 0
 112 267 102 264 101 257 c 0
 99 246 99 240 99 227 c 0
 99 124 164 49 248 49 c 0
 297 49 334 67 373 113 c 0
 376 116 383 119 388 118 c 0
 396 116 402 104 398 97 c 0
 379 75 353 49 327 28 c 0
 293 2 249 -15 209 -15 c 0
 103 -15 24 81 24 202 c 0
 24 332 111 429 229 429 c 0
 299 429 348 403 373 341 c 2
 380 324 l 2
 387 312 392 303 401 292 c 0
 403 286 403 283 401 276 c 0
300 311 m 0
 285 366 250 398 207 398 c 0
 164 398 129 367 110 307 c 0
 108 302 122 299 126 299 c 2
 276 299 l 2
 284 299 302 302 300 311 c 0
361 486 m 2
 363 481 366 474 360 473 c 0
 353 471 343 472 340 475 c 2
 218 579 l 1
 103 475 l 2
 95 468 75 473 79 481 c 2
 168 637 l 2
 171 642 176 645 181 647 c 0
 188 648 243 649 256 648 c 0
 266 647 268 646 273 638 c 2
 361 486 l 2
EndSplineSet
EndChar
StartChar: edieresis
Encoding: 235 235 133
Width: 424
Flags: W
HStem: -15 64<206 229> 267 32<116 276 126 276 276 280 126 388> 398 31<185.5 228.5> 484 114<130 161.5 298.5 330.5>
VStem: 24 75<175.5 233.5 175.5 267> 88 115<524.5 556.5> 257 114<525.5 556.5 525.5 556.5>
LayerCount: 2
Fore
SplineSet
371 541 m 0xf6
 371 510 347 484 314 484 c 0
 283 484 257 509 257 541 c 0
 257 572 283 598 314 598 c 0
 347 598 371 572 371 541 c 0xf6
203 541 m 0
 203 508 177 484 146 484 c 0
 114 484 88 508 88 541 c 0
 88 572 114 598 146 598 c 0
 177 598 203 572 203 541 c 0
401 276 m 0
 401 269 394 267 388 267 c 0
 311 264 184 266 120 267 c 0
 112 267 102 264 101 257 c 0
 99 246 99 240 99 227 c 0
 99 124 164 49 248 49 c 0
 297 49 334 67 373 113 c 0
 376 116 383 119 388 118 c 0
 396 116 402 104 398 97 c 0
 379 75 353 49 327 28 c 0
 293 2 249 -15 209 -15 c 0
 103 -15 24 81 24 202 c 0xfa
 24 332 111 429 229 429 c 0
 299 429 348 403 373 341 c 2
 380 324 l 2
 387 312 392 303 401 292 c 0
 403 286 403 283 401 276 c 0
300 311 m 0
 285 366 250 398 207 398 c 0
 164 398 129 367 110 307 c 0
 108 302 122 299 126 299 c 2
 276 299 l 2
 284 299 302 302 300 311 c 0
EndSplineSet
EndChar
StartChar: igrave
Encoding: 236 236 135
Width: 262
Flags: W
HStem: -2 32<29 40 40 69.5 229 240> 637 20G<1 7> 638 20G<84 88.5>
VStem: 100 78<125 304 304 329>
LayerCount: 2
Fore
SplineSet
246 13 m 0xb0
 246 6 242 -2 240 -2 c 0
 189 -1 96 -1 29 -2 c 0
 25 -3 21 5 20 13 c 0
 19 21 21 30 27 30 c 2
 40 30 l 2
 99 30 100 40 100 125 c 2
 100 304 l 2
 100 354 98 354 73 359 c 0
 58 362 46 365 32 370 c 0
 25 372 25 391 31 395 c 2
 158 439 l 2
 172 444 178 440 178 425 c 2
 178 125 l 2
 178 104 178 87 179 73 c 0
 181 35 188 30 229 30 c 2
 240 30 l 2
 244 29 247 21 246 13 c 0xb0
152 487 m 0
 153 474 135 473 127 480 c 0
 95 522 36 591 -7 638 c 0xb0
 -13 644 -5 657 7 657 c 2xd0
 84 658 l 2
 93 658 98 658 103 650 c 0
 120 605 142 530 152 487 c 0
EndSplineSet
EndChar
StartChar: iacute
Encoding: 237 237 134
Width: 262
Flags: MW
HStem: -2 32<29 40 40 69.5 229 240> 641 20G<145 233 233 233>
VStem: 100 78<125 304 304 329>
LayerCount: 2
Fore
SplineSet
246 13 m 0
 246 6 242 -2 240 -2 c 0
 189 -1 96 -1 29 -2 c 0
 25 -3 21 5 20 13 c 0
 19 21 21 30 27 30 c 2
 40 30 l 2
 99 30 100 40 100 125 c 2
 100 304 l 2
 100 354 98 354 73 359 c 0
 58 362 46 365 32 370 c 0
 25 372 25 391 31 395 c 2
 158 439 l 2
 172 444 178 440 178 425 c 2
 178 125 l 2
 178 104 178 87 179 73 c 0
 181 35 188 30 229 30 c 2
 240 30 l 2
 244 29 247 21 246 13 c 0
247 652 m 0
 247 650 246 648 246 647 c 2
 103 475 l 2
 97 468 72 468 77 484 c 2
 126 648 l 2
 130 656 138 661 145 661 c 2
 233 661 l 2
 240 662 249 660 247 652 c 0
EndSplineSet
Validated: 33
EndChar
StartChar: icircumflex
Encoding: 238 238 136
Width: 262
Flags: MW
HStem: -2 32<29 40 40 69.5 229 240>
VStem: 100 78<125 304 304 329>
LayerCount: 2
Fore
SplineSet
246 13 m 0
 246 6 242 -2 240 -2 c 0
 189 -1 96 -1 29 -2 c 0
 25 -3 21 5 20 13 c 0
 19 21 21 30 27 30 c 2
 40 30 l 2
 99 30 100 40 100 125 c 2
 100 304 l 2
 100 354 98 354 73 359 c 0
 58 362 46 365 32 370 c 0
 25 372 25 391 31 395 c 2
 158 439 l 2
 172 444 178 440 178 425 c 2
 178 125 l 2
 178 104 178 87 179 73 c 0
 181 35 188 30 229 30 c 2
 240 30 l 2
 244 29 247 21 246 13 c 0
271 486 m 2
 273 481 276 474 270 473 c 0
 263 471 253 472 250 475 c 2
 128 579 l 1
 13 475 l 2
 5 468 -15 473 -11 481 c 2
 78 637 l 2
 81 642 86 645 91 647 c 0
 98 648 153 649 166 648 c 0
 176 647 178 646 183 638 c 2
 271 486 l 2
EndSplineSet
Validated: 33
EndChar
StartChar: idieresis
Encoding: 239 239 137
Width: 262
Flags: W
HStem: -2 32<29 40 40 69.5 229 240> 481 120<30.5 63.5 207.5 241>
VStem: -13 120<524 557.5> 100 78<125 304 304 329> 164 121<524.5 557.5>
LayerCount: 2
Fore
SplineSet
246 13 m 0xd0
 246 6 242 -2 240 -2 c 0
 189 -1 96 -1 29 -2 c 0
 25 -3 21 5 20 13 c 0
 19 21 21 30 27 30 c 2
 40 30 l 2
 99 30 100 40 100 125 c 2
 100 304 l 2
 100 354 98 354 73 359 c 0
 58 362 46 365 32 370 c 0
 25 372 25 391 31 395 c 2
 158 439 l 2
 172 444 178 440 178 425 c 2
 178 125 l 2
 178 104 178 87 179 73 c 0
 181 35 188 30 229 30 c 2
 240 30 l 2
 244 29 247 21 246 13 c 0xd0
285 541 m 0xe8
 285 508 258 481 224 481 c 0
 191 481 164 508 164 541 c 0
 164 574 191 601 224 601 c 0
 258 601 285 574 285 541 c 0xe8
107 541 m 0
 107 507 80 481 47 481 c 0
 14 481 -13 507 -13 541 c 0
 -13 574 14 601 47 601 c 0
 80 601 107 574 107 541 c 0
EndSplineSet
EndChar
StartChar: eth
Encoding: 240 240 2
Width: 545
Flags: MW
HStem: -17 36<245.5 305.5> 399 37<223 283 207.5 302>
VStem: 46 86<180 274> 416 87<190.5 240.5>
LayerCount: 2
Fore
SplineSet
503 237 m 0
 503 144 482 85 430 40 c 0
 389 3 335 -17 276 -17 c 0
 142 -17 46 78 46 210 c 0
 46 338 144 436 271 436 c 0
 295 436 313 433 332 426 c 0
 344 422 356 428 347 447 c 0
 340 462 334 473 325 486 c 0
 309 510 297 524 269 549 c 0
 261 557 242 561 229 554 c 2
 102 487 l 2
 98 486 91 487 86 496 c 0
 81 507 83 514 93 519 c 2
 202 576 l 2
 210 580 214 593 203 599 c 0
 184 611 166 619 135 630 c 0
 133 630 117 636 123 647 c 2
 131 661 l 2
 136 670 147 674 156 671 c 0
 218 654 242 644 284 620 c 1
 378 667 l 2
 392 671 397 668 401 660 c 0
 405 654 404 645 394 640 c 2
 338 610 l 2
 325 603 323 592 336 583 c 0
 358 566 373 551 395 525 c 0
 415 501 432 477 445 454 c 0
 482 388 503 309 503 237 c 0
416 176 m 0
 416 305 346 399 258 399 c 0
 188 399 132 333 132 243 c 0
 132 117 203 19 288 19 c 0
 362 19 416 83 416 176 c 0
EndSplineSet
Validated: 33
EndChar
StartChar: ntilde
Encoding: 241 241 138
Width: 516
Flags: W
HStem: -2 33<289.5 295 459.5 483> 374 54<275 380> 469 71<344 347> 537 70<162.5 168.5> 592 20G<400 403>
VStem: 95 71 362 55 362 71
LayerCount: 2
Fore
SplineSet
417 593 m 0xee
 417 522 376 469 318 469 c 0xee
 291 469 258 482 221 508 c 0
 183 534 175 537 162 537 c 0
 143 537 133 526 125 490 c 0
 125 486 123 482 122 472 c 0
 118 464 97 459 95 472 c 0
 99 558 132 607 193 607 c 0xd6
 223 607 246 598 291 567 c 0
 322 546 338 540 350 540 c 0
 371 540 382 552 390 606 c 0
 390 610 397 612 403 612 c 0
 409 613 415 610 415 606 c 0
 417 600 417 596 417 593 c 0xee
501 7 m 0
 499 -3 497 -2 486 -2 c 0
 436 -3 348 0 296 -2 c 0
 283 -2 281 1 280 14 c 0
 280 21 282 31 288 31 c 2
 295 31 l 1
 339 35 352 46 356 87 c 0
 362 145 362 204 362 263 c 0
 362 340 337 374 289 374 c 0
 261 374 210 349 166 315 c 1
 166 89 l 2
 166 37 177 31 227 31 c 0
 232 31 235 21 236 14 c 0
 236 2 233 -2 222 -3 c 0
 171 -1 84 -5 31 -2 c 0
 27 -2 19 -2 17 3 c 0
 14 12 15 29 25 29 c 2
 31 29 l 2
 77 29 88 43 88 133 c 2
 88 270 l 2
 88 328 87 345 84 351 c 0
 81 358 76 361 45 367 c 2
 25 371 l 2
 18 372 18 395 25 398 c 0
 57 403 106 433 143 441 c 0
 159 445 166 436 166 424 c 2
 166 369 l 2
 166 367 171 353 177 357 c 0
 207 378 228 392 260 408 c 0
 287 421 309 428 330 428 c 0
 430 428 441 321 441 248 c 0
 441 188 433 128 433 67 c 0xed
 433 38 436 31 483 31 c 0
 488 34 495 33 499 28 c 0
 502 23 503 14 501 7 c 0
EndSplineSet
EndChar
StartChar: ograve
Encoding: 242 242 140
Width: 495
Flags: W
HStem: -15 37<221.5 298 221.5 314> 394 36<199 275> 637 20G<176 182> 638 20G<259 263>
VStem: 23 87<178 271> 387 89<144 206 144 240>
LayerCount: 2
Fore
SplineSet
327 487 m 0xdc
 328 474 309 473 302 480 c 0
 270 522 211 591 167 638 c 0xdc
 162 644 170 657 182 657 c 2xec
 259 658 l 2
 267 658 273 658 278 650 c 0
 295 605 317 530 327 487 c 0xdc
476 206 m 0
 476 82 377 -15 251 -15 c 0
 121 -15 23 81 23 207 c 0
 23 335 120 430 248 430 c 0
 377 430 477 333 476 206 c 0
387 182 m 0
 387 298 316 394 234 394 c 0
 164 394 110 329 110 239 c 0
 110 117 180 22 263 22 c 0
 333 22 387 88 387 182 c 0
EndSplineSet
Validated: 33
EndChar
StartChar: oacute
Encoding: 243 243 139
Width: 495
Flags: MW
HStem: -15 37<221.5 298 221.5 314> 394 36<199 275> 641 20G<283 372 372 375.5>
VStem: 23 87<178 271> 387 89<144 206 144 240>
LayerCount: 2
Fore
SplineSet
386 652 m 0
 386 650 385 648 385 647 c 2
 242 475 l 2
 235 468 211 468 216 484 c 2
 265 648 l 2
 269 656 277 661 283 661 c 2
 372 661 l 2
 379 661 388 660 386 652 c 0
476 206 m 0
 476 82 377 -15 251 -15 c 0
 121 -15 23 81 23 207 c 0
 23 335 120 430 248 430 c 0
 377 430 477 333 476 206 c 0
387 182 m 0
 387 298 316 394 234 394 c 0
 164 394 110 329 110 239 c 0
 110 117 180 22 263 22 c 0
 333 22 387 88 387 182 c 0
EndSplineSet
Validated: 33
EndChar
StartChar: ocircumflex
Encoding: 244 244 141
Width: 495
Flags: MW
HStem: -15 37<221.5 298 221.5 314> 394 36<199 275>
VStem: 23 87<178 271> 387 89<144 206 144 240>
LayerCount: 2
Fore
SplineSet
476 206 m 0
 476 82 377 -15 251 -15 c 0
 121 -15 23 81 23 207 c 0
 23 335 120 430 248 430 c 0
 377 430 477 333 476 206 c 0
387 182 m 0
 387 298 316 394 234 394 c 0
 164 394 110 329 110 239 c 0
 110 117 180 22 263 22 c 0
 333 22 387 88 387 182 c 0
384 486 m 2
 386 481 389 474 383 473 c 0
 376 471 366 472 363 475 c 2
 241 579 l 1
 126 475 l 2
 118 468 98 473 102 481 c 2
 191 637 l 2
 194 642 199 645 204 647 c 0
 211 648 266 649 279 648 c 0
 289 647 291 646 296 638 c 2
 384 486 l 2
EndSplineSet
EndChar
StartChar: otilde
Encoding: 245 245 143
Width: 495
Flags: W
HStem: -15 37<221.5 298 221.5 314> 394 36<199 275> 469 71<332 335> 537 70<150.5 156.5> 592 20G<388 391>
VStem: 23 87<178 271> 387 89<144 206 144 240>
LayerCount: 2
Fore
SplineSet
476 206 m 0xee
 476 82 377 -15 251 -15 c 0
 121 -15 23 81 23 207 c 0
 23 335 120 430 248 430 c 0
 377 430 477 333 476 206 c 0xee
387 182 m 0
 387 298 316 394 234 394 c 0
 164 394 110 329 110 239 c 0
 110 117 180 22 263 22 c 0
 333 22 387 88 387 182 c 0
405 593 m 0
 405 522 364 469 306 469 c 0xee
 279 469 247 482 209 508 c 0
 172 534 163 537 150 537 c 0
 131 537 121 526 113 490 c 0
 113 486 111 482 110 472 c 0
 106 464 85 459 83 472 c 0
 87 558 120 607 181 607 c 0xd6
 211 607 234 598 279 567 c 0
 310 546 326 540 338 540 c 0
 359 540 370 552 378 606 c 0
 378 610 385 612 391 612 c 0
 397 613 403 610 403 606 c 0
 405 600 405 596 405 593 c 0
EndSplineSet
EndChar
StartChar: odieresis
Encoding: 246 246 142
Width: 495
Flags: W
HStem: -15 37<221.5 298 221.5 314> 394 36<199 275> 484 114<151.5 182.5 319.5 351.5>
VStem: 23 87<178 271> 110 114<524.5 556.5> 278 115<525.5 556.5 525.5 556.5> 387 89<144 206 144 240>
LayerCount: 2
Fore
SplineSet
393 541 m 0xfc
 393 510 368 484 335 484 c 0
 304 484 278 509 278 541 c 0
 278 572 304 598 335 598 c 0
 368 598 393 572 393 541 c 0xfc
224 541 m 0
 224 508 198 484 167 484 c 0
 136 484 110 508 110 541 c 0
 110 572 136 598 167 598 c 0
 198 598 224 572 224 541 c 0
476 206 m 0xfa
 476 82 377 -15 251 -15 c 0
 121 -15 23 81 23 207 c 0
 23 335 120 430 248 430 c 0
 377 430 477 333 476 206 c 0xfa
387 182 m 0
 387 298 316 394 234 394 c 0
 164 394 110 329 110 239 c 0
 110 117 180 22 263 22 c 0
 333 22 387 88 387 182 c 0
EndSplineSet
EndChar
StartChar: divide
Encoding: 247 247 189
Width: 699
Flags: MW
HStem: 87 85<338.5 362> 306 65<105 106 106 583 583 600> 508 84<339 361.5 339 361.5>
VStem: 307 85<118.5 142 118.5 142 553 562.5>
LayerCount: 2
Fore
SplineSet
392 551 m 0
 392 527 373 508 350 508 c 0
 326 508 306 528 307 553 c 0
 307 576 328 592 350 592 c 0
 373 592 392 574 392 551 c 0
631 326 m 2
 632 307 614 306 600 306 c 2
 106 306 l 2
 95 306 74 317 74 328 c 2
 74 353 l 2
 74 371 92 371 105 371 c 2
 583 371 l 2
 590 371 596 371 601 371 c 0
 606 371 611 371 615 370 c 0
 623 368 628 364 629 355 c 2
 631 326 l 2
392 130 m 0
 392 107 374 87 350 87 c 0
 327 87 307 106 307 130 c 0
 307 154 327 172 350 172 c 0
 374 172 392 154 392 130 c 0
EndSplineSet
Validated: 33
EndChar
StartChar: oslash
Encoding: 248 248 169
Width: 545
Flags: MW
HStem: -17 37<271 324.5 271 341.5> 396 36<225 279.5>
VStem: 46 90<216.5 271> 416 88<143.5 201.5>
LayerCount: 2
Fore
SplineSet
504 207 m 0
 504 80 405 -17 278 -17 c 0
 232 -17 187 -4 147 21 c 0
 142 24 137 24 132 18 c 2
 78 -49 l 2
 73 -54 67 -54 62 -49 c 2
 51 -40 l 2
 47 -37 51 -29 54 -25 c 2
 107 36 l 2
 112 42 115 46 110 51 c 0
 67 93 46 144 46 206 c 0
 46 336 144 432 275 432 c 0
 324 432 366 419 408 392 c 0
 411 390 420 396 421 398 c 2
 466 451 l 2
 470 455 474 455 478 451 c 2
 478 451 488 443 488 442 c 0
 495 435 485 425 481 421 c 0
 462 399 469 407 443 376 c 0
 441 374 437 368 441 364 c 0
 484 320 504 270 504 207 c 0
361 330 m 2
 366 336 364 340 361 344 c 0
 333 378 298 396 261 396 c 0
 189 396 136 331 136 238 c 0
 136 195 144 153 162 116 c 0
 164 113 173 112 177 118 c 2
 361 330 l 2
416 182 m 0
 416 221 407 260 388 298 c 0
 386 303 382 306 378 302 c 2
 190 84 l 2
 186 80 187 75 190 72 c 0
 218 38 253 20 289 20 c 0
 360 20 416 87 416 182 c 0
EndSplineSet
EndChar
StartChar: ugrave
Encoding: 249 249 145
Width: 534
Flags: W
HStem: -10 59<221.5 232> 637 20G<166 172> 638 20G<249 253>
VStem: 88 79<130 184 184 339 339 349.5> 371 77<9 79 118 291 291 301>
LayerCount: 2
Fore
SplineSet
317 487 m 0xb8
 318 474 299 473 292 480 c 0
 260 522 201 591 157 638 c 0xb8
 152 644 160 657 172 657 c 2xd8
 249 658 l 2
 257 658 263 658 268 650 c 0
 285 605 307 530 317 487 c 0xb8
513 31 m 0
 483 18 433 2 399 -5 c 0
 384 -8 372 -10 371 9 c 2
 369 48 l 2
 369 51 366 67 362 63 c 0
 314 28 263 -10 201 -10 c 0
 123 -10 88 43 88 128 c 2
 88 339 l 2
 88 360 86 371 66 376 c 0
 53 381 39 384 26 388 c 0
 21 389 14 410 26 413 c 0
 57 420 116 436 151 443 c 0
 163 445 167 432 167 424 c 2
 167 184 l 2
 167 76 188 49 255 49 c 0
 286 49 328 68 367 99 c 0
 367 100 371 110 371 118 c 2
 371 291 l 2
 371 311 372 331 368 350 c 0
 364 366 355 378 338 381 c 0
 325 384 322 384 316 386 c 0
 311 387 303 388 283 391 c 0
 275 395 277 415 285 417 c 0
 326 426 392 440 428 444 c 0
 439 445 448 441 448 428 c 2
 448 110 l 1
 448 79 l 2
 448 48 471 52 491 57 c 0
 498 59 505 61 512 63 c 0
 524 65 525 33 513 31 c 0
EndSplineSet
EndChar
StartChar: uacute
Encoding: 250 250 144
Width: 534
Flags: MW
HStem: -10 59<221.5 232> 641 20G<283 372 372 375.5>
VStem: 88 79<130 184 184 339 339 349.5> 371 77<9 79 118 291 291 301>
LayerCount: 2
Fore
SplineSet
386 652 m 0
 386 650 385 648 385 647 c 2
 242 475 l 2
 235 468 211 468 216 484 c 2
 265 648 l 2
 269 656 277 661 283 661 c 2
 372 661 l 2
 379 661 388 660 386 652 c 0
513 31 m 0
 483 18 433 2 399 -5 c 0
 384 -8 372 -10 371 9 c 2
 369 48 l 2
 369 51 366 67 362 63 c 0
 314 28 263 -10 201 -10 c 0
 123 -10 88 43 88 128 c 2
 88 339 l 2
 88 360 86 371 66 376 c 0
 53 381 39 384 26 388 c 0
 21 389 14 410 26 413 c 0
 57 420 116 436 151 443 c 0
 163 445 167 432 167 424 c 2
 167 184 l 2
 167 76 188 49 255 49 c 0
 286 49 328 68 367 99 c 0
 367 100 371 110 371 118 c 2
 371 291 l 2
 371 311 372 331 368 350 c 0
 364 366 355 378 338 381 c 0
 325 384 322 384 316 386 c 0
 311 387 303 388 283 391 c 0
 275 395 277 415 285 417 c 0
 326 426 392 440 428 444 c 0
 439 445 448 441 448 428 c 2
 448 110 l 1
 448 79 l 2
 448 48 471 52 491 57 c 0
 498 59 505 61 512 63 c 0
 524 65 525 33 513 31 c 0
EndSplineSet
Validated: 33
EndChar
StartChar: ucircumflex
Encoding: 251 251 146
Width: 534
Flags: MW
HStem: -10 59<221.5 232>
VStem: 88 79<130 184 184 339 339 349.5> 371 77<9 79 118 291 291 301>
LayerCount: 2
Fore
SplineSet
513 31 m 0
 483 18 433 2 399 -5 c 0
 384 -8 372 -10 371 9 c 2
 369 48 l 2
 369 51 366 67 362 63 c 0
 314 28 263 -10 201 -10 c 0
 123 -10 88 43 88 128 c 2
 88 339 l 2
 88 360 86 371 66 376 c 0
 53 381 39 384 26 388 c 0
 21 389 14 410 26 413 c 0
 57 420 116 436 151 443 c 0
 163 445 167 432 167 424 c 2
 167 184 l 2
 167 76 188 49 255 49 c 0
 286 49 328 68 367 99 c 0
 367 100 371 110 371 118 c 2
 371 291 l 2
 371 311 372 331 368 350 c 0
 364 366 355 378 338 381 c 0
 325 384 322 384 316 386 c 0
 311 387 303 388 283 391 c 0
 275 395 277 415 285 417 c 0
 326 426 392 440 428 444 c 0
 439 445 448 441 448 428 c 2
 448 110 l 1
 448 79 l 2
 448 48 471 52 491 57 c 0
 498 59 505 61 512 63 c 0
 524 65 525 33 513 31 c 0
387 486 m 2
 389 481 392 474 386 473 c 0
 379 471 369 472 366 475 c 2
 244 579 l 1
 129 475 l 2
 121 468 101 473 105 481 c 2
 194 637 l 2
 197 642 202 645 207 647 c 0
 214 648 269 649 282 648 c 0
 292 647 294 646 299 638 c 2
 387 486 l 2
EndSplineSet
Validated: 33
EndChar
StartChar: udieresis
Encoding: 252 252 147
Width: 534
Flags: W
HStem: -10 59<221.5 232> 484 114<163.5 195 332 364>
VStem: 88 79<130 184 184 339 339 349.5> 122 115<524.5 556.5> 290 115<525.5 556.5 525.5 556.5> 371 77<9 79 118 291 291 301>
LayerCount: 2
Fore
SplineSet
405 541 m 0xd8
 405 510 380 484 348 484 c 0
 316 484 290 509 290 541 c 0
 290 572 316 598 348 598 c 0
 380 598 405 572 405 541 c 0xd8
237 541 m 0
 237 508 211 484 179 484 c 0
 148 484 122 508 122 541 c 0
 122 572 148 598 179 598 c 0
 211 598 237 572 237 541 c 0
513 31 m 0
 483 18 433 2 399 -5 c 0
 384 -8 372 -10 371 9 c 2
 369 48 l 2
 369 51 366 67 362 63 c 0
 314 28 263 -10 201 -10 c 0
 123 -10 88 43 88 128 c 2
 88 339 l 2
 88 360 86 371 66 376 c 0
 53 381 39 384 26 388 c 0
 21 389 14 410 26 413 c 0
 57 420 116 436 151 443 c 0
 163 445 167 432 167 424 c 2
 167 184 l 2
 167 76 188 49 255 49 c 0
 286 49 328 68 367 99 c 0
 367 100 371 110 371 118 c 2
 371 291 l 2
 371 311 372 331 368 350 c 0
 364 366 355 378 338 381 c 0
 325 384 322 384 316 386 c 0
 311 387 303 388 283 391 c 0
 275 395 277 415 285 417 c 0
 326 426 392 440 428 444 c 0
 439 445 448 441 448 428 c 2
 448 110 l 1
 448 79 l 2xe4
 448 48 471 52 491 57 c 0
 498 59 505 61 512 63 c 0
 524 65 525 33 513 31 c 0
EndSplineSet
EndChar
StartChar: yacute
Encoding: 253 253 8
Width: 488
Flags: W
HStem: -264 21G<111.5 132.5> 389 30<457 472> 398 20G<305 313 311.5 313> 401 20G<199 203> 641 20G<256 345 345 348.5>
LayerCount: 2
Fore
SplineSet
359 652 m 0xc8
 359 650 358 648 358 647 c 2
 215 475 l 2
 208 468 184 468 189 484 c 2
 238 648 l 2
 242 656 249 661 256 661 c 2
 345 661 l 2
 352 661 361 660 359 652 c 0xc8
476 410 m 0
 478 402 474 389 470 389 c 0
 430 384 413 368 372 259 c 2
 248 -75 l 2
 230 -122 218 -155 206 -182 c 0
 195 -208 184 -226 170 -243 c 0
 159 -257 141 -264 124 -264 c 0
 99 -264 77 -243 77 -219 c 0
 77 -196 95 -184 127 -176 c 0
 167 -165 192 -135 217 -54 c 2
 231 -8 l 1
 103 294 l 2
 66 382 62 385 15 389 c 0
 11 390 7 402 9 410 c 0
 12 421 20 420 29 419 c 0xc8
 71 416 151 420 199 421 c 0x98
 207 421 215 422 218 413 c 0
 220 404 217 390 212 389 c 0
 167 388 160 379 160 364 c 0
 160 357 162 349 171 329 c 0
 204 256 233 179 263 105 c 0
 266 98 278 115 279 118 c 2
 339 271 l 2
 343 281 349 296 354 312 c 0
 359 327 363 343 363 353 c 0
 363 378 352 388 302 389 c 0xc8
 296 392 292 417 305 418 c 0
 307 419 310 418 313 418 c 0xa8
 349 420 426 421 457 419 c 0
 465 419 474 421 476 410 c 0
EndSplineSet
EndChar
StartChar: thorn
Encoding: 254 254 10
Width: 523
Flags: MW
HStem: -252 34<12 27 23 27> -1 44<264 314> 377 63<300 305>
VStem: 84 81<-111 -9 97 329 405 409 409 541 541 567 567 579.5> 399 81<174 250>
LayerCount: 2
Fore
SplineSet
480 238 m 0
 480 110 375 -1 253 -1 c 0
 229 -1 205 3 175 13 c 0
 166 16 165 3 165 -9 c 2
 165 -111 l 2
 165 -199 174 -222 230 -218 c 2
 245 -217 l 2
 258 -216 260 -219 261 -230 c 0
 263 -245 267 -253 246 -252 c 0
 191 -251 65 -250 17 -252 c 0
 7 -252 3 -249 3 -241 c 2
 4 -225 l 2
 5 -212 19 -218 27 -218 c 0
 75 -217 84 -210 84 -111 c 2
 84 541 l 1
 84 567 l 2
 84 592 82 593 58 600 c 2
 30 608 l 2
 20 611 19 621 19 629 c 0
 19 634 18 636 23 639 c 0
 24 640 26 641 28 642 c 2
 137 709 l 1
 157 716 165 715 165 693 c 2
 165 409 l 2
 165 401 166 392 168 385 c 0
 170 379 174 375 178 379 c 0
 243 424 280 440 320 440 c 0
 406 440 480 344 480 238 c 0
399 199 m 0
 399 301 341 377 269 377 c 0
 238 377 201 360 165 329 c 1
 165 97 l 1
 201 63 246 43 282 43 c 0
 348 43 399 108 399 199 c 0
EndSplineSet
Validated: 33
EndChar
StartChar: Lslash
Encoding: 321 321 3
Width: 578
Flags: MW
HStem: -5 49<415 419 286 478.5> 621 38<298 339>
VStem: 121 97<84 99 99 137 137 221 221 230.5 453.5 461 461 555 555 564>
LayerCount: 2
Fore
SplineSet
572 137 m 0
 561 117 538 79 502 8 c 0
 498 1 489 -5 468 -5 c 0
 362 -5 94 -3 44 -7 c 0
 34 -10 21 -4 17 8 c 1
 17 31 27 33 47 33 c 0
 87 33 106 37 114 52 c 0
 118 60 120 70 121 84 c 0
 121 97 121 115 121 137 c 2
 121 221 l 2
 121 240 120 250 103 236 c 2
 18 166 l 2
 12 160 -3 148 -3 173 c 2
 -3 246 l 1
 121 350 l 1
 121 555 l 2
 121 610 103 623 44 623 c 0
 35 623 25 625 24 636 c 0
 24 639 23 642 23 645 c 0
 23 648 24 650 25 652 c 0
 27 656 32 659 43 661 c 0
 90 663 291 659 333 659 c 0
 345 659 364 625 324 622 c 0
 318 622 309 621 298 621 c 0
 223 619 218 617 218 564 c 2
 218 461 l 2
 218 446 228 444 236 445 c 1
 329 523 l 2
 339 532 344 521 344 509 c 2
 344 438 l 1
 235 346 l 2
 228 340 218 325 218 310 c 2
 218 99 l 2
 218 45 240 44 286 44 c 2
 382 44 l 2
 456 44 465 46 514 113 c 2
 548 159 l 1
 566 159 l 2
 580 159 582 157 572 137 c 0
EndSplineSet
Validated: 33
EndChar
StartChar: lslash
Encoding: 322 322 4
Width: 251
Flags: W
HStem: -4 32<13 44.5 208 236>
VStem: -30 199<180 259 259 259> 89 80<96 97 97 136 136 143 143 243 243 247.5 440 447 447 559 559 613 613 615> 89 194<136 436 243 436 432.5 436 436 494 432.5 559 432.5 613 432.5 615>
LayerCount: 2
Fore
SplineSet
283 436 m 2x90
 283 429 277 418 268 410 c 2
 181 336 l 2
 172 329 169 321 169 308 c 2
 169 143 l 1
 169 97 l 2
 169 39 182 28 234 28 c 0
 244 28 248 22 248 13 c 0
 249 -1 239 -4 236 -4 c 0
 182 -3 70 -2 13 -4 c 0
 7 -3 3 2 3 9 c 0
 3 21 4 28 17 28 c 0
 72 28 89 44 89 96 c 2
 89 136 l 1
 89 243 l 2xa0
 89 252 84 257 76 250 c 2
 -11 177 l 2
 -21 168 -30 165 -30 180 c 2
 -30 259 l 1xc0
 73 346 l 2
 82 353 89 359 89 374 c 2
 89 559 l 1
 89 613 l 2xa0
 89 617 85 626 82 628 c 0
 77 631 70 632 51 635 c 2
 10 641 l 2
 7 643 3 648 4 655 c 0
 3 661 6 666 10 668 c 2
 152 708 l 2
 166 712 169 706 169 689 c 2
 169 447 l 2xc0
 169 433 176 431 183 437 c 2
 266 507 l 2
 281 520 283 507 283 494 c 2
 283 436 l 2x90
EndSplineSet
EndChar
StartChar: OE
Encoding: 338 338 181
Width: 1036
Flags: W
HStem: -12 37<342 425.5> -12 57 -4 21G<886.5 955.5> 314 49<657 792 674 792 792 801> 609 49<661 664 664 839> 628 30 644 20G<380.5 436>
VStem: 60 102<251.5 387.5> 547 98<226 297 368.5 375 375 510 510 549.5>
LayerCount: 2
Fore
SplineSet
993 145 m 0x5980
 993 105 984 51 979 15 c 0
 976 -4 964 -4 947 -4 c 0x3980
 826 -4 715 -3 594 -3 c 0
 526 -3 459 -12 392 -12 c 0
 207 -12 60 135 60 321 c 0
 60 454 133 574 247 630 c 0
 296 654 344 664 417 664 c 0x9380
 455 664 491 662 528 660 c 0
 562 658 574 657 585 657 c 0
 596 657 607 658 639 658 c 2
 927 658 l 2
 942 658 945 656 947 640 c 0
 951 601 955 547 954 517 c 0
 954 510 954 505 945 505 c 0
 931 505 927 499 923 515 c 2
 918 535 l 2
 901 602 893 609 839 609 c 2
 664 609 l 2
 658 609 645 603 645 594 c 2
 645 375 l 2
 645 362 665 363 674 363 c 2
 792 363 l 2
 830 363 846 366 856 375 c 0
 867 387 871 417 873 433 c 0
 874 438 876 444 883 444 c 2
 897 444 l 2
 905 444 904 439 905 433 c 0
 907 389 906 307 905 254 c 0
 905 248 906 232 897 232 c 2
 883 232 l 2
 875 232 874 240 873 247 c 0
 868 305 855 314 801 314 c 2
 663 314 l 2
 651 314 645 304 645 297 c 2
 645 62 l 2
 645 55 662 45 671 45 c 2
 817 45 l 2
 895 45 908 49 929 74 c 0
 943 92 953 112 962 146 c 0
 965 156 961 161 974 161 c 2
 985 161 l 2
 993 161 994 156 993 145 c 0x5980
547 226 m 2
 547 510 l 2
 547 589 502 628 404 628 c 0
 253 628 162 522 162 341 c 0
 162 162 272 25 412 25 c 0x9580
 449 25 481 35 506 54 c 0
 541 81 547 104 547 226 c 2
EndSplineSet
Validated: 33
EndChar
StartChar: oe
Encoding: 339 339 182
Width: 775
Flags: W
HStem: -17 37<246.5 307.5> -17 57<563.5 570.5> 265 32<486.5 626 494 626 626 630.5 494 734> 376 20G<223 294> 402 29<546 579>
VStem: 48 88<176.5 271> 390 75<190.5 245.5>
LayerCount: 2
Fore
SplineSet
747 275 m 2xbe
 747 266 738 265 734 265 c 2
 493 265 l 2
 480 265 465 266 465 250 c 0
 465 131 527 40 600 40 c 0x7e
 630 40 666 62 716 112 c 0
 726 122 731 112 737 105 c 0
 743 99 740 93 735 88 c 0
 710 60 679 34 650 14 c 0
 619 -6 587 -17 554 -17 c 0
 509 -17 469 5 439 48 c 0
 436 51 431 52 428 48 c 0
 389 4 339 -17 276 -17 c 0
 147 -17 48 81 48 209 c 0
 48 333 148 431 274 431 c 0
 331 431 381 410 415 369 c 0
 420 363 427 364 434 371 c 0
 475 413 518 431 574 431 c 0
 647 431 694 400 719 334 c 0
 728 312 733 303 747 290 c 1
 747 275 l 2xbe
639 311 m 0
 634 365 600 402 558 402 c 0
 514 402 482 370 471 307 c 0
 470 301 484 297 494 297 c 2
 626 297 l 2
 635 297 640 302 639 311 c 0
390 181 m 0
 390 310 332 396 256 396 c 0
 190 396 136 328 136 234 c 0
 136 119 208 20 285 20 c 0xbe
 349 20 390 77 390 181 c 0
EndSplineSet
Validated: 33
EndChar
StartChar: scaron
Encoding: 353 353 6
Width: 316
Flags: W
HStem: -10 30<146 169 130 190> 398 37<137 171> 435 46<130 182.5> 642 20G<295.5 301.5> 643 20G<17.5 22>
VStem: 34 64<330.5 349> 216 69<78 108.5>
LayerCount: 2
Fore
SplineSet
310 657 m 2xf6
 213 486 l 2
 210 482 207 481 199 481 c 2
 123 481 l 2
 112 481 107 484 106 489 c 2
 9 656 l 2
 8 659 9 661 11 662 c 0xf6
 13 663 16 663 19 663 c 0xee
 25 663 33 662 36 658 c 2
 170 553 l 1
 283 658 l 2
 286 660 293 662 298 662 c 0
 305 662 311 660 310 657 c 2xf6
285 113 m 0
 285 43 226 -10 154 -10 c 0
 138 -10 118 -7 104 -3 c 0
 98 -1 90 3 84 4 c 0
 80 4 75 1 71 -9 c 1
 65 -11 61 -14 55 -12 c 0
 49 -11 46 -9 45 -2 c 0
 41 28 35 81 36 112 c 0
 35 121 47 121 56 120 c 0
 61 118 62 114 63 110 c 0
 77 49 109 20 151 20 c 0
 187 20 216 49 216 84 c 0
 216 133 162 164 126 189 c 0
 81 219 34 254 34 313 c 0
 34 385 91 435 169 435 c 0
 196 435 224 428 253 416 c 1
 255 390 257 340 255 314 c 0
 255 312 248 309 241 309 c 0
 234 309 227 311 228 314 c 0
 218 369 189 398 153 398 c 0
 121 398 98 375 98 345 c 0
 98 316 125 290 158 266 c 0
 189 243 225 225 251 196 c 0
 271 174 285 142 285 113 c 0
EndSplineSet
EndChar
StartChar: Ydieresis
Encoding: 376 376 191
Width: 728
Flags: W
HStem: -4 39 -3 21G<241.5 247> 619 31<268 296 296 300 27 305.5> 704 120<265.5 298.5 442.5 476>
VStem: 221 121<747 780.5> 341 97<241 241> 399 120<747.5 780.5>
LayerCount: 2
Fore
SplineSet
519 764 m 0xba
 519 731 493 704 459 704 c 0
 426 704 399 731 399 764 c 0
 399 797 426 824 459 824 c 0
 493 824 519 797 519 764 c 0xba
342 764 m 0
 342 730 315 704 282 704 c 0
 249 704 221 730 221 764 c 0
 221 797 249 824 282 824 c 0
 315 824 342 797 342 764 c 0
730 635 m 0
 730 629 728 618 721 618 c 0
 683 616 657 602 638 582 c 0
 616 559 602 531 586 504 c 2
 438 253 l 1
 439 204 438 128 438 99 c 0
 438 62 451 40 494 34 c 0
 505 33 514 36 527 33 c 0
 535 31 539 22 539 13 c 0
 539 4 535 -4 527 -4 c 0xb4
 405 -2 356 0 247 -3 c 0x7a
 236 -3 232 15 236 26 c 0
 239 34 247 36 257 36 c 0
 266 37 277 35 284 35 c 0
 322 37 338 62 340 99 c 0
 342 132 343 203 341 241 c 1xb4
 158 527 l 2
 110 602 90 614 30 617 c 0
 24 617 18 616 16 624 c 0
 15 627 15 634 16 638 c 0
 17 646 22 650 27 650 c 0
 96 649 242 648 296 650 c 0
 304 650 318 619 293 619 c 0
 243 619 230 610 230 599 c 0
 230 588 233 582 262 537 c 2
 396 331 l 2
 401 323 417 333 423 344 c 2
 530 525 l 2
 557 570 562 581 562 592 c 0
 562 611 551 618 505 618 c 2
 495 618 l 1
 483 623 484 650 498 650 c 0
 549 648 642 648 721 650 c 0
 728 650 730 642 730 635 c 0
EndSplineSet
Validated: 33
EndChar
StartChar: Zcaron
Encoding: 381 381 11
Width: 709
Flags: W
HStem: -3 51<217.5 332> -2 21G<51.5 56 557 596> 602 48<190.5 240 240 454> 650 54<312.5 318 318 394> 865 20G<490 496.5> 866 20G<212.5 217>
LayerCount: 2
Fore
SplineSet
505 880 m 2xb8
 408 709 l 2
 404 705 402 704 394 704 c 2
 318 704 l 2
 307 704 301 708 301 712 c 2
 204 879 l 2
 202 882 204 884 206 885 c 0xb8
 208 886 211 886 214 886 c 0xb4
 220 886 227 885 230 881 c 2
 365 776 l 1
 478 881 l 2
 481 883 487 885 493 885 c 0
 500 885 506 883 505 880 c 2xb8
636 195 m 0
 634 145 628 56 623 10 c 0
 621 0 599 -2 593 -2 c 0x78
 521 -2 389 -3 275 -3 c 0xb8
 160 -3 61 -3 56 -2 c 0x78
 47 -2 34 1 35 15 c 0
 36 19 39 27 41 30 c 2
 469 588 l 2
 476 597 459 602 454 602 c 2
 240 602 l 2
 141 602 127 595 115 495 c 0
 115 490 92 488 87 500 c 1
 87 536 88 606 92 640 c 0
 94 647 107 649 114 650 c 2
 590 650 l 2
 610 650 625 639 610 619 c 2
 187 71 l 2
 181 65 172 48 211 48 c 2
 465 48 l 2
 569 48 594 83 604 183 c 2
 605 193 l 1
 610 199 636 202 636 195 c 0
EndSplineSet
EndChar
StartChar: zcaron
Encoding: 382 382 12
Width: 425
Flags: W
HStem: -2 49<147 298 147 343> 366 51 417 64 642 20G<350 356> 643 20G<71.5 76>
LayerCount: 2
Fore
SplineSet
364 657 m 2xf0
 267 486 l 2
 264 482 261 481 254 481 c 2
 177 481 l 2
 166 481 161 484 160 489 c 2
 63 656 l 2
 62 659 64 661 66 662 c 0xf0
 68 663 70 663 73 663 c 0xe8
 79 663 87 662 90 658 c 2
 224 553 l 1
 337 658 l 2
 340 660 347 662 353 662 c 0
 359 662 365 660 364 657 c 2xf0
395 118 m 2
 354 6 l 2
 352 2 347 -1 343 -2 c 0
 262 -4 100 -4 21 -2 c 0
 17 -2 14 9 15 17 c 0
 16 22 20 24 23 29 c 2
 266 360 l 2
 268 365 262 368 259 369 c 0
 213 370 166 366 119 366 c 0
 92 366 82 358 61 273 c 0
 58 266 45 266 38 269 c 0
 29 272 31 276 32 283 c 0
 41 333 55 413 62 442 c 0
 64 446 90 447 90 441 c 0
 90 420 93 414 133 415 c 0
 192 416 304 418 361 417 c 0
 370 417 375 420 382 413 c 1
 384 404 384 395 380 390 c 0
 295 279 172 108 135 54 c 0
 133 49 143 46 147 47 c 0
 182 44 238 43 298 47 c 0
 333 49 341 61 364 115 c 1
 368 120 l 2
 372 130 399 129 395 118 c 2
EndSplineSet
EndChar
StartChar: florin
Encoding: 402 402 173
Width: 523
Flags: W
HStem: -231 43<76.5 95 76.5 109> -231 113<48 55 31.5 109> 420 48 625 111<442 498> 699 37<442 451>
LayerCount: 2
Fore
SplineSet
527 670 m 0xa8
 527 645 510 625 486 625 c 0xb0
 467 625 448 640 448 660 c 0
 448 666 450 674 454 680 c 0
 458 688 458 691 458 692 c 0
 458 695 456 699 446 699 c 0
 417 699 404 682 389 598 c 2
 370 494 l 2
 369 486 364 466 377 466 c 2
 443 466 l 2
 450 466 457 464 457 458 c 2
 450 429 l 2
 448 421 439 421 432 420 c 2
 366 420 l 2
 361 420 355 414 354 409 c 0
 343 345 338 325 314 227 c 0
 297 156 278 89 261 26 c 0
 215 -140 151 -231 67 -231 c 0
 29 -231 -2 -206 -2 -170 c 0
 -2 -142 18 -118 45 -118 c 0x68
 65 -118 83 -134 83 -154 c 0
 83 -161 81 -165 75 -176 c 0
 73 -180 72 -183 72 -184 c 0
 72 -185 73 -188 80 -188 c 0
 110 -188 138 -142 159 -36 c 2
 204 186 l 1
 257 406 l 2
 259 415 256 419 248 420 c 2
 180 420 l 2
 173 421 169 425 171 429 c 2
 178 459 l 2
 181 466 188 467 194 468 c 0
 264 471 268 475 296 557 c 0
 333 666 358 705 408 727 c 0
 421 733 435 736 449 736 c 0
 493 736 527 709 527 670 c 0xa8
EndSplineSet
Validated: 1
EndChar
StartChar: circumflex
Encoding: 710 710 219
Width: 349
Flags: W
LayerCount: 2
Fore
SplineSet
315 486 m 2
 317 481 320 474 314 473 c 0
 307 471 297 472 294 475 c 2
 172 579 l 1
 57 475 l 2
 49 468 29 473 33 481 c 2
 122 637 l 2
 125 642 130 645 135 647 c 0
 142 648 197 649 210 648 c 0
 220 647 222 646 227 638 c 2
 315 486 l 2
EndSplineSet
Validated: 33
EndChar
StartChar: caron
Encoding: 711 711 228
Width: 349
Flags: W
HStem: 481 21G<133.5 139 139 215> 642 20G<311 317> 643 20G<33.5 38>
LayerCount: 2
Fore
SplineSet
326 657 m 2xc0
 229 486 l 2
 225 482 223 481 215 481 c 2
 139 481 l 2
 128 481 122 484 121 489 c 2
 25 656 l 2
 23 659 25 661 27 662 c 0xc0
 29 663 32 663 35 663 c 0xa0
 41 663 48 662 51 658 c 2
 186 553 l 1
 299 658 l 2
 301 660 308 662 314 662 c 0
 320 662 326 660 326 657 c 2xc0
EndSplineSet
Validated: 1
EndChar
StartChar: breve
Encoding: 728 728 222
Width: 349
Flags: MW
HStem: 481 86<143 209.5 143 215.5>
LayerCount: 2
Fore
SplineSet
325 631 m 0
 318 541 256 481 175 481 c 0
 94 481 33 540 25 631 c 0
 25 637 48 641 51 632 c 0
 75 586 110 567 176 567 c 0
 243 567 283 590 298 632 c 0
 300 635 307 636 313 636 c 0
 320 636 326 635 325 631 c 0
EndSplineSet
EndChar
StartChar: dotaccent
Encoding: 729 729 223
Width: 349
Flags: MW
HStem: 476 121<158.5 191.5>
VStem: 115 120<520.5 553>
LayerCount: 2
Fore
SplineSet
235 537 m 0
 235 504 208 476 175 476 c 0
 142 476 115 504 115 537 c 0
 115 569 142 597 175 597 c 0
 208 597 235 570 235 537 c 0
EndSplineSet
EndChar
StartChar: ring
Encoding: 730 730 224
Width: 349
Flags: MW
HStem: 474 47<157.5 187.5 157.5 200.5> 633 47<157.5 187.5>
VStem: 70 47<561.5 592.5 561.5 605.5> 227 47<561.5 592.5>
LayerCount: 2
Fore
SplineSet
274 577 m 0
 274 520 228 474 173 474 c 0
 116 474 70 520 70 577 c 0
 70 634 116 680 173 680 c 0
 228 680 274 634 274 577 c 0
227 577 m 0
 227 608 202 633 173 633 c 0
 142 633 117 608 117 577 c 0
 117 546 142 521 173 521 c 0
 202 521 227 546 227 577 c 0
EndSplineSet
EndChar
StartChar: ogonek
Encoding: 731 731 227
Width: 349
Flags: MW
HStem: -191 54<209.5 214> -7 20G<116 155 155 155>
VStem: 73 65<-121 -35>
LayerCount: 2
Fore
SplineSet
318 -148 m 1
 255 -184 234 -191 194 -191 c 0
 123 -191 73 -152 73 -90 c 0
 73 -53 89 -14 116 13 c 1
 155 13 l 1
 140 -16 138 -26 138 -44 c 0
 138 -97 180 -137 239 -137 c 0
 259 -137 276 -133 302 -124 c 1
 318 -148 l 1
EndSplineSet
Validated: 1
EndChar
StartChar: tilde
Encoding: 732 732 220
Width: 349
Flags: W
HStem: 469 71<263 266> 537 70<81.5 87.5> 592 20G<319 322>
LayerCount: 2
Fore
SplineSet
336 593 m 0xa0
 336 522 295 469 237 469 c 0xa0
 210 469 178 482 140 508 c 0
 103 534 94 537 81 537 c 0
 62 537 52 526 44 490 c 0
 44 486 42 482 41 472 c 0
 37 464 16 459 14 472 c 0
 18 558 51 607 112 607 c 0x40
 142 607 165 598 210 567 c 0
 241 546 257 540 269 540 c 0
 290 540 301 552 309 606 c 0
 309 610 316 612 322 612 c 0
 328 613 334 610 334 606 c 0
 336 600 336 596 336 593 c 0xa0
EndSplineSet
EndChar
StartChar: hungarumlaut
Encoding: 733 733 226
Width: 349
Flags: MW
HStem: 642 20G<82 170 170 170 237 328 328 328>
LayerCount: 2
Fore
SplineSet
332 652 m 2
 222 476 l 2
 220 473 212 472 206 473 c 0
 200 473 194 475 194 477 c 2
 227 654 l 2
 229 660 232 662 237 662 c 2
 328 662 l 2
 335 660 334 657 332 652 c 2
175 652 m 2
 63 476 l 2
 56 471 36 473 36 477 c 2
 69 653 l 2
 70 661 76 662 82 662 c 2
 170 662 l 2
 177 660 179 658 175 652 c 2
EndSplineSet
EndChar
StartChar: endash
Encoding: 8211 8211 183
Width: 610
Flags: MW
HStem: 212 59<46 560 51 558>
LayerCount: 2
Fore
SplineSet
574 221 m 2
 573 214 567 212 558 212 c 0
 346 214 222 214 48 212 c 0
 44 212 38 219 38 225 c 2
 39 260 l 2
 40 265 46 270 51 271 c 0
 205 276 451 273 560 271 c 0
 568 271 574 263 574 258 c 2
 574 221 l 2
EndSplineSet
EndChar
StartChar: emdash
Encoding: 8212 8212 184
Width: 855
Flags: MW
HStem: 201 60<105 746 105 747>
LayerCount: 2
Fore
SplineSet
763 250 m 0
 768 235 762 229 761 212 c 0
 759 208 754 200 747 201 c 0
 535 204 265 204 101 201 c 0
 94 200 84 204 85 214 c 0
 85 224 82 228 83 242 c 0
 83 248 88 261 105 261 c 0
 273 264 590 264 746 261 c 0
 753 259 762 256 763 250 c 0
EndSplineSet
Validated: 33
EndChar
StartChar: quoteleft
Encoding: 8216 8216 187
Width: 272
Flags: W
HStem: 452 107<153 162>
VStem: 69 54<564 575.5> 69 134<518 522 492 575.5>
LayerCount: 2
Fore
SplineSet
203 508 m 0xa0
 203 476 178 452 146 452 c 0
 102 452 69 493 69 543 c 0
 69 608 117 668 188 695 c 0
 199 699 215 679 197 666 c 0
 148 638 123 602 123 570 c 0xc0
 123 558 127 555 133 555 c 0
 134 555 136 556 137 556 c 2
 143 557 l 2
 147 558 151 559 155 559 c 0
 183 559 203 536 203 508 c 0xa0
EndSplineSet
Validated: 1
EndChar
StartChar: quoteright
Encoding: 8217 8217 188
Width: 272
Flags: W
HStem: 587 107<113 123>
VStem: 71 134<623.5 631.5 576 654>
LayerCount: 2
Fore
SplineSet
205 606 m 0
 205 546 162 486 99 456 c 0
 93 453 82 449 77 455 c 0
 71 462 68 474 77 480 c 0
 127 509 152 543 152 575 c 0xc0
 152 583 151 593 141 591 c 0
 134 589 127 587 119 587 c 0
 91 587 71 609 71 638 c 0
 71 670 97 694 129 694 c 0
 173 694 205 657 205 606 c 0
EndSplineSet
Validated: 1
EndChar
StartChar: quotesinglbase
Encoding: 8218 8218 200
Width: 257
Flags: W
HStem: -19 100<107 113.5 112 119>
VStem: 67 124<15.5 20.5 -33.5 44>
LayerCount: 2
Fore
SplineSet
191 -3 m 0
 191 -64 148 -121 82 -147 c 0
 77 -149 73 -144 71 -137 c 0
 70 -130 70 -122 73 -121 c 0
 120 -92 143 -61 143 -30 c 0xc0
 143 -18 139 -16 136 -16 c 2
 136 -16 135 -16 133 -16 c 0
 128 -17 124 -18 119 -19 c 0
 117 -19 115 -19 112 -19 c 0
 86 -19 67 2 67 29 c 0
 67 59 92 81 122 81 c 0
 163 81 191 44 191 -3 c 0
EndSplineSet
Validated: 1
EndChar
StartChar: quotedblleft
Encoding: 8220 8220 185
Width: 502
Flags: W
HStem: 452 107<164.5 173 390 398>
VStem: 80 54<564 570.5> 80 135<514.5 522 492 570.5> 305 54<564 570.5> 305 135<514.5 522 492 570.5>
LayerCount: 2
Fore
SplineSet
440 508 m 0xc8
 440 476 414 452 382 452 c 0
 337 452 305 490 305 539 c 0
 305 602 350 663 417 692 c 0
 423 694 432 695 437 689 c 0
 441 682 443 671 434 666 c 0
 384 638 359 602 359 570 c 0xd0
 359 558 363 555 369 555 c 0
 373 555 376 556 380 557 c 0
 384 558 388 559 392 559 c 0
 420 559 440 536 440 508 c 0xc8
215 508 m 0
 215 476 189 452 157 452 c 0
 112 452 80 490 80 539 c 0
 80 602 125 663 192 692 c 0
 200 695 208 692 210 688 c 0
 214 681 217 670 209 666 c 0
 160 637 134 602 134 570 c 0xd0
 134 558 138 555 144 555 c 0
 145 555 147 556 149 556 c 2
 154 557 l 2
 158 558 162 559 167 559 c 0
 195 559 215 536 215 508 c 0
EndSplineSet
EndChar
StartChar: quotedblright
Encoding: 8221 8221 186
Width: 501
Flags: W
HStem: 587 107<119.5 127 344.5 353>
VStem: 77 136<623.5 631.5 576 654> 302 136<623.5 631.5 576 654>
LayerCount: 2
Fore
SplineSet
438 606 m 0
 438 546 394 485 329 455 c 0
 322 452 311 448 306 455 c 0
 300 462 299 475 307 480 c 0
 359 508 384 543 384 575 c 0xe0
 384 589 380 592 374 591 c 0
 372 591 370 591 369 590 c 0
 362 589 356 587 350 587 c 0
 323 587 302 609 302 638 c 0
 302 670 328 694 361 694 c 0
 404 694 438 657 438 606 c 0
213 606 m 0
 213 546 168 485 103 455 c 0
 100 454 87 449 81 457 c 0
 76 464 74 475 82 480 c 0
 134 508 159 543 159 575 c 0xe0
 159 588 154 592 151 592 c 0
 147 592 142 590 139 589 c 0
 134 588 129 587 125 587 c 0
 98 587 77 609 77 638 c 0
 77 670 103 694 136 694 c 0
 179 694 213 657 213 606 c 0
EndSplineSet
EndChar
StartChar: quotedblbase
Encoding: 8222 8222 201
Width: 473
Flags: W
HStem: -19 100<113 120 325 332>
VStem: 72 127<15.5 21 -33.5 44> 284 127<15.5 21 -33.5 44>
LayerCount: 2
Fore
SplineSet
411 -3 m 0
 411 -64 366 -122 300 -147 c 0
 291 -151 284 -125 290 -121 c 0
 338 -93 362 -61 362 -30 c 0xe0
 362 -18 358 -16 355 -16 c 2
 354 -16 l 1
 351 -16 l 1
 343 -17 l 2
 339 -18 334 -19 330 -19 c 0
 304 -19 284 2 284 29 c 0
 284 59 310 81 340 81 c 0
 381 81 411 45 411 -3 c 0
199 -3 m 0
 199 -64 154 -121 88 -147 c 0
 80 -150 65 -126 78 -121 c 0
 126 -92 150 -61 150 -30 c 0xe0
 150 -19 146 -16 142 -16 c 0
 138 -16 135 -17 131 -17 c 0
 127 -18 122 -19 118 -19 c 0
 92 -19 72 2 72 29 c 0
 72 59 98 81 128 81 c 0
 169 81 199 45 199 -3 c 0
EndSplineSet
Validated: 1
EndChar
StartChar: dagger
Encoding: 8224 8224 148
Width: 523
Flags: MW
HStem: 359 106<39.5 47.5 38 52.5 475.5 490> 669 20G<246 284 284 293>
VStem: 225 81<439 439>
LayerCount: 2
Fore
SplineSet
502 396 m 2
 502 375 499 359 481 359 c 0
 465 359 439 363 408 368 c 0
 377 373 342 380 307 384 c 0
 293 386 288 381 289 367 c 2
 319 -187 l 2
 320 -191 322 -205 322 -209 c 0
 322 -221 313 -231 301 -230 c 0
 277 -229 252 -229 228 -230 c 0
 215 -232 209 -219 209 -209 c 0
 209 -201 209 -195 210 -188 c 2
 240 366 l 2
 241 382 236 385 220 383 c 2
 74 363 l 2
 66 362 57 359 48 359 c 0
 31 359 28 374 28 396 c 2
 28 433 l 2
 28 452 30 465 46 465 c 0
 49 465 53 464 58 463 c 0
 62 463 66 462 68 462 c 2
 225 439 l 2
 239 437 240 446 239 457 c 0
 230 528 221 598 214 670 c 0
 212 687 223 689 246 689 c 2
 284 689 l 2
 302 689 316 688 316 672 c 0
 316 599 299 526 290 453 c 0
 289 441 292 437 306 439 c 0
 324 442 362 448 398 454 c 0
 434 460 469 465 482 465 c 0
 500 465 502 454 502 433 c 2
 502 396 l 2
EndSplineSet
EndChar
StartChar: daggerdbl
Encoding: 8225 8225 198
Width: 523
Flags: HW
HStem: 359 106<39.5 47.5 38 52.5 475.5 490> 669 20G<246 284 284 293>
VStem: 225 81<439 439>
LayerCount: 2
Fore
SplineSet
481 359 m 0
 430.275755834 359 359.828868225 379.003139257 304.826419074 384.261205575 c 1
 296.445859863 229.500212133 l 1
 304.826451793 74.7390920059 l 1
 359.895836948 79.9912247205 430.187076945 100 481 100 c 0
 499 100 502 84 502 63 c 2
 502 26 l 2
 502 5 500 -6 482 -6 c 0
 449.693750249 -6 336.168426651 14.9719288916 306 20 c 0
 292 22 289 18 290 6 c 0
 299 -67 316 -140 316 -213 c 0
 316 -229 302 -230 284 -230 c 2
 246 -230 l 2
 223 -230 212 -228 214 -211 c 0
 221 -139 230 -69 239 2 c 0
 240 13 239 22 225 20 c 2
 68 -3 l 2
 66 -3 62 -4 58 -4 c 0
 53 -5 49 -6 46 -6 c 0
 30 -6 28 7 28 26 c 2
 28 63 l 2
 28 85 31 100 48 100 c 0
 57 100 66 97 74 96 c 2
 220 76 l 2
 221.523682757 75.8095396554 222.946401235 75.6643579954 224.272818554 75.5713826357 c 1
 232.608216214 229.498392759 l 1
 224.272471504 383.428186769 l 1
 222.945018714 383.335312761 221.522296993 383.190287124 220 383 c 2
 74 363 l 2
 66 362 57 359 48 359 c 0
 31 359 28 374 28 396 c 2
 28 433 l 2
 28 452 30 465 46 465 c 0
 49 465 53 464 58 463 c 0
 62 463 66 462 68 462 c 2
 225 439 l 2
 239 437 240 446 239 457 c 0
 230 528 221 598 214 670 c 0
 212 687 223 689 246 689 c 2
 284 689 l 2
 302 689 316 688 316 672 c 0
 316 599 299 526 290 453 c 0
 289 441 292 437 306 439 c 0
 336.317621817 444.05293697 449.529944559 465 482 465 c 0
 500 465 502 454 502 433 c 2
 502 396 l 2
 502 375 499 359 481 359 c 0
EndSplineSet
Validated: 524321
EndChar
StartChar: bullet
Encoding: 8226 8226 153
Width: 371
Flags: MW
HStem: 195 21G<149.5 222.5> 441 20G<149.5 222.5>
LayerCount: 2
Fore
SplineSet
319 328 m 0
 319 254 259 195 186 195 c 0
 113 195 55 254 55 328 c 0
 55 401 113 461 186 461 c 0
 259 461 319 401 319 328 c 0
EndSplineSet
EndChar
StartChar: ellipsis
Encoding: 8230 8230 176
Width: 1056
Flags: W
HStem: -17 112<169.5 204.5 861.5 895.5> 74 20G<516.5 551.5>
VStem: 126 120<25.5 55.5 23 58.5> 474 119<22 54.5 21.5 55> 818 119<26 55.5 22.5 59>
LayerCount: 2
Fore
SplineSet
937 39 m 0xb8
 937 6 914 -17 879 -17 c 0
 844 -17 818 10 818 42 c 0
 818 76 843 95 878 95 c 0
 913 95 937 72 937 39 c 0xb8
593 38 m 0
 593 5 570 -17 535 -17 c 0xb8
 499 -17 474 6 474 38 c 0
 474 72 499 94 534 94 c 0x78
 569 94 593 71 593 38 c 0
246 39 m 0
 246 7 222 -17 187 -17 c 0
 152 -17 126 9 126 42 c 0
 126 75 152 95 187 95 c 0
 222 95 246 72 246 39 c 0
EndSplineSet
Validated: 1
EndChar
StartChar: perthousand
Encoding: 8240 8240 202
Width: 1047
Flags: MW
HStem: -33 33<500 552.5 500 565.5 826.5 878.5> 226 32<498 550 824 876.5> 323 34<187 239.5 187 252.5> 582 32<185 237>
VStem: 70 58<432.5 504.5 432.5 510.5> 298 57<470 470> 383 58<76.5 148.5 76.5 154.5> 611 57<114 114> 710 57<76.5 148.5 76.5 154.5> 938 56<114 114>
LayerCount: 2
Fore
SplineSet
994 114 m 0
 993 28 931 -33 852 -33 c 0
 776 -33 710 28 710 111 c 0
 710 198 773 258 851 258 c 0
 929 258 996 200 994 114 c 0
355 470 m 0
 353 384 292 323 213 323 c 0
 137 323 70 384 70 467 c 0
 70 554 134 614 211 614 c 0
 289 614 356 556 355 470 c 0
581 625 m 2
 192 -50 l 2
 189 -55 188 -57 186 -58 c 0
 184 -59 180 -58 178 -58 c 2
 165 -59 l 2
 150 -60 147 -50 153 -39 c 2
 543 640 l 2
 549 648 560 649 566 647 c 2
 578 643 l 2
 585 641 583 630 581 625 c 2
668 114 m 0
 666 28 605 -33 526 -33 c 0
 450 -33 383 28 383 111 c 0
 383 198 447 258 524 258 c 0
 602 258 669 200 668 114 c 0
938 114 m 0
 938 187 904 226 849 226 c 0
 799 226 767 184 767 113 c 0
 767 40 801 0 852 0 c 0
 905 0 938 41 938 114 c 0
298 470 m 0
 298 544 264 582 210 582 c 0
 160 582 128 540 128 469 c 0
 128 396 161 357 213 357 c 0
 266 357 298 397 298 470 c 0
611 114 m 0
 611 187 577 226 523 226 c 0
 473 226 441 184 441 113 c 0
 441 40 474 0 526 0 c 0
 579 0 611 41 611 114 c 0
EndSplineSet
Validated: 33
EndChar
StartChar: guilsinglleft
Encoding: 8249 8249 194
Width: 258
Flags: HW
HStem: 33 21G<187 218 187 187> 393 20G<302 330 330 330> 410 20G<187 218 218 218>
LayerCount: 2
Fore
SplineSet
218 33 m 1
 187 33 l 1
 31 230 l 1
 187 430 l 1
 218 430 l 1xa0
 117 230 l 1
 117 231 l 1
 218 33 l 1
EndSplineSet
EndChar
StartChar: guilsinglright
Encoding: 8250 8250 195
Width: 259
Flags: HW
HStem: 33 21G<42 73 42 42> 393 20G<-70 -40 -40 -40> 410 20G<42 73 73 73>
LayerCount: 2
Fore
SplineSet
230 230 m 1xa0
 73 33 l 1
 42 33 l 1
 143 231 l 1
 143 230 l 1
 42 430 l 1
 73 430 l 1
 230 230 l 1xa0
EndSplineSet
Validated: 5
EndChar
StartChar: fraction
Encoding: 8260 8260 192
Width: 242
Flags: MW
HStem: -204 21G<-56 -10 -56 -56> 671 20G<296 342 342 342>
LayerCount: 2
Fore
SplineSet
342 691 m 1
 -10 -204 l 1
 -56 -204 l 1
 296 691 l 1
 342 691 l 1
EndSplineSet
Validated: 1
EndChar
StartChar: Euro
Encoding: 8364 8364 193
Width: 489
Flags: MW
HStem: -18 37<259.5 311.5 259.5 312> 235 45<15 16 16 74 15 78 166 339 166 166> 352 46<20 21 21 75 164 345> 604 36<251 300.5 236.5 314>
LayerCount: 2
Fore
SplineSet
340 280 m 2
 345 280 351 276 351 270 c 2
 351 247 l 2
 351 240 347 235 339 235 c 2
 166 235 l 1
 179 93 225 19 294 19 c 0
 329 19 356 38 381 79 c 0
 394 102 396 112 410 156 c 0
 411 165 450 167 448 155 c 0
 440 105 426 44 412 1 c 1
 404 3 399 3 395 3 c 0
 354 3 340 -18 284 -18 c 0
 188 -18 98 72 78 235 c 1
 16 235 l 2
 8 235 4 240 4 247 c 2
 4 270 l 2
 4 276 10 280 15 280 c 2
 74 280 l 1
 74 304 l 2
 74 320 74 337 75 352 c 1
 21 352 l 2
 13 352 9 357 9 364 c 2
 9 388 l 2
 9 394 15 398 20 398 c 2
 80 398 l 1
 104 558 189 640 284 640 c 0
 317 640 345 630 375 612 c 0
 384 607 391 601 400 610 c 0
 413 623 433 618 433 609 c 0
 436 552 437 509 437 464 c 0
 437 451 404 448 402 456 c 0
 384 551 341 604 287 604 c 0
 215 604 174 535 164 398 c 1
 346 398 l 2
 351 398 357 394 357 388 c 2
 357 364 l 2
 357 357 353 352 345 352 c 2
 162 352 l 1
 162 325 l 2
 162 309 162 294 163 280 c 1
 340 280 l 2
EndSplineSet
Validated: 33
EndChar
StartChar: trademark
Encoding: 8482 8482 158
Width: 1025
Flags: W
HStem: 276 21G<597 604 597 598.5> 277 21G<446.5 450.5> 278 30<138 313> 670 31<453 455>
VStem: 168 97<368 369 369 639> 499 44<368 369 369 568> 860 96<368 369 369 581 581 581.5>
LayerCount: 2
Fore
SplineSet
1012 291 m 0x3e
 1012 281 1010 278 996 278 c 0
 953 278 866 280 823 278 c 0
 802 277 799 278 799 293 c 0
 799 298 799 301 799 303 c 0
 799 307 800 308 803 308 c 0
 804 308 805 308 807 308 c 0
 809 308 813 307 818 308 c 0
 855 311 860 322 860 368 c 2
 860 581 l 2
 860 582 859 590 857 589 c 0
 856 588 855 587 854 584 c 2
 713 278 l 1
 689 278 l 1x3e
 550 579 l 2
 543 588 543 570 543 568 c 2
 543 369 l 2
 543 314 549 307 585 307 c 0
 592 307 597 307 600 307 c 0
 604 307 606 307 607 306 c 0
 608 305 609 304 609 302 c 0
 609 300 608 297 608 293 c 0
 608 281 607 277 604 276 c 0
 602 276 600 276 597 276 c 0x9e
 594 277 590 278 586 278 c 0
 534 279 519 281 461 278 c 0x3e
 456 277 452 277 449 277 c 0x5e
 444 277 442 278 442 283 c 0
 442 286 442 289 442 294 c 0
 442 305 448 307 456 307 c 0
 495 309 499 318 499 368 c 2
 499 606 l 2
 499 661 496 669 457 670 c 0
 449 670 445 671 443 674 c 0
 443 675 442 677 442 679 c 0
 442 681 442 684 442 688 c 0
 442 701 445 701 455 701 c 0
 486 700 555 698 586 700 c 0
 596 700 598 698 601 691 c 2
 723 435 l 2
 726 430 728 426 731 425 c 0
 733 424 735 425 736 428 c 2
 862 701 l 1
 893 700 956 701 992 701 c 0
 996 701 1003 701 1007 699 c 0
 1011 697 1012 693 1012 686 c 0
 1012 678 1012 675 1010 673 c 0
 1009 672 1007 671 1005 671 c 0
 1003 670 1000 670 996 670 c 0
 961 668 956 658 956 607 c 2
 956 369 l 2
 956 319 959 311 997 308 c 0
 1001 307 1003 307 1006 307 c 0
 1008 307 1009 307 1010 306 c 0
 1012 304 1012 300 1012 291 c 0x3e
418 596 m 0
 418 593 418 591 417 590 c 0
 416 587 412 587 405 587 c 2
 390 587 l 1
 382 643 360 659 297 659 c 0
 291 659 285 659 281 659 c 0
 276 659 273 659 271 657 c 0
 266 655 265 651 265 639 c 2
 265 369 l 2
 265 320 269 311 307 308 c 0
 309 307 311 308 313 308 c 0
 314 308 316 308 316 307 c 0
 318 306 319 302 319 291 c 0
 319 288 319 286 319 284 c 0
 318 282 318 281 317 280 c 0
 315 277 310 277 300 278 c 0
 250 280 171 279 138 278 c 0
 118 278 117 279 117 293 c 0
 117 297 117 299 117 301 c 0
 118 305 118 306 122 307 c 0
 124 307 126 307 129 308 c 0
 165 313 168 320 168 368 c 2
 168 640 l 2
 168 651 167 656 162 658 c 0
 160 659 157 659 152 659 c 0
 148 659 142 659 135 659 c 0
 75 659 54 643 44 587 c 1
 27 587 l 2
 15 587 14 589 17 610 c 2
 26 684 l 2
 28 699 32 701 47 701 c 0
 126 699 294 699 383 701 c 0
 402 702 407 700 409 680 c 2
 417 606 l 2
 417 602 418 599 418 596 c 0
EndSplineSet
EndChar
StartChar: minus
Encoding: 8722 8722 20
Width: 698
Flags: W
HStem: 305 21G<603 609.5> 306 66<95 105>
LayerCount: 2
Fore
SplineSet
630 330 m 2x40
 630 325 630 321 629 318 c 0
 629 314 628 312 626 310 c 0
 623 306 616 305 603 305 c 0x80
 469 309 262 309 105 306 c 0
 85 306 71 306 71 327 c 2
 71 353 l 2
 71 369 75 372 91 372 c 0
 266 368 577 369 610 372 c 0
 628 373 630 366 630 352 c 2
 630 330 l 2x40
EndSplineSet
EndChar
StartChar: ff
Encoding: 64256 64256 230
Width: 627
Flags: W
HStem: -5 21G<335.5 339 339 589> -4 35<31.5 69 41 69 41 274> 353 61<497.5 501> 392 20G<201 377 377 380.5> 395 20G<571 576> 666 58<565.5 646.5>
VStem: 106 83<92 337> 400 80<130 339>
LayerCount: 2
Fore
SplineSet
743 669 m 0x57
 743 659 734 642 724 626 c 0
 710 604 696 617 682 628 c 0
 655 650 615 666 586 666 c 0
 545 666 507 640 493 600 c 0
 474 546 479 488 480 432 c 0
 480 416 488 414 503 414 c 2x67
 571 415 l 2x4f
 581 415 581 415 586 407 c 0
 589 401 592 370 593 360 c 0
 591 355 585 352 578 352 c 2
 501 353 l 2
 494 353 480 347 480 339 c 2
 480 126 l 2
 480 43 485 32 551 32 c 0
 563 34 579 33 590 32 c 0
 594 31 596 18 596 11 c 0
 597 3 594 -5 589 -5 c 0
 525 -3 401 -4 339 -5 c 0xa7
 332 -5 326 3 326 10 c 0
 326 17 326 29 332 31 c 2
 341 31 l 2
 394 31 400 40 400 130 c 2
 400 340 l 2
 398 352 390 354 380 354 c 0
 325 356 264 354 211 353 c 0
 204 353 190 344 189 337 c 0
 189 256 186 173 189 90 c 0
 189 78 190 61 195 50 c 0
 199 39 208 33 227 32 c 0
 244 31 263 32 280 29 c 0
 289 25 289 8 287 1 c 0
 285 -3 278 -4 274 -4 c 0
 184 -2 99 -2 33 -4 c 0
 30 -4 23 -3 21 0 c 0
 17 7 16 27 31 30 c 0
 34 30 38 32 41 31 c 0
 97 31 106 36 106 92 c 2
 106 340 l 2
 106 351 94 352 91 352 c 2
 46 352 l 1
 46 352 38 352 30 353 c 0x67
 28 355 26 357 26 359 c 0
 24 365 23 378 26 382 c 0
 29 385 35 387 38 388 c 0
 64 393 83 397 106 412 c 1
 109 439 110 462 112 481 c 0
 120 552 144 582 198 631 c 0
 265 691 393 739 472 673 c 0
 481 662 491 662 495 666 c 0
 540 707 583 724 630 724 c 0
 663 724 719 711 740 679 c 0
 742 677 743 672 743 669 c 0x57
430 586 m 0
 435 595 419 609 413 615 c 0
 380 645 355 651 319 651 c 0
 264 651 208 605 196 549 c 0
 190 524 189 507 189 431 c 0
 189 424 191 413 201 412 c 0
 246 410 328 410 377 412 c 0x57
 384 412 400 413 400 421 c 0
 402 476 403 536 430 586 c 0
EndSplineSet
Ligature2: "'liga' Standard Ligatures in Latin lookup 1-1" f f
EndChar
StartChar: fi
Encoding: 64257 64257 196
Width: 556
Flags: MW
HStem: -4 21G<51 55> 348 49 574 20G<406 420.5> 675 40<274 306.5>
VStem: 105 77<113 319 424.5 440.5> 387 76<113 279>
LayerCount: 2
Fore
SplineSet
521 25 m 2
 531 24 531 1 520 -4 c 1
 490 -2 460 -2 425 -2 c 0
 393 -2 367 0 341 -2 c 0
 333 -2 328 -5 325 5 c 0
 318 27 333 26 350 28 c 0
 386 33 387 41 387 113 c 2
 387 286 l 2
 387 347 380 348 338 349 c 0
 309 350 232 350 203 349 c 0
 187 348 182 343 182 319 c 2
 182 113 l 2
 182 41 184 31 218 28 c 2
 250 25 l 2
 262 24 258 -1 248 -4 c 0
 207 -2 177 -1 142 -1 c 0
 109 -1 83 -2 55 -4 c 0
 47 -4 43 -4 40 4 c 0
 37 11 38 21 46 25 c 2
 69 28 l 2
 104 33 105 41 105 113 c 2
 105 321 l 2
 105 339 101 347 85 348 c 2
 51 351 l 2
 44 355 40 369 48 374 c 0
 54 380 73 382 91 392 c 0
 99 396 105 403 105 412 c 0
 105 469 113 526 136 580 c 0
 157 631 218 715 330 715 c 0
 398 715 455 679 455 636 c 0
 455 605 428 594 413 594 c 0
 399 594 391 601 386 609 c 0
 357 658 319 675 294 675 c 0
 217 675 182 590 182 436 c 0
 182 413 180 398 208 397 c 0
 240 396 300 396 326 397 c 0
 363 398 415 400 443 406 c 0
 452 409 461 414 467 404 c 1
 465 368 463 320 463 279 c 2
 463 113 l 2
 463 41 465 33 500 28 c 2
 521 25 l 2
EndSplineSet
Ligature2: "'liga' Standard Ligatures in Latin lookup 1-1" f i
EndChar
StartChar: fl
Encoding: 64258 64258 197
Width: 539
Flags: W
HStem: -3 31<234 240 240 243 243 244 305 307.5 307 311 311 313 313 344 509 516 516 520> 363 55<360 364> 371 20G<32 33> 666 44
VStem: 92 81<133 343 343 349.5 422.5 425> 379 79<133 346 346 352.5 440 628 628 628>
LayerCount: 2
Fore
SplineSet
527 3 m 0xbc
 526 -1 525 -3 520 -3 c 0
 519 -3 518 -3 516 -3 c 0
 467 -1 365 -1 311 -3 c 0
 310 -3 308 -3 307 -3 c 0
 302 -3 300 -2 298 3 c 0
 295 12 296 27 305 28 c 2
 313 28 l 2
 375 28 379 29 379 133 c 2
 379 346 l 2
 379 359 368 363 360 363 c 0xdc
 310 364 227 366 184 362 c 0
 179 362 174 356 173 351 c 2
 173 88 l 2
 173 39 184 28 234 28 c 0
 237 29 242 29 244 28 c 0
 254 27 255 -1 246 -3 c 0
 245 -3 244 -3 243 -3 c 2
 240 -3 l 2
 194 -3 96 1 38 -3 c 0
 32 -4 27 -3 24 2 c 0
 21 8 21 17 24 23 c 0
 27 29 33 28 38 28 c 0
 69 31 75 34 82 43 c 0
 91 55 92 63 92 133 c 2
 92 343 l 2
 92 356 84 360 76 361 c 2
 30 361 l 2
 28 361 26 364 25 369 c 0
 24 373 23 379 25 383 c 0
 26 387 31 391 33 391 c 2
 85 413 l 2
 89 416 92 420 92 425 c 0
 97 502 117 582 170 640 c 0
 214 689 259 715 319 715 c 0
 341 715 361 710 382 710 c 0
 401 710 413 715 428 734 c 1
 439 738 456 741 458 733 c 2
 458 88 l 2
 458 37 460 28 509 28 c 0
 514 30 518 29 522 28 c 0
 528 27 530 12 527 3 c 0xbc
379 440 m 2
 379 628 l 1
 345 651 307 666 278 666 c 0
 250 666 229 650 213 628 c 0
 191 597 173 532 173 428 c 0
 173 417 183 419 191 418 c 0
 253 416 321 418 359 418 c 0
 369 418 377 427 379 440 c 2
EndSplineSet
Ligature2: "'liga' Standard Ligatures in Latin lookup 1-1" f l
EndChar
